<?xml version="1.0" standalone="no"?>
<!DOCTYPE svg PUBLIC "-//W3C//DTD SVG 1.1//EN" "http://www.w3.org/Graphics/SVG/1.1/DTD/svg11.dtd" >
<svg xmlns="http://www.w3.org/2000/svg" xmlns:xlink="http://www.w3.org/1999/xlink" version="1.1">
<metadata></metadata>
<defs>
<font id="closeone" horiz-adv-x="1705" >
<font-face units-per-em="2048" ascent="1536" descent="-512" />
<missing-glyph horiz-adv-x="409" />
<glyph horiz-adv-x="0" />
<glyph horiz-adv-x="682" />
<glyph unicode=" "  horiz-adv-x="409" />
<glyph unicode="&#x09;" horiz-adv-x="409" />
<glyph unicode="&#xa0;" horiz-adv-x="409" />
<glyph unicode="!" horiz-adv-x="380" d="M82 473q0 15 -3.5 43t-4.5 37q-10 93 -11 111q-4 36 -4 57q-2 20 -4 59t-4 58q-2 37 -10 106q-1 15 -3 43.5t-3 42.5q-1 28 -3 78t-4 92.5t-5 79.5q-1 19 -7 52t-8 46q-3 19 -8 66q0 26 25 63q3 3 6.5 5t7.5 4.5t6 3.5q1 1 3 2t3 2q23 13 58 6q4 0 16 -8q16 -14 47 -37 q12 -8 14 -15q1 -8 4.5 -24.5t4.5 -24.5q0 -3 8 -45.5t10 -64.5q4 -43 8 -121q3 -26 9.5 -78t9.5 -78q1 -9 2 -27.5t2 -27.5q0 -2 -3.5 -6.5t-4.5 -5.5q5 -3 10 -21q2 -27 6 -82.5t6 -83.5q6 -91 6 -92q0 -4 12 -113q15 -90 17 -104q9 -50 10 -65q0 -4 -1 -10t-2.5 -13.5 t-2.5 -11.5q0 -9 -4 -29l-6 -12q-19 0 -19 -19q-4 0 -10 1t-8 1q-14 -14 -19 -24q-2 -2 -6 -19q-7 1 -23 3.5t-20 2.5q-6 3 -10 7q-2 2 -16 12q-10 5 -21 20q-2 2 -6 10.5t-10 10.5q-3 0 -8 10q-25 86 -29 127zM213 961q-4 1 -6 -2t-2 -11l12 4q0 9 -4 9zM336 84q6 0 1 -7 q-1 -3 -5 -5q-11 -9 -27 -33q-2 -2 -5.5 -4.5t-5.5 -4t-4 -5.5t-1 -9q-20 0 -33 -22q-4 -7 -11 -20t-9 -17q-25 -5 -29 -6q-19 0 -25 2q-38 12 -84 43q-12 8 -20.5 33t-1.5 39q3 6 8 26q9 35 53 70q12 9 56 22q29 7 47 -2h6q13 0 22 -12q10 -20 29 -14q1 -1 5.5 -8.5 t10.5 -6.5q9 2 13 -12q1 -5 10 -27q-1 -1 -3.5 -4.5t-3.5 -5t0.5 -4.5t6.5 -6z" />
<glyph unicode="&#x22;" horiz-adv-x="499" d="M449 1243q21 -121 -7 -260q-6 -18 -8 -22q-1 -2 -6 -10t-8 -13v-2h-2h-10q-21 0 -31 -10l-27 10l-2 2q-4 4 -12 16l-4 4q0 13 -15 48q-5 10 -8 22v4v4v56q3 68 0 135q0 22 6 43q5 46 4 57q0 3 9 8q16 8 37 15q2 1 6 2t6 2t6.5 2t7.5 2l37 -25q0 -1 1 -4.5t1 -5.5 q14 -48 19 -80zM55 1266q11 34 27 43q14 9 20 20q0 4 2 4h2q5 0 13 4l37 -22l4 10l4 -4l18 6q1 -2 2 -6t2 -6q-12 -47 -12 -135q0 -14 1 -39t1 -39q0 -18 1 -53t1 -52q0 -45 -20 -71q-1 -2 -4 -6.5t-4 -6.5l-15 -16l2 16l-24 -16l-17 12l-6 -2q-1 12 -16 56q-1 4 -3 11 t-3 11q-4 12 -9 53q0 5 -1 16.5t-1 16.5q-5 20 -6 23q-4 12 -4 16l-2 10q-4 50 -4 74q3 39 14 72z" />
<glyph unicode="$" horiz-adv-x="874" d="M242 743q-40 25 -72 68l-37 37q-13 17 -39 47q-4 0 -8 -2q-7 14 -25.5 45.5t-27.5 48.5q-3 6 -11.5 24t-13 30t-6.5 24q0 4 -1 11t-1 11t1 11.5t1 11.5q1 3 1 10t1 10t4 9.5t4 9.5q-11 14 -2 33q4 4 4 12q-3 16 13 35q26 38 77 61q16 5 41 17q27 8 41 10q6 1 29.5 7.5 t38.5 10.5q-13 109 2 158q10 2 12.5 9t0.5 14.5t1 15.5q0 -6 2 -10q15 10 17 12q6 4 18 16q4 -8 8 -12v27q4 2 7.5 3t6 1t6.5 -2t5 -3t5 -4t5 -4q6 -4 15 -4q10 -15 12 -16q6 -2 22 2q18 -39 39 -137q1 -5 1 -18t1 -19q0 -19 17 -21q38 -3 65 -6q17 0 25 -2q20 0 26 -8 q2 -2 7 -2q3 -1 13 -1.5t13 -2.5t10 -7.5t11 -6.5t14 -11q18 -14 31 -20q-7 -5 -8.5 -12t0 -14.5t0.5 -10.5q-2 -4 -10 -6t-7 -10q-12 -2 -18 -2q-17 0 -17 -15h-90q-13 3 -33 -4q-4 -43 -20 -55q-2 3 -5 8t-5 8q-1 -2 -1.5 -8.5t-6.5 -7.5q-2 -6 -2 -10q5 -35 15 -103.5 t15 -103.5q2 -17 6.5 -50t6.5 -49v-16v-27q7 -13 16 -18q9 -4 37 -19t45 -22q63 -26 121 -72q41 -34 77 -71q5 -5 21 -37q3 -5 7 -15.5t7 -15.5q8 -19 8 -57v-4q3 -16 -0.5 -29.5t-13 -33.5t-12.5 -27q-2 3 -3.5 6t-2.5 4q-15 -6 -28.5 -27t-16.5 -24t-13 -12.5t-16 -12.5 q-8 -5 -25.5 -14.5t-25.5 -14.5h-2q-15 -1 -49 -26q-8 -6 -23.5 -16t-17.5 -11q-7 -7 -7 -14v-72q0 -21 5.5 -64t5.5 -65q3 -29 0 -63q-2 5 -5.5 14t-5.5 14h-2l-2.5 -7.5t-2.5 -8.5t-1 -8q-3 -14 -14 -11q0 -6 1 -18t1 -18q-1 2 -6.5 5t-5.5 7q-1 3 -9.5 3t-11.5 -3 l-12 -12q-10 4 -15 15.5t-6 12.5q-3 0 -7.5 -1.5t-6.5 -0.5q-7 3 -10 10q-2 2 -4 7.5t-4 7.5q-7 -9 -8 -13.5t2 -17.5q-8 4 -11 4q-1 -2 -1.5 -3.5t-1 -4t-1.5 -4.5q-2 3 -4.5 8t-3.5 6l-8 4q-1 2 -3 6.5t-3 6.5q0 10 -2 10q-7 4 -10 10t-4.5 15t-2.5 12q-6 15 -6 37 q-4 47 -8 141q-3 20 -25 24q-2 1 -8 0t-8 3q-2 5 -12 8l4 8l-4 2q-42 -3 -82 6q-4 1 -16.5 1.5t-18.5 2.5q-4 1 -7.5 3t-8 5t-7.5 4q-15 8 -10 21q-18 9 -33 18q0 -4 -4 -12q-9 4 -17.5 10.5t-12.5 10.5t-13.5 15t-11.5 13q-8 8 -24 25t-25 26q-1 5 -6 35l4 2q4 2 2 6 q0 7 2 9q6 3 15 14t16 14q17 7 26 0q10 -7 30 -21.5t30 -21.5q89 -63 184 -69h14q7 1 10 2.5t4.5 4t2.5 9.5q0 42 -4 53q-2 4 -2 9q0 21 -7 60t-8 50q-8 67 -14 102q-8 40 -12 58q-23 13 -31 31l-2 4q-9 -1 -15 1.5t-14 12.5l-8 10q2 -2 10 -6q2 2 2 4q-4 3 -14 11.5 t-14 11.5q0 -1 -1 -2t-1 -2q1 -1 3 -4.5t3 -4.5zM297 926q2 0 4 2v22q-1 6 -3 18.5t-3 18.5v29q-4 24 -4 33q-2 8 -2 24q0 11 -4 40.5t-2 45.5q0 9 -6.5 14.5t-16.5 4.5q-22 -2 -41 -29q-22 -30 -8 -76q14 -62 72 -133q6 -8 14 -14zM535 561q-3 -12 -3 -24q10 -70 11 -91 q4 -20 4 -30h-2q-1 2 -2 6t-2 6q0 8 -2 8q-9 4 -9 21q-2 12 -4 16q-2 -6 -6 -33q2 -2 6.5 -5.5t5.5 -4.5q0 -7 1.5 -20.5t1.5 -20.5l2 2q0 2 1 8t1 9q10 0 10 -11q2 -4 2 -16q59 22 84 68q12 19 -2 40q-22 28 -80 68q-2 2 -4.5 2.5t-6.5 0.5t-7 1zM242 743q-1 1 -3 4.5 t-3 4.5q0 1 1 2t1 2q4 -3 14 -11.5t14 -11.5l-2 -4q-8 4 -10 6q-8 4 -12 8zM297 926q2 0 4 2v22q-1 6 -3 18.5t-3 18.5v29q-4 24 -4 33q-2 8 -2 24q0 11 -4 40.5t-2 45.5q0 9 -6.5 14.5t-16.5 4.5q-22 -2 -41 -29q-22 -30 -8 -76q14 -62 72 -133q6 -8 14 -14z" />
<glyph unicode="%" d="M1008 956q-8 -36 -15 -57q-1 -8 -4 -21t-4 -18q-1 -6 -4 -17.5t-4 -17.5q-4 -20 -6 -28v-4q-2 0 -2 -5q-22 -28 -29 -73q-1 -3 -3 -10.5t-3 -10.5q-3 -13 -8.5 -36.5t-7.5 -32.5q-11 -35 -21 -76q-8 -23 -10 -37q-9 -24 -15 -51q-3 -12 -9 -37t-9 -37q-18 -73 -33 -125 q-2 -10 -5.5 -21t-8.5 -24t-8 -22q-7 -14 -13 -29q0 -1 -1 -2t-1 -2q-6 -12 -6 -19q-2 -15 -14 -57q-2 -5 -8 -27q-2 -7 -6.5 -21.5t-6.5 -21.5v-4q-22 -6 -28 -26q-4 -4 -8 -6q-4 -6 -13 -15q-4 2 -10 2q-19 0 -35 -16l-16 47l-19 -31l-20 -10q-4 2 -8 6q-16 13 -13 21 q0 9 5 39q2 25 10 75q4 29 13.5 82.5t12.5 75.5l2 10q1 6 4.5 18.5t4.5 18.5q1 4 3 11.5t3 11.5q1 3 2 9t2 9q1 4 3 12.5t3 12.5l8 39q11 46 33 124q2 9 5.5 19.5t9 24.5t8.5 22l2 6q4 10 12 31t12 31q16 36 23 57q10 28 6 61q-6 28 0 68q2 16 7 45.5t7 42.5q3 10 8 41v4 q36 20 41 62q20 101 60 198q14 31 26 53l4 9q5 10 15.5 29.5t15.5 29.5q32 62 41 82q15 29 47 55q18 15 27 15q3 0 14 -7q16 -12 29 -12l6 -26l31 22l39 -29q-10 -22 -6 -33t22 -22l-8 -14q-4 -6 -11.5 -19.5t-11.5 -19.5q-5 -15 -6 -17v-6q-6 -9 -6 -18q-9 -26 -14 -33 q-34 -50 -64 -139q-3 -5 -8 -35q0 -10 -2 -16l-4 -37l14 6q-2 -5 -6 -15.5t-6 -15.5q-4 -4 -4 -6q-17 -6 -28 -21t-13.5 -22.5t-7.5 -26.5zM655 1044q-31 -27 -51 -36q-26 -13 -47 -13q-25 0 -61 19q-1 1 -4 3.5t-5 4.5l-4 4q-3 3 -9 8t-9 8q-2 2 -11.5 10t-12.5 11.5 t-9.5 10t-10 13t-5.5 13.5q-21 55 -10 88q16 43 38 65q6 5 18.5 16.5t18.5 16.5q0 4 6 4q5 0 5 -2q16 -4 24 -4h16q1 0 5 1t6 1h2q10 0 14 -4q11 -8 23 -8q25 -3 55 -21q18 -9 57 -53q2 -2 7.5 -7t7.5 -7q0 -7 1 -20t1 -19v-8q-10 -57 -37 -78q-6 -4 -19 -17zM543 1081 q35 0 65 27q2 1 5 3t5 3l13 10l2 9q0 22 -2 28l39 23l-56 10l-2 2q-1 1 -5 4t-6.5 5t-7.5 3.5t-11 1.5q-19 0 -25 15q-11 16 -31 16q-4 0 -16 -4q-37 -18 -47 -55q-9 -32 12 -62q17 -30 41 -35q16 -4 27 -4zM1303 418l2 -8q-14 -59 -39 -78q-6 -4 -19 -17q-31 -27 -51 -36 q-26 -13 -45 -13q-29 0 -61 19q-1 1 -5 3.5t-6 4.5l-4 4q-12 12 -18 16q-39 35 -49 58q-21 53 -11 88q15 41 39 65q13 13 37 33q4 4 8 4q2 0 2 -2q16 -4 27 -4h14q2 2 11 2h4q5 0 9 -1l3 -1q3 -3 23 -10q28 -3 55 -21q32 -16 57 -53l14 -14q3 -18 3 -39zM1225 432l37 23 l-56 10l-2 2q-14 14 -30 14t-25 15q-11 16 -29 16q-6 0 -18 -4q-37 -18 -47 -55q-9 -30 12 -62q16 -28 43 -35q16 -4 25 -4q28 0 67 27q1 1 4 3t4 3l15 10v11q3 6 0 26z" />
<glyph unicode="&#x26;" horiz-adv-x="1030" d="M262 1270l-4 4h2zM989 616q-9 -19 -12 -32l-14 14l-11 -16v-2q-6 -6 -6 -15q0 -4 10 -14l5 -4v-4q-6 -6 -7 -8q-2 -3 -2 -5q-6 -7 -15.5 -21.5t-12.5 -19.5q-4 -6 -13.5 -19t-13.5 -19q-3 -7 -4 -7q-2 -4 -4 -6q-10 -14 -31 -37.5t-29 -33.5q-23 -26 -6 -52q2 -2 17 -22 q29 -53 63 -76q24 -17 27 -43q4 -32 -10 -51q-7 -12 -7 -27q2 -4 2 -10l-12 -12l-24 16q-9 -6 -11 -8q2 2 2 4q0 3 -1 7.5t-1 6.5l-6 19l-16 -10l-2 -3q-5 0 -8 -6q-7 -8 0 -22l2 -2l8 -15q-7 0 -15 -4q-52 37 -83 76q-6 7 -37 33q-5 5 -15 10l-6 6l-51 -16l-4 -4 q0 -1 -1 -3t-1 -3q-1 0 -2 -2t-2 -2q-34 -21 -54 -43l-6 24l-20 -29q0 -6 -4 -6l-4 -8q-1 -2 -2 -5.5t-2 -4.5l-7 -14q-2 2 -12 2q-13 0 -18 -5q-11 -3 -41 -16q-3 -1 -17 -8l-28 -12l20 -11q-2 -2 -14 -8q-23 -9 -31 -14q-34 -17 -47 -17h-4q-43 3 -82 25q-2 1 -5 2t-5 2 h-2l-17 6l-4 -16q-2 -7 2 -19q-5 5 -6 5q-2 2 -4 2q-6 6 -10 8q-58 36 -76 67q-13 17 -23 21q-14 5 -24 24q-18 35 -66 54l-2 2l-6 12q-10 23 -6 33q2 9 6 28.5t6 28.5q1 4 2 12t2 11v2q4 4 0 12q-8 41 17 96q2 5 6 16.5t6 16.5q9 27 14 37q6 11 48 65q3 3 9 8.5t9 8.5t10 9 t10 9q4 6 12.5 18.5t12.5 18.5l2 4q1 1 2 4t2 4q16 24 25 31q8 4 8 12q6 25 41 64l16 16q25 34 19 62q-1 3 4 24q18 53 -43 92l-8 7q-19 51 -21 88q-4 86 -4 133q0 28 8 49q8 22 25 29h4q25 8 29 30v11l-9 4l7 2q2 2 4 2l12 4l-4 14q0 1 -1 3.5t-1 4.5q-5 20 -10 27l-3 2 q1 2 3 4q2 3 6 9.5t6 9.5q16 29 59 96q4 8 8 10l35 -6l4 8l6 8h3q20 -4 28 -4q11 0 31 4q2 1 8 5.5t8 5.5q6 -2 17 -2q4 0 28 6q2 2 4 2q82 32 150 35q1 0 49 6q15 0 39 4h12q21 0 33 -2q4 -2 6 -4l-10 -21l29 -35l28 11q7 -17 23 -25l-6 -12q-13 -6 -13 -19q-2 -9 9 -24 q2 -2 6 -7.5t6 -7.5l8 -8l8 -12l11 8l14 -14v2q-1 -12 4 -62q4 -16 4 -24q2 -12 -2 -37q-2 -6 -2 -19q-2 -10 -2 -28q-1 -10 -3 -32t-3 -32q-4 -20 -8 -30q-2 -3 -5.5 -10.5t-5.5 -10.5q-12 -25 -14 -35q-15 -43 -37 -65q-37 -41 -53 -64q-20 -20 -23 -24l-2 -4 q-6 -2 -11 -6t-8.5 -7t-8.5 -8.5t-7 -7.5q-8 -12 -14 -16q-4 -3 -12 -9.5t-12 -9.5l-5 10l-8 15l-43 -33l6 -29h2q-4 -3 -13 -10t-13 -10q-5 -4 -16.5 -12.5t-16.5 -12.5q-4 -2 -12 -10q-4 -2 -8 -6q-23 -20 -11 -45q2 -2 2 -6q17 -29 19 -31q2 -4 53 -74q3 -5 10.5 -15.5 t10.5 -15.5l6 -8l10 4q19 6 47 29q6 6 10 8l15 -8l71 72q1 -1 11 -6q1 0 2 -2t2 -3l4 -4q3 -6 12 -6q8 0 14 6q9 12 24 17.5t26 6.5t34 1q5 0 9 -4q1 0 3 -1t3 -1q2 -2 6 -2q2 -2 10 -6l6 -2v-5zM885 1114q-6 -12 -6 -14q0 -13 8 -17l10 -14l12 12h2q0 1 4 5.5t5 9.5 q1 4 -5 16l-2 2l-10 23l-16 -21q0 -2 -2 -2zM266 1090l25 20l-31 6h-4q-1 0 -3 1t-3 1h-2q-12 -3 -12 -8l-13 -10l13 -13q6 -6 14 -6h2q6 0 12 6zM229 412l29 8l-25 18l-4 2q-2 2 -10 6h-4q-8 0 -12 -4h-2l-13 -8l9 -12v-2l3 -5q3 -5 7 -7h8q6 0 10 2q2 0 4 2zM502 350 q29 15 20 43q0 2 -1 5.5t-1 4.5q-9 35 -20 46q-12 12 -21 30q-8 17 -16 27q-4 4 -4 6q-16 21 -29 23v34l-22 -14q-14 -7 -15 -8q-21 -12 -32 -19.5t-25 -23.5t-21 -35q0 -2 -4 -6t-4 -6l-4 -4q-31 -44 -27 -76q3 -41 11 -76q7 -41 41 -41q14 0 22 4q43 10 72 33q42 28 57 37 q3 3 11.5 8.5t11.5 7.5zM514 948q46 24 78 68q25 28 43 55q20 30 24 35q26 32 48 90q2 6 6 14q9 19 0 31q-8 12 -27 12h-4q-30 -4 -43 -8q-47 -15 -74 -59q-4 -4 -4 -8q-3 -3 -10 -13.5t-12 -15.5q-47 -45 -66 -111q-11 -33 2 -49q4 -2 8 -14q3 -10 13 -23l6 -10zM864 59 q-4 2 -12 2h-2l8 11l6 -9v-4z" />
<glyph unicode="'" horiz-adv-x="327" d="M4 995v4q6 24 37 88q2 3 5 9.5t5 9.5q18 31 23 39q22 28 43 72q8 20 14 28q21 36 27 45q13 13 28 25q1 1 4.5 3t4.5 3h6h12q5 1 15.5 2t15.5 2h6q11 0 20 -16l4 -6q2 -4 6.5 -11.5t6.5 -11.5v-4q-28 -75 -49 -113q-27 -46 -41 -90q-6 -17 -31 -55l-4 -6q-19 -32 -53 -62 q-3 -4 -21 -22q-2 -2 -7 -7.5t-7 -7.5q-10 -10 -19 -10q-6 0 -14 -4l-16 27l-7 2q-3 0 -6 12q0 10 -6 16q-8 14 -2 39z" />
<glyph unicode="(" horiz-adv-x="638" d="M291 395q7 -2 5.5 -9t0.5 -11q2 -3 8 -21q3 -12 8 -22q1 4 11 20v-35q-1 -5 0 -9.5t-1 -9t-8 -7.5t-2 -14t11 -13q13 -2 20 -24q8 6 23 16q4 -6 24 -31q-1 -1 -5.5 -3.5t-6.5 -4.5q-1 -1 -3 -4t-2 -4.5v-4t2 -4t7 -3.5q8 -4 8 -21q0 -25 12 -31q1 -1 7 -18q8 -27 28 -35 q-7 -17 2 -26q4 -5 7 -17t4 -14q-23 -13 -23 6q0 2 0.5 5.5t0.5 6.5t-1 6q0 1 -3 4t-5 3q-3 0 -5.5 -3.5t-2.5 -5.5q0 -4 4 -16q0 -1 0.5 -4.5t1 -5.5t-1.5 -4.5t-6 -3.5q-2 -2 -2 -19q4 -22 -7 -33q-11 19 -34 25q-16 5 -33 31q-18 22 -35 24q-6 0 -14 8q-28 20 -41 33 q-2 -2 -6.5 -5t-6.5 -5q-4 4 -4 6q-39 56 -47 66q-19 24 -22 32q-2 6 -14 15t-13 10h2q2 24 -20 57q-39 53 -45 86q0 1 -1 3t-1 3q-11 24 -11.5 31t8.5 31q-22 9 -26 47q-5 33 -17.5 95t-17.5 91q-3 0 -2 43l2 43q0 18 2 52.5t2 50.5q-2 54 14 160q7 59 23 104q7 18 19 52 t20 55.5t21.5 49.5t27.5 50q86 135 164 205q38 33 80 41q8 1 23.5 5t23.5 5q16 4 49 4q2 -21 10 -82q3 5 11 6.5t13 5t3 13.5q6 -3 18 -7q8 12 19 23q3 -9 8 -14q7 2 25 6q5 -30 6 -35q2 -1 5.5 -2t4.5 -2q-11 -19 -33 -62q7 -2 18.5 -4t12.5 -2q1 -5 3 -14t3 -14 q-23 -23 -43 -25q-10 -13 -36.5 -30t-37.5 -29q-10 -11 -30.5 -33t-30.5 -33q-7 -7 -16 -21.5t-13 -19.5l-18 -18q-1 -1 -3 -2q-3 -1 -3 -2q3 -7 -5.5 -18t-7.5 -17l-4 8q-4 -2 -8 -6q0 -1 1 -2t1 -2q2 1 5 2t5 2q-5 -14 -6 -15q-10 -9 -17.5 -21t-11 -21t-8.5 -26t-8 -24 q-3 -8 -14 -45l-6 -12q-6 -1 -9 -3.5t-4 -5.5t-1.5 -7.5t-0.5 -6.5q0 -3 -1 -13t-1.5 -14.5t-3.5 -11t-8 -10.5v-4q3 -13 -4 -42.5t-2 -45.5q3 -12 1.5 -38t2.5 -38q-12 -14 -8 -43q0 -14 2 -20q2 -11 -6 -26t-9 -17v-23q16 -40 2 -75v-7q1 -2 3 -4q2 0 4.5 0.5t4 2t3 2.5 t3 3.5t2 3t1.5 4.5l2 3q1 -3 6 -23q0 -1 1.5 -2.5t2.5 -3t0 -2.5q-7 -11 -3 -22.5t8 -16.5t13 -13t13 -13q0 -5 4 -5v-4l-10 -10h-31l14 -14q9 6 17 14v-37q-2 1 -8 4.5t-8 3t-7 -5.5q-8 -11 13 -18q2 3 5 9t5 9zM25 678q-16 -10 -5 -21q2 -1 6.5 -0.5t6.5 2.5q6 8 -8 19z M276 356q1 0 2.5 -1t2.5 -1q1 2 3 5.5t3 5.5l-4 2q-1 -2 -3.5 -5.5t-3.5 -5.5zM475 1501q-4 0 -4 4q-1 -1 -2.5 -2t-2.5 -2t-1 -2q-4 -4 -4 -8q2 -2 4 -2q2 4 10 12zM369 240l-4 2q-2 1 -3 -2q0 -1 1.5 -3.5t1.5 -3.5q1 1 2 3.5t2 3.5z" />
<glyph unicode=")" horiz-adv-x="641" d="M317 377q21 7 13 18q-5 5 -7 5.5t-8 -3t-8 -4.5v37q8 -8 17 -14l14 14h-31l-10 10q0 2 2 4q2 3 2 5q4 5 13 13t13 13t8 16.5t-3 22.5q0 1 2 4t2 4q5 20 6 23q0 -1 1 -2q8 -17 19 -17l3 4v7q-14 35 2 75q3 10 0 23q-1 5 -9 19t-6 24q2 6 2 20q4 29 -8 43q5 14 3.5 38 t0.5 38q5 16 -2 45.5t-4 42.5v4q-5 4 -7.5 10.5t-3 11.5t-1.5 13.5t-2 13.5q0 2 -0.5 6.5t-1.5 7.5t-4 5.5t-9 3.5q-4 0 -4 12q-3 7 -8 22.5t-8 22.5q-1 2 -5.5 18.5t-6.5 21.5t-7 17t-11.5 20t-14.5 15q-1 1 -6 15q2 -1 5 -2t5 -2q0 1 1 2t1 2l-6 6q-4 -4 -6 -8 q1 6 -7.5 17t-5.5 18q0 1 -3 2q-1 1 -1.5 1t-1.5 1l-18 18q-4 5 -13 19.5t-16 21.5q-10 13 -31.5 35t-29.5 31q-11 12 -37.5 29t-36.5 30q-20 2 -43 25q1 5 3 14t3 14q1 0 12.5 2t18.5 4q-22 43 -33 62q1 1 4.5 2t5.5 2q1 5 6 35q15 -3 27 -6q4 8 8 14q15 -20 17 -23 q12 4 18 7q-2 -10 3 -13.5t13.5 -5.5t12.5 -6q1 15 4 42t4 40q33 0 49 -4q8 -1 23.5 -5t23.5 -5q42 -8 80 -41q75 -65 164 -205q14 -22 27.5 -50t21.5 -49.5t20 -55.5t19 -52q14 -37 25 -104q14 -124 14 -160q0 -16 1 -50.5t1 -52.5q4 -57 0 -86q-3 -20 -15.5 -85 t-17.5 -101q-8 -39 -28 -47q9 -24 8.5 -31t-11.5 -31q0 -4 -2 -6q-6 -33 -45 -86q-22 -33 -18 -57q-1 -1 -13 -10t-14 -15q-5 -15 -22 -32q-20 -25 -45 -66l-6 -6q-2 2 -6.5 5t-6.5 5q-3 -3 -39 -33q-12 -8 -16 -8q-17 -2 -35 -24q-17 -26 -33 -31q-23 -6 -34 -25 q-11 11 -7 33q4 13 -2 19q-4 1 -5.5 3.5t-1.5 4.5t0.5 5.5t0.5 4.5q4 12 4 16q0 2 -2.5 5.5t-3.5 3.5q-3 0 -6.5 -2.5t-3.5 -4.5q-1 -3 0 -9t0 -9q0 -19 -23 -6q1 2 4.5 14t6.5 17q9 9 2 26q18 6 30 35q0 15 5 18q16 7 12 31q0 17 8 21q4 1 6.5 3t4 3t0.5 3.5t-1.5 3t-3 3.5 t-2.5 4q-2 2 -6.5 4.5t-5.5 3.5q20 25 24 31q15 -10 23 -16q7 22 20 24q8 2 11.5 13t-2.5 14t-8 6.5t-0.5 10.5t1.5 9q-2 8 -2 35q10 -16 11 -20q5 10 8 22q1 2 4 10t6 11q1 2 -1 10.5t5 9.5q8 -12 10 -18zM565 659q2 -2 6.5 -2.5t6.5 0.5q11 11 -5 21q-13 -13 -8 -19z M315 367q-2 -2 -4 -2q1 -2 3 -5.5t3 -5.5q1 0 2.5 1t2.5 1q-1 2 -3.5 5.5t-3.5 5.5zM133 1489l4 2q0 2 -1 4.5t-1 3.5l-6 6l-4 -4q1 -2 4 -6t4 -6zM233 233q1 1 2.5 3.5t2.5 3.5q-1 0 -2 2q-5 0 -7 -2q1 -1 2 -3.5t2 -3.5z" />
<glyph unicode="*" horiz-adv-x="473" d="M418 1196q6 -9 6 -12q1 -3 2.5 -5.5t3 -5.5t2.5 -4q0 -4 -2 -6q-4 -20 -4 -28q0 -5 -4 -9q-19 -14 -51 -14q-14 0 -23 -6q-28 -14 -14 -45q4 -8 4 -29v-4q-10 -10 -10 -20q0 -7 -2 -9q-29 21 -50 21h-4q-6 12 -22 12h-6h-2q-3 0 -15 4l-8 2l-6 -6q-2 -4 -6 -8 q-4 -6 -14 -16q0 -4 -5 -9q-6 -13 -16 -16q-6 -4 -14 -16q-12 0 -27 -15q-10 -10 -16 -14q-2 -2 -4 -2q-4 4 -7 10q-6 9 -6 17q-3 12 -12 18l6 33l-6 4l14 47h-18h-8q-4 0 -11 1t-10 1q-6 0 -10 2q-2 0 -7.5 1t-8.5 1h-2h-9h-2l4 6l-6 6l-4 4q-4 4 -4 5q-4 6 -4 14 q9 24 2 41v4v2q1 3 2 8t2 8v2q2 1 2 3q8 4 10 6q4 1 13.5 2t13.5 2h8q5 1 16.5 2t16.5 2l29 2l-2 12v6v13q-3 25 4 63q3 11 12 16l10 5q2 0 4 -2q30 -6 50 -23q8 -8 18 -8q11 0 22 16l3 2q7 11 12 23q9 26 41 37v2q12 -4 18 -4q31 -8 37 -17q6 -6 6 -8q0 -8 2 -10q0 -4 2 -6 v-15v-10q2 -16 -12 -45l-6 -14l24 -6q15 -5 19 -5q2 -2 8 -2q19 -4 25 -10q4 -4 6 -4z" />
<glyph unicode="+" horiz-adv-x="671" d="M631 745q0 -20 -6 -26q-4 -4 -4 -12l-3 -2q-1 -5 -1.5 -7t-2.5 -4t-5.5 -2.5l-10.5 -1.5h-10h-17h-2q-1 0 -5.5 -1t-7 -2t-6.5 -4t-7 -7q-1 0 -3 -1t-3 -1q-8 0 -11 -6q-12 -15 -30 -15q-8 0 -23 -1t-22 -1q-6 -2 -21 -2h-8l-4 -10q-6 -12 -2 -27l-35 -30l6 -7l-6 -6v-67 q-1 -1 -3.5 -4.5t-4.5 -5.5q-1 -1 -8 -15h-5l-6 -8l-2 -2q-2 -2 -6 -10v-4v2h-4q-8 0 -10 -2l-8 -4q-2 -1 -6.5 -3.5t-6.5 -3.5h-10l-2 50l-23 -33l-14 24l-10 -34q-1 0 -3 1t-3 1t-3 1t-3 1l-7 2q-4 8 -4 16q-1 8 -2 25.5t-2 25.5q0 27 -2 41q0 4 -1 12.5t-1 12.5q0 2 -1 6 t-1 6v4h10v17v22h-18h-4q-6 6 -17 6h-18q-23 0 -47 -4h-8q-4 1 -12.5 4t-12.5 4q-4 2 -11 6.5t-11 6.5q-5 2 -14.5 7t-14.5 7q-12 5 -18 14q-2 2 -5.5 6.5t-5.5 6.5l-4 4q-4 6 -4 8q1 4 0.5 6t-1.5 4.5t-1 3.5l-2 2v4l2 2q6 9 23 21q2 2 6 5t6 5l2 2l10 10q12 12 21 9h2 q6 0 10 -2q33 -3 59 8h4h5q14 0 20 2h35h2q22 0 29 18q1 0 3 1t3 1l16 10l-16 15q-4 4 -4 14v2q0 14 -5 49q-5 41 15 103q0 4 6 10q15 15 25 35q8 8 22 8h18h15q10 0 16 2h4q5 -5 15 -10l4 -2q0 -1 1 -3t1 -3q4 -12 10 -21h2q4 -4 12 -16q2 -4 2 -19v-6q0 -13 5 -71 q4 -15 12 -23l-10 -66l14 -2l6 -2q2 0 6 -1t6 -1h9h4q27 -8 49 -10q5 -1 16.5 -2t16.5 -2q4 0 12 -1t12 -1h2q37 -6 53 -31v-2q4 -13 15 -18q0 -2 1 -5.5t1 -5.5z" />
<glyph unicode="," horiz-adv-x="335" d="M272 8q-7 -16 -86 -219q-11 -24 -30 -53q-2 -3 -5.5 -8.5t-5.5 -8.5q-30 -45 -36 -53q-4 -5 -23 -24l-8 -4l-6 6l-6 6q0 4 -5 4l-8 12l-14 -8h-2q-3 0 -8 8q-1 2 -9 10q-10 20 -10 23q0 8 -4 20q-4 16 -4 21q-3 48 23 88q4 8 4 10q1 2 3 5.5t3.5 5.5t3.5 4q33 42 59 122 q5 15 13 35q15 39 39 92q4 9 18 27l6 6q28 3 51 19q3 -1 8.5 -3.5t8.5 -3.5q4 -1 7.5 -4t6 -5t6 -6.5t4.5 -6.5t5 -8.5t5 -7.5l3 -7q4 -4 4 -8q2 -6 10 -18q3 -6 0 -15z" />
<glyph unicode="-" horiz-adv-x="808" d="M741 803q1 -1 4 -2q22 -10 13 -21h-25q8 -28 8 -45q2 -5 -2.5 -11t-11.5 -9q-37 -12 -78 -21q-15 -3 -30.5 -3.5t-37 0.5t-30.5 1q-13 0 -39 -1t-39 -1q-15 0 -51 4q-20 0 -60 4q-56 3 -108 9q-27 0 -39 2q-71 10 -119 26q-51 17 -69 41q-4 3 -9 17q-2 5 -5 15.5t-7 16.5 q-11 15 0 35t35 31q31 13 41 20q18 12 26 13t33 -6q39 -12 68 -7q4 0 22 3.5t27 3.5q29 2 84 2q13 -1 41 -3.5t41 -3.5q14 0 20 2q-4 1 -12 4.5t-12 4.5v2q15 -1 43.5 -3t42.5 -3q12 0 57 -5q6 -1 18.5 -2.5t20 -2.5t17.5 -4t18 -7q10 -6 36 -13t32 -9q4 -1 22 -13 q5 -4 13.5 -13t13.5 -13q14 -13 12 -19t-25 -16z" />
<glyph unicode="." horiz-adv-x="329" d="M283 53q-4 -12 -4 -22q-10 -16 -13 -29q0 -8 -4 -12h-16l-8 -10l-15 12l-26 -21q-9 6 -21 6h-10h-2q-14 7 -25 7q-9 0 -20 -7q-12 3 -21 3q-13 3 -14 4q-4 4 -6 4v4l2 18l-19 -2h-4l-4 4q-20 9 -39 43q-1 1 -3 4t-3 4q-8 13 -8 35q0 34 27 80q17 26 26 33q10 7 41 20 q12 6 15 7q6 4 18 4t20 -2t29 -2h27h4q4 0 6 -2q14 -14 31 -17q4 0 5 -0.5t2.5 -4t2.5 -11.5q13 -32 16 -37v-4q4 -11 9 -19q13 -18 4 -53q-6 -6 0 -16q3 -8 0 -21z" />
<glyph unicode="/" horiz-adv-x="663" d="M487 1057l15 6q-2 -5 -6.5 -15.5t-6.5 -15.5q-4 -4 -4 -6q-17 -6 -28 -21t-13.5 -22.5t-7.5 -26.5q-2 -9 -6 -28.5t-6 -28.5q-8 -29 -10 -39q-1 -6 -4 -17.5t-4 -17.5q-1 -4 -2 -9t-2.5 -10.5t-2.5 -8.5v-4q-2 0 -2 -5q-15 -19 -28 -73q-4 -12 -4 -21q-2 -9 -9 -32 t-10 -37q-7 -22 -20 -76q-10 -29 -11 -37q-7 -17 -14 -51q-3 -12 -9 -37t-9 -37q-5 -20 -15.5 -62.5t-15.5 -62.5q-3 -12 -12 -34t-13 -33q-2 -4 -12 -29q0 -1 -1 -2t-1 -2q-6 -12 -6 -19q-2 -16 -14 -57q-1 -4 -4.5 -13.5t-4.5 -13.5q-2 -7 -6 -21.5t-6 -21.5v-4 q-23 -7 -29 -26l-6 -6q-7 -10 -14 -15q-2 2 -10 2q-19 0 -35 -16l-17 47l-18 -31l-20 -10q-1 1 -4.5 3t-4.5 3q-15 12 -12 21q1 6 2 19.5t2 19.5q2 25 10 75q4 28 13.5 81.5t13.5 76.5l2 10q4 11 8 37q1 4 3 11.5t3 11.5q1 3 2 9t2 9q1 4 3.5 12.5t3.5 12.5l8 39 q11 46 33 124q6 20 22 66l2 6q4 10 12.5 31t12.5 31q12 27 22 57q10 28 6 61q-4 18 0 68q2 16 7.5 45t7.5 43q3 10 8 41v4q36 19 41 62q21 106 59 198q10 22 27 53l4 9q5 10 15.5 29.5t15.5 29.5q7 13 21.5 40.5t21.5 41.5q11 28 45 55q18 15 26 15q4 0 15 -7q16 -12 28 -12 l7 -26l30 22l39 -29q-9 -22 -5 -33t22 -22l-9 -14q-2 -3 -20 -39q-6 -9 -6 -17q-2 -2 -2 -6l-6 -18q-8 -23 -15 -33q-32 -47 -63 -139q-4 -9 -8 -35v-16z" />
<glyph unicode="0" horiz-adv-x="1120" d="M266 117q-12 6 -18 12q-9 5 -31 23q-105 92 -166 274q-16 49 -35 127q-24 100 -8 223q4 36 29 109q1 2 3 7t3 7q7 26 41 84q27 49 57 96q49 63 82 101q1 2 4.5 6.5t5.5 7.5q22 38 78 74q7 4 22.5 13t22.5 13q2 2 15 6q49 10 108 54q15 11 23 6q7 -3 10 0q15 4 20.5 4.5 t20.5 -2.5l20 -4q16 -2 39 -10q9 -3 13 -7q9 -10 31.5 -22t27.5 -16q19 -12 86 -58q9 -5 41 -28q11 -7 29 -21q56 -41 100 -131q54 -107 72 -174q4 -16 10 -47t10 -47l12 -54q24 -67 27 -143v-61q0 -9 2 -13q4 -9 4 -47q3 -31 -12 -49q-6 -8 -10 -29q-7 -32 -15 -53 q-19 -43 -34 -65q-41 -57 -80 -99q-4 -5 -9.5 -10t-13.5 -11l-12 -9q-16 -12 -25 -21q-21 -16 -30 -18q-7 0 -11 -4q-10 -13 -25 -22.5t-33.5 -18.5t-27.5 -15q-6 -3 -18.5 -6t-15.5 -4q-9 -2 -34.5 -10t-39.5 -10q-92 -15 -189 14q-26 8 -72 31.5t-69 31.5q-2 1 -6 4.5 t-6 4.5q-3 1 -23 6zM618 1169q-14 -7 -39 -17t-32 -13q-8 -5 -23.5 -15t-21.5 -14q-4 -2 -14 -7.5t-15 -8.5q-25 -14 -74 -68q-6 -6 -17 -18.5t-17 -18.5q-33 -37 -91 -119q-39 -60 -49 -98q-26 -98 11 -176q6 -14 17 -40.5t17 -39.5q42 -86 97 -133q18 -17 52.5 -49 t51.5 -49q0 -1 1 -3t1 -3q4 -13 27 -17q10 0 30 -4q31 -3 140 12q56 9 71 9q29 0 35 2q62 18 86 57q40 73 49 100q17 47 25 129q2 37 -14 107q-17 74 -39 186q-7 30 -15 55q-5 14 -17.5 37t-16.5 33q-15 20 -15 27q-2 23 -24 45q-16 18 -38.5 36t-39.5 29.5t-45.5 29.5 t-42.5 28q-2 0 -4 2q-11 8 -23 -4q3 -1 8 -4.5t8 -4.5z" />
<glyph unicode="1" horiz-adv-x="1032" d="M950 152q3 1 13 6q7 -5 28 -31q-12 6 -20 8q1 -5 4 -14.5t4 -14.5q0 -2 -2 -6.5t-2 -7.5q1 -2 6 -7t8 -9q-8 2 -16 6q-1 -5 1.5 -8t7.5 -5.5t7 -5.5q-4 -36 -51 -79q0 -3 4 -15q-2 -1 -12.5 -6t-16.5 -6q-28 -4 -45 -4q-82 0 -123 -8q-4 -1 -12.5 -1t-13.5 -1 q-11 -1 -35 -4.5t-37 -4.5l-117 -12q-33 -2 -104 -10l-18 -6q-29 -8 -39 -10q-56 -6 -113 -9q-36 0 -43 4t-26.5 11.5t-28.5 13.5l-7 7t-7.5 7t-5.5 6.5t-4.5 9t-2.5 9.5q6 6 10 12q-8 0 -12 2q5 45 8 60q1 4 17 20q40 40 49 47q45 34 102 49q104 29 176 39q2 1 8 2t9 2 q-2 8 -2 25q-32 148 -35 281q0 136 6 206q21 163 25 185q10 49 34 143q3 13 10.5 40t10.5 40q1 3 2 10t2 10l-4 2q-12 -8 -15 -14q-54 -82 -79 -123q-9 -15 -41 -69t-50 -82q-11 -20 -51 -80q-1 -2 -3 -7t-3 -7q-17 -30 -47 -21q-3 0 -8 -1t-8 -1q-9 -3 -12 -2t-7 10 q-30 0 -35 2q-8 5 -29 8t-30 9q-5 -1 -21 -1.5t-24 -2.5q-9 -2 -23 3t-20 3q-4 6 -14.5 21.5t-14.5 23.5q-12 21 -10 32q4 51 18 84q23 44 37 64q1 2 5 5l4 3q1 1 6.5 4t6 4.5t3 6t-1.5 8.5q-3 6 12 16q19 19 56.5 53t44.5 41q153 142 200 191q71 69 207 217q51 51 74 80 q7 10 18 14q21 7 39 10q22 0 27 -12q10 -16 22 -21q31 -13 33 -34q7 -5 10 -13t4 -20t2 -16q9 -25 2 -54q-4 -43 -20 -125q-10 -53 -29.5 -152.5t-27.5 -144.5q-21 -132 -31 -221q-18 -164 -25 -274q-4 -82 -8 -246v-72v-20q3 -14 19 -14q10 1 29 2t28 2h27h20q10 7 33 2 q44 -10 82 -21q11 -4 14 -8t8 -18zM487 369q-2 -1 -6 -3.5t-6 -3.5q4 -3 6 -3t3 1.5t3 8.5z" />
<glyph unicode="2" horiz-adv-x="968" d="M881 309q1 -5 -5 -14.5t1 -11.5q6 -4 26 -4q2 0 7 1t8 1q-12 -16 -17 -21q5 -4 14 -10.5t13 -9.5q-15 -6 -25 -11q4 -2 7 -13t12 -13q-13 -9 -15 -15q-1 -3 4 -22q-6 -2 -7.5 -3t-5.5 -3.5t-5.5 -6t-1.5 -8.5q0 -6 -10 -6q-13 2 -31.5 -7.5t-28.5 -10.5q-6 0 -6 -4 q-2 -15 -22 -19q-28 -12 -115 -30q-130 -32 -168 -43q-44 -11 -84 -37q-7 -6 -35 -15q-67 -16 -100 -20q-14 -4 -43 0q-65 7 -115 -4q-32 -7 -55 8q-1 1 -9 5t-10.5 8.5t0.5 11.5q1 2 0.5 4t-2.5 2q-13 6 -22 37q-2 7 -7.5 20.5t-7.5 20.5q-3 13 -8 37t-8 36q-5 20 2 27 q2 0 2 2t-2 4q-3 11 10 41q6 13 31 86q2 5 23 53q2 2 2 4q13 36 36.5 77.5t37.5 60.5t51 69q42 58 65 119q5 15 15.5 43.5t15.5 42.5q1 2 2 6.5t2 7.5q-4 2 -13 8.5t-16.5 10.5t-15.5 6q-39 7 -55 33q-17 26 -64 63q-11 8 -21 18.5t-23.5 27.5t-18.5 22q-4 4 -4 10 q1 16 -8.5 39.5t-10.5 30.5q-1 3 -10.5 43t-13.5 61q0 16 -3 31q-2 22 -1 31.5t6 30t6 30.5q1 6 22 43q4 4 8 6q27 19 41 31q20 15 23 18q46 30 57 35q38 20 101 27q2 1 7 1t7 1q29 13 72 6q-2 -2 -5 -5.5t-4 -4.5l2 -4q18 6 56 -7q56 -17 123 -57q34 -15 55 -59 q1 -2 12 -29l-24 -18q1 -10 16 -60l12 -24q2 -20 6.5 -55t6.5 -48v-10q4 -8 5.5 -17.5t1 -16t-2.5 -18t-2 -16.5q0 -4 -1 -12t-1 -12q-1 -18 -4.5 -38t-9.5 -45t-9 -38q-5 -30 -23.5 -82.5t-21.5 -64.5q0 -1 -2 -6t-4 -7q-10 -15 -27 -67q-1 -6 -5.5 -16t-6.5 -15l-12 6 q-24 -56 -51 -111q8 -4 10 -4v-4l-21 -35q-4 -12 -4 -16q-1 -2 -2.5 -7.5t-2.5 -8t-3 -7t-5 -7.5t-7 -5q-8 -8 -8 -12q-1 -2 -6 -11t-6.5 -13t-3.5 -11.5t-1 -13.5l-12 -12q0 -9 -2.5 -12t-16.5 -11q6 -12 -2 -20q-4 -5 -28 -43h24q43 12 129 12q8 1 26 1t32 1.5t26 5.5 q2 2 8 2q76 11 132 21q21 3 59.5 10t54.5 10q10 2 31 5t31 5zM270 1114q1 -5 6 -19t3 -20q-3 -9 6 -35q1 -3 4.5 -17.5t7.5 -21.5t8.5 -21.5t10.5 -25t18 -14.5q2 -1 4 -4l2 -4q10 -17 20 0l7 14q20 82 28 123q11 51 8 88q-2 31 -28.5 52t-55.5 14q-13 -3 -45 -17 q-21 -10 -25 -20t3 -33q0 -1 1 -3t1 -3q1 -5 2 -16.5t2 -16.5l2 -4q1 0 2 0.5t3.5 1.5t4.5 2z" />
<glyph unicode="3" horiz-adv-x="831" d="M76 1163q8 19 0 25q-2 -1 -6.5 -2t-7.5 -2t-5.5 -4t-1.5 -9q0 -4 -8 -4q-12 3 -24 11q-12 10 -21 8q1 4 4.5 8.5t3.5 5.5q-5 4 -6 8t0 7t4 8.5t4 7.5q-2 2 -6 5t-6 5q2 7 7 12.5t9.5 7.5t12 5.5t10.5 5.5v24q-3 16 12 27q26 16 33 18q149 50 223 56q98 10 166 -23 q18 -9 66 -47q19 -13 39 -37q23 -23 20 -49q-3 -3 0 -6q6 -17 7 -35t-2 -38t-6.5 -33t-10.5 -35q-2 -7 -6 -19l-6.5 -19.5t-4.5 -18.5t-2 -21q0 -36 -30 -94q-7 -12 -18 -35.5t-13 -28.5q-2 -6 -10 -18t-9 -13q9 -9 19 -12q6 -3 19.5 -8t19.5 -8q76 -34 147 -111 q50 -53 80 -137q0 -2 1 -7t1 -7q0 -26 8 -45q4 -4 4 -15q4 -98 2 -147q0 -22 3 -43q0 -7 -6 -21t-7 -18v-17t-4 -20q-18 -39 -49 -86q-5 -8 -43 -51q-6 -6 -12 -8q-6 -3 -19 -9t-16 -8q-41 -27 -90 -39q-14 -3 -47 -13.5t-52 -12.5q-70 -7 -120 6q-6 2 -15 2q-12 2 -92 28 q-6 2 -14.5 8.5t-11.5 8.5q-76 37 -97 49q-8 3 -21 12.5t-18 12.5q-6 0 -6 4q0 11 -10.5 25.5t-11.5 17.5q-9 19 -4 30q2 2 2 21q-4 9 4 29l6 18q5 17 16 43q6 6 10 8q39 15 48 21q11 5 20 -4q32 -26 98 -37q26 -4 35 -11q82 -54 217 -47q25 0 35 2q12 2 17 5.5t8 15.5 q15 49 26 80q17 50 -8 119q-43 106 -135 157q-67 38 -154 51q-12 3 -36 10.5t-37 10.5l-4 4q-3 6 -10.5 17.5t-11.5 21.5t-1 22q1 5 -0.5 15t-1.5 12q1 14 29 51q26 40 77 78q65 56 105 131q18 38 4 74q-13 35 -33 80q-10 31 -41 28q-51 0 -78 -2q-8 0 -43 -10 q-11 -3 -32.5 -9t-32.5 -9q-22 -11 -27 -13q-7 -5 -20 -8z" />
<glyph unicode="4" horiz-adv-x="739" d="M594 1165q5 1 16.5 3t16.5 3q0 -4 -1 -10.5t-1 -12t2 -9.5q11 -22 12 -27q2 -7 6 -22.5t6 -22.5q1 -3 3 -8t3 -8q1 -1 4 -5t3 -6q0 -3 6 -35t6 -49q0 -3 -6 -180v-102q-4 -100 -8 -146q-11 -119 2 -260q9 -80 20 -200q1 -9 4 -23.5t5 -27t3 -23.5q2 -15 -2 -53 q-6 6 -14.5 9.5t-14 5t-15 3t-13.5 2.5q-2 1 -16 10q0 -3 -3.5 -10t-3.5 -8q-17 2 -36 29q-4 -7 -10.5 -10.5t-16.5 -6t-14 -4.5q-2 -2 -8 0.5t-7 5.5q-8 19 -10 31q-15 76 -33 186q-10 53 -6 158q0 90 2 133v43q-18 -3 -33 -6q-14 -3 -41.5 -10t-40.5 -10q-15 -6 -30 -9 q-12 -2 -37 -5t-37 -5q-13 0 -37 -4h-20q-6 3 -22.5 10t-24.5 10.5t-20 11t-21 15.5q-4 6 -17 10q-37 12 -55 60q-14 34 -29 88q-4 14 -4 41q-8 75 -4 112q16 125 16 285q0 47 13 162q5 40 4 47l6 18q3 5 9 15.5t9 15.5q4 -4 11 -4q11 -4 16 8l6 6q9 12 14.5 12t14.5 -12 q7 -13 20 -16q5 0 19 -14q12 4 16 0q3 -3 9.5 -8.5t9.5 -8.5q-3 -25 -3.5 -33t2.5 -32.5t3 -32.5q2 -18 2 -55q0 -1 -0.5 -9t-3.5 -11.5t-11 -4.5q-2 -14 -10 -37q-4 -32 -4 -47q-2 -8 -2 -24v-41q0 -15 2 -23q6 -17 2 -41q-2 -39 -6 -113q-4 -40 4 -122q2 -4 2 -9 q4 -23 11 -28.5t30 -7.5q76 -8 182 14q17 2 49 14q42 17 45 66q3 95 9 196q6 74 18 152q2 28 37 63q2 2 6 6.5t6 6.5q13 16 25 -2q1 -1 1.5 -3t1 -5t1.5 -5z" />
<glyph unicode="5" horiz-adv-x="901" d="M860 1298q-7 -2 -14.5 -5.5t-9.5 -4.5q0 -1 -1 -4.5t-1 -5.5q0 -18 -19 -27q-41 -27 -102 -30q-6 0 -88 -11q-13 0 -19 -2q-9 -6 -20.5 -8t-26 -2.5t-22.5 -1.5l-111 -18q-20 -4 -29 -4q-22 -3 -22 -25q-4 -130 -8 -191q0 -7 -17 -104v-6q15 0 21 2q8 1 24.5 3t24.5 3 q57 8 123 -18q122 -48 190 -150q37 -53 58 -102q23 -57 32 -92q20 -67 17 -129q0 -20 -4 -56q0 -39 -23 -65q-10 -11 -19 -24t-20 -30.5t-16 -25.5q-14 -20 -43 -72q-44 -64 -66 -80q-32 -22 -71 -41q-34 -18 -72 -18q-1 0 -19 -6q-16 -4 -26 -8q-1 -1 -5.5 -2t-7.5 -2 t-4 -3q-3 -6 -7.5 -9t-7.5 -4t-10.5 -2t-8.5 -1q-49 -6 -97 0q-8 0 -25.5 1t-25.5 1q-5 0 -16.5 1t-16.5 1h-4q-21 -1 -102 8q-16 3 -29 13q-26 26 -28 41q-1 0 -1.5 1t-1.5 1q-12 7 -19 17t-14.5 31t-9.5 25q-15 29 -16 37q-4 48 6 68q-2 7 6 16.5t7 16.5q0 1 10 6 q3 3 10.5 7t9.5 5q31 22 56 -6q2 -2 6 -5t6 -5q6 -5 17.5 -15.5t17.5 -15.5q22 -22 82 -45q50 -17 106 4q90 31 141 59q64 35 95 66q8 8 16 24q45 97 8 197q-18 53 -35 90q-7 15 -28 41q-12 17 -43 14q-56 -7 -123 -47q-61 -28 -109 -28q-9 0 -26.5 3.5l-22.5 4.5 q-4 1 -13.5 4t-13.5 4l-12 6q-5 7 -15.5 21.5t-15.5 21.5q-8 8 -8 15q-4 40 -4 61q0 35 4 109v71q0 13 -2 36t-2 34l-6 117q-4 68 -8 104q0 6 1.5 22.5t0.5 24.5q-4 34 0 49q3 20 16 47q1 2 15 9q15 10 16 12q3 16 33 24q174 34 217 41q75 14 160 27q37 6 114 14q40 5 45 7 q16 7 43 -11q26 -19 52 -28q4 0 8 -4t4 -9q1 -6 1 -18.5t1 -18.5q0 -3 -1 -10.5t-0.5 -12t3.5 -10.5t10 -10z" />
<glyph unicode="6" horiz-adv-x="798" d="M326 696q42 -5 47 -4q40 6 78 -14q59 -33 131 -78q47 -30 71 -80q5 -8 15.5 -21.5t13.5 -17.5q41 -55 63 -157q9 -56 9 -76q3 -53 -23 -103q-5 -10 -41 -61q0 -4 -2 -4q-19 -47 -67 -80q-9 -8 -39 -53q-42 -55 -101 -58q-14 -1 -39 -7t-34 -7q-74 -18 -99 -18 q-86 0 -143 49q-7 6 -23 17.5t-26.5 21.5t-16.5 22q-10 6 -18.5 16.5t-17 24.5t-13.5 21q-5 5 -7.5 11t-5.5 18t-3 14q-21 85 -23 98q-3 14 -8 53q-4 82 -4 123q2 38 14 103q11 58 37 122q2 10 10 21q5 9 31 74q15 30 17 36q2 4 4 13t4 12q42 82 53 107q17 38 82 120 q52 74 67 101q14 20 39.5 62.5t38.5 62.5q7 10 23.5 29.5t23.5 29.5q2 3 14 17.5t17 23.5q3 5 8 10.5t12.5 11.5t10.5 9q28 28 39 32q1 1 3 4.5t3 4.5q24 34 47 63q6 8 23 17q19 7 32 20q8 -4 13 -4q12 4 14 8q8 14 35 10q10 0 16 -2q11 -5 12 -8q14 -46 15 -59 q0 -13 -2 -19q-14 -42 -23 -51q-18 -21 -39 -64.5t-26 -52.5q-1 -2 -35 -47q-20 -26 -90 -139q-13 -25 -70 -104q-79 -109 -115 -156q-1 -2 -3 -5t-3 -5q-3 -6 -9 -17.5t-9 -17.5q-6 -18 -8 -23zM190 256q4 -44 11 -76q6 -45 26 -80q8 -13 25 -20q44 -9 84 0q86 16 147 53 q15 6 25 19q50 77 31 147q-9 42 -35 107q-8 31 -39 55q-23 20 -57 14h-23q-41 4 -66 -14q-13 -6 -16 0q-4 4 -8 5t-6.5 0.5t-7.5 -2t-7 -1.5q-16 -4 -22 0q-30 9 -39 -17q-7 -27 -14 -67q-1 -13 -2 -39.5t-2 -40.5q-1 -7 -2.5 -22t-2.5 -21z" />
<glyph unicode="7" horiz-adv-x="1030" d="M209 823q6 1 25.5 8.5t31.5 6.5q4 0 8 4q18 14 64 22q20 2 61 7.5t62 7.5q22 3 28 24q21 87 86 240q30 69 46 114q3 6 8 18.5t8 18.5q3 8 6 25q-28 2 -78 -6q-135 -27 -184 -33q-91 -16 -176 2q-8 1 -23.5 6.5t-17.5 5.5q-17 0 -23 2q-9 4 -27.5 12.5t-27.5 12.5 q-14 7 -29 10q-22 3 -30 19q-2 4 -11.5 11t-11.5 15q-4 42 8 58q21 21 19 32q29 25 47 25q10 0 20.5 -1t23.5 -2.5t21 -2.5q23 -2 140 -2q17 0 36.5 1t43 2.5t36.5 2.5q12 1 37 4t37 4q21 3 62 8t61 8q46 6 98 15q21 2 56 18q19 6 34 4q15 -4 19 -12q10 -10 16 -12 q33 -10 47.5 -43.5t7.5 -65.5q-9 -54 -38 -135q-37 -89 -60 -170q-6 -24 -20.5 -65.5t-18.5 -53.5q-18 -61 -24 -84q16 -4 24 -4q13 0 41 1t43 1q13 0 13 -12q12 2 33 6t32 6q4 0 6 -2q32 -16 37 -20q24 -16 35 -27q9 -6 10.5 -10.5t-4.5 -13.5q-6 -11 6 -23q-18 -3 -33 -6 q0 -30 -14 -47q-1 -1 -4.5 -6t-5.5 -6.5t-5.5 -5t-7 -4.5t-8.5 -1h-2q-3 -6 -7 -9.5t-9.5 -5.5t-9.5 -3t-11.5 -1.5t-9.5 -0.5q-67 -13 -121 -21q-17 -1 -51 -2t-51 -2q-17 0 -21 -8q-28 -46 -30 -49q-23 -58 -37 -109q-24 -78 -33 -164q-1 -4 -3 -11t-3 -11 q-5 -29 -20 -184q0 -39 -5 -68q-1 -9 -12 -41q-39 -3 -45 -35q-2 10 -8 21q-2 -8 -2 -15q-9 -20 -33 -14q-22 3 -39 -8q-4 -3 -12 -5.5t-10 -4.5q-6 10 -11 12q-6 3 -11 8.5t-7.5 9.5t-6 13t-5.5 12v8l2 6q-4 3 -5.5 7t-1.5 7.5t0.5 9t0.5 7.5q1 24 4 70.5t4 68.5 q3 76 24 129q11 24 19.5 53t16.5 65t13 54q6 28 33 111q3 12 6 27h-34q-90 -15 -103 -17q-18 -3 -33 0q-6 1 -22 1.5t-26.5 1.5t-20.5 5q-2 1 -5.5 2t-5.5 2t-5 3.5t-2.5 5t1.5 6.5v2q-9 7 -11 16t0 21.5t1 17.5q0 1 -1 3t-1 3q2 1 6 4l6 4.5t4 5t1 7.5q0 6 12 12q4 3 13 9 t13 9q18 10 21 37z" />
<glyph unicode="8" horiz-adv-x="800" d="M295 -106q-46 0 -66 2q-54 0 -90 36q-3 3 -19.5 17.5t-23.5 23.5q-25 41 -39 107q-19 67 -16 149q0 22 8 62q5 29 19 69q25 74 47 121q8 17 18 35t17.5 32t20.5 34.5t19.5 31t22 33.5t20.5 30.5t22.5 33t20.5 30.5q1 1 3.5 4.5t3.5 4.5q6 10 5.5 15t-9.5 15 q-54 54 -132 99q-59 35 -96 90q-21 33 -41 102q-19 57 2 109q2 6 9 24.5t10.5 27t10.5 23t15 25.5t17 20q1 0 22 29l2 4q9 4 22.5 19t22.5 20l4 2q14 14 33.5 29t33 23.5t39.5 24t36 22.5q15 7 28 10q11 2 32.5 6t33.5 6h43q17 0 23 2q30 3 61 -18q24 -20 47 -29 q10 -5 20 -13t15 -12.5t16.5 -16.5t14.5 -15q4 -4 11 -13.5t11 -13.5q23 -26 45 -76q29 -52 29 -135q0 -37 -12 -111q-2 -18 -15 -57q-21 -54 -39 -94q-8 -16 -25.5 -44.5t-23.5 -39.5q-1 -2 -3 -5t-3 -5q-14 -29 -13.5 -33.5t21.5 -28.5q10 -13 64 -96q9 -12 20 -33 q5 -11 20 -40t23 -46q8 -19 12 -49q15 -87 15 -106q0 -40 -4 -58q-3 -14 -17 -51q-9 -38 -20 -72q-4 -12 -12 -16q-6 -2 -15 -20q-1 -3 -3 -7.5t-3.5 -7.5t-4 -7t-5.5 -6.5t-8 -4.5l-2 -4q-28 -40 -74 -86q-7 -8 -22.5 -23.5t-22.5 -23.5q-8 -4 -8 -9q-1 -8 -7.5 -14 t-9.5 -7t-14 -5q-32 -9 -82 -31q-10 -5 -22.5 -8t-21 -4.5t-23.5 -3t-21 -2.5h-43v-2zM434 596q-2 -2 -7 -6t-7 -6q-80 -94 -115 -174q-4 -11 -17.5 -37.5t-17.5 -42.5q-19 -55 -16 -111q2 -21 6.5 -27.5t22.5 -13.5q36 -15 39 -18q22 -16 49 -13q4 1 14 2.5t14 2.5 q92 16 142 86q29 39 22 98q-5 37 -43 119q-7 18 -45 86q-20 40 -41 55zM406 936l10 10q5 11 15 32.5t15 33.5q49 107 37 223q-4 43 -18 61q-10 17 -29 11q-85 -20 -143 -62q-8 -6 -22 -19.5t-19 -17.5q-52 -39 -49 -114q0 -16 12 -25q33 -26 53 -39q38 -25 88 -59 q20 -13 50 -35z" />
<glyph unicode="9" horiz-adv-x="813" d="M147 4q0 18 -12 23q-3 2 -7 8.5t-5 7.5q19 32 61 61q73 50 125 86q29 18 58 54q13 15 36.5 43.5t36.5 42.5q26 26 31 59q5 26 15.5 81t15.5 81q2 4 2 10q-4 4 -8 6q-51 10 -97 21q-26 6 -49 18q-4 1 -41 17q-69 22 -104 53q-4 4 -15 10t-14 10q-5 7 -21.5 20t-21.5 23 q-9 14 -31 54q-43 76 -43 77q-19 37 -26 62q-33 98 -31 166q0 51 10 76q11 29 11 55q2 15 18 43q20 40 37 57q18 20 55 49q23 16 45 29q25 10 31 10q17 2 33.5 6.5t38 12t30.5 10.5q33 11 58 16q5 2 14 -2q6 -1 21 -8.5t24 -7.5q12 -2 33 -2h14q66 -13 90 -29 q74 -51 133 -119q2 -5 9 -8q9 -3 18.5 -17t15.5 -18q9 -13 9 -22q3 -30 9 -90.5t9 -91.5v-21q0 -1 -1 -4.5t-1 -5.5q5 -30 5.5 -61t-0.5 -75.5t-1 -60.5q0 -22 -4.5 -60t-5.5 -54q-4 -36 -4 -56q-11 -89 -35 -147q-8 -18 -20 -51.5t-15 -42.5q-5 -13 -15.5 -36t-15.5 -36 q-16 -36 -53 -107q-10 -19 -45 -63q-42 -49 -43 -49l-44 -49.5t-39 -39t-52 -40.5q-12 -6 -47 -21q-26 -11 -43 -16h-23q-55 -6 -63 -4q-24 4 -31 14q-14 23 -14 29q0 2 -2 4t-4.5 5t-4.5 5zM354 872q54 0 86 23q33 24 101 88q37 37 26 107q-2 18 -14 49q-14 28 -23 37 q-19 21 -59 53q-19 16 -45 6q-36 -13 -82 -59q-51 -54 -84 -154q-16 -47 -8 -90q11 -55 57 -55q40 -5 45 -5z" />
<glyph unicode=":" horiz-adv-x="329" d="M279 143q13 -18 4 -53q-6 -6 0 -16q3 -8 0 -21q-4 -12 -4 -22q-10 -16 -13 -29q0 -8 -4 -12h-16l-8 -10l-15 12l-26 -21q-9 6 -21 6h-10h-2q-14 7 -25 7q-9 0 -20 -7q-12 3 -21 3q-13 3 -14 4q-4 4 -6 4v4l2 18l-19 -2h-4l-4 4q-20 9 -39 43q-1 1 -3 4t-3 4q-8 13 -8 35 q0 34 27 80q17 26 26 33q10 7 41 20q12 6 15 7q6 4 18 4t20 -2t29 -2h27h4q4 0 6 -2q14 -14 31 -17q4 0 5 -0.5t2.5 -4t2.5 -11.5q13 -32 16 -37v-4q4 -11 9 -19zM14 510q-4 4 -6 8q-8 11 -8 35q0 34 27 80q2 3 6 8t6.5 9t6.5 8t7 6q19 12 41 22q6 3 15 6q12 4 18 4 q12 0 20 -2q16 -4 29 -4q5 0 14 1t13 1h4q4 0 6 -2q16 -16 31 -16q8 0 10 -17q8 -24 16 -36v-7q1 -1 2.5 -4.5l3 -7t3.5 -6.5q13 -18 4 -51q-5 -10 0 -17q3 -9 0 -20q-4 -16 -4 -23q-11 -17 -13 -30q0 -5 -4 -13h-16l-8 -8l-15 12l-26 -20q-9 6 -21 6q-6 0 -10 -2q0 2 -2 2 q-12 6 -25 6q-11 0 -20 -6q-8 2 -21 2q-12 0 -14 4q-2 0 -6 4v4l2 17h-19h-4l-4 2q-23 13 -39 45z" />
<glyph unicode=";" horiz-adv-x="366" d="M283 94q2 -6 10 -18q3 -6 0 -15l-21 -53q-7 -16 -86 -219q-11 -24 -30 -53q-2 -3 -5.5 -8.5t-5.5 -8.5q-30 -45 -36 -53q-4 -5 -23 -24l-8 -4l-6 6l-6 6q0 4 -5 4l-8 12l-14 -8h-2q-3 0 -8 8q-1 2 -9 10q-10 20 -10 23q0 8 -4 20q-4 16 -4 21q-3 48 23 88q4 8 4 10 q1 2 3 5.5t3.5 5.5t3.5 4q33 42 59 122q5 15 13 35q15 39 39 92q4 9 18 27l6 6q28 3 51 19q3 -1 8.5 -3.5t8.5 -3.5q4 -1 7.5 -4t6 -5t6 -6.5t4.5 -6.5t5 -8.5t5 -7.5l3 -7q4 -4 4 -8zM326 346v-4q-1 -3 -3.5 -8t-3.5 -8q-27 -55 -30 -84q-3 0 -9 -1t-8 -1h-6q-2 2 -6 2 q-27 0 -37 -27h-4q-8 4 -16 4h-6q-5 5 -11 8q-15 10 -30 29q-39 49 -4 98q15 21 36 45l7 7q6 -3 12 -3q5 0 20 5q2 0 4 2q4 1 12.5 2t12.5 2h2l8 -4q4 -2 11.5 -5.5t11.5 -5.5q17 -9 26 -32q2 -3 11 -21z" />
<glyph unicode="=" horiz-adv-x="1163" d="M1118 961q-5 -6 -25.5 -15.5t-29.5 -9.5h-10h-17q-43 0 -57 -29q-5 -2 -25 -2q-52 0 -77 2h-25q-10 1 -31 2t-30 2q-12 1 -34.5 4.5t-31.5 4.5q-32 4 -47 4q-5 1 -16.5 2t-16.5 2q-8 1 -24.5 2t-24.5 2h-2l-6 12h-2q-8 15 -21 17q-3 0 -9 1t-9 1q-20 4 -29 4 q-92 11 -225 14q-144 0 -205 2q-17 0 -27 2q-4 2 -14 2q-2 2 -4 2q-4 20 -20 33l18 4l-14 21q0 7 -11 12q-13 10 -14.5 16.5t6.5 16.5q4 5 8 22q15 3 21 12l37 -2h112q72 0 107 -2q178 0 268 -2q20 -1 59.5 -4t59.5 -4q30 -4 86 -8q19 -1 57.5 -2t57.5 -2q48 0 73 -2 q5 0 16.5 -1t16.5 -1q52 -8 98 -37q32 -22 35 -58v-10q0 -3 1 -8.5t1 -7.5q-1 -2 -2 -7t-2 -7zM819 696q-5 -10 0 -20q4 -7 -10 -21q-2 -4 -18 -4q-3 -1 -9.5 -2t-9.5 -2h-12h-17l-51 -2l29 -24q-31 -6 -57 -29l-2 -2q-6 2 -19 2q-16 0 -22 2h-7q-16 4 -26 6q-35 6 -142 6 h-32q-24 0 -72 -1t-72 -1q-33 -2 -98 -2q-29 0 -43 2q-13 16 -33 19q-6 2 -16 2h-2q-8 0 -21 10l-16 8l-8 8l-6 6q-3 25 -21 43v7v8q5 19 -4 30q0 1 4 5q1 0 2 1t2 1q18 12 21 22q6 0 12 6q4 4 8 6q21 16 25 29q31 4 94 4h51q17 0 53 1t54 1q86 4 125 4q117 5 227 -8h4 q55 -9 102 -53l5 -2q6 -6 10 -8q10 -7 16 -23q8 -16 2 -35z" />
<glyph unicode="?" horiz-adv-x="665" d="M367 23q6 -3 6 -7.5t-6 -21.5v-2q-5 -12 -5 -23l-28 -41q-2 0 -6 1t-6 1q-16 0 -39 -14l-4 -2q-1 -1 -6.5 -5.5t-6.5 -6.5h-2q-6 0 -10.5 -2t-7 -4.5t-5 -6t-3.5 -4.5q-18 -7 -27 -16q-8 -8 -10 -12q0 -2 -2 -2q-1 0 -2 -1t-2 -1q-6 3 -15 6q-16 8 -26 10q-12 2 -21 20 q-4 4 -4 7v4q0 6 -4 18v6q0 19 -6 29v14q0 2 1 6.5t1 6.5v2q12 16 20 22q32 32 43 53q2 2 9 2q25 3 49 13q16 4 28 4q13 0 41 -4q2 -2 11 -2q2 -1 7 -2t7 -2q9 -12 18 -27q6 -13 13 -16zM623 1174q0 -32 2 -48q0 -25 -17 -59q-16 -24 -30 -59q-2 -4 -6.5 -13.5t-6.5 -13.5 q-4 -8 -6 -10q-4 -4 -14 -19q-24 -33 -41 -45q-12 -6 -19 -16q-4 -2 -10 -8q-23 -17 -26 -19l-7 -4l-2 -2q-4 0 -8 -4q-12 -7 -43 -29q-9 -5 -32.5 -21t-37.5 -24l-36 -24q-5 -3 -15.5 -9.5t-15.5 -9.5q-55 -36 -39 -94q2 -10 8 -30.5t8 -30.5q8 -20 13 -35q1 -5 3 -15.5 t3 -15.5v-4q8 -53 22 -78q6 -11 2 -18q-7 -20 -4 -39q2 -8 2 -27l-8 4l-8 -20v-4q-1 -2 -3 -6.5t-3 -6.5v-8q-2 4 -6 8l-15 25l-18 -23q-6 -8 -12 -36v-2l-27 -13l-53 27l-2 -19q-23 32 -35 68l-5.5 16.5t-6 19t-5.5 15.5q-1 4 -6.5 17.5t-7.5 21.5q-21 56 -26 80 q-15 48 -21 107q-3 57 31 110q1 2 3 5t3 5t4 7.5t4 7.5q3 5 12 12.5t11 9.5l4 6h2q7 7 8 9q31 33 104 67q4 2 13.5 6t13.5 6q88 48 160 101q35 24 71 69l7 7q31 36 14 81q-10 32 -37 70q-42 55 -113 72l5 22q-40 15 -78 15q-21 0 -31 -2l-14 -2l-2 -19v-2q-2 2 -9 2 q-17 0 -67 -10q-4 -1 -11 -2t-10 -2h-6q-4 2 -14 2q-9 0 -17 -4l-10 18q10 20 6 33q0 2 -4 10q2 5 2 27l-2 4q3 5 5 11t2 10t-0.5 10t-0.5 8q-2 2 -2 6q2 1 6.5 3t6.5 3q4 2 14 6.5t18.5 8t16.5 6.5q39 16 65 18q20 4 66 8l14 2h6h17q16 -4 26 -4q13 -4 47 -8q27 -2 66 -16 q3 -1 10.5 -4.5t10.5 -4.5q35 -11 81 -57l9 -6q31 -31 41 -49q7 -11 10 -19q3 -6 13 -25.5t15 -29.5q2 -3 7 -18l-4 2z" />
<glyph unicode="@" horiz-adv-x="1753" d="M379 1339q130 98 252 136q59 16 139 30q9 1 24 4t21 4q39 9 131 -8q24 -5 78 -14q15 -4 49 -8q45 -10 60 -13q13 -2 36.5 -7t36.5 -7q9 0 13 -2q2 0 14 -4q2 0 7 -1t7 -1q30 -9 66 -6h4q39 -15 104 -53q52 -34 123 -121q30 -38 82 -127l12 -21q25 -45 35 -78 q22 -86 27 -118q12 -62 12 -86q-3 -126 -16 -199q-5 -29 -19 -64q-2 -7 -6 -20t-6 -20q0 -3 -6 -9q0 -2 -4 -6q-10 -10 -10 -20q-5 -20 -27 -54q-21 -26 -25 -36q-1 0 -2 -1t-2 -1q-1 -1 -4 -3.5t-4 -3.5l-2 -2q-15 -15 -16 -20q-5 -17 -41 -49q-15 -9 -29 -23 q-7 -7 -16 -10q-2 -2 -17 -12q-19 -16 -57 -23q-12 -4 -19 -4q-3 -1 -9 -2t-9 -2q-21 0 -37 -8q-41 -15 -90 -4q-24 6 -29 8q-57 19 -129 57l-16 8q-12 6 -25 19q-1 1 -8 6.5t-12 7.5q0 4 -4 4q-20 17 -31 19q-12 3 -22 -4q-1 -1 -19 -5q-33 0 -53 -20q-30 -30 -88 -41 q-12 -2 -41 -10q-19 -8 -33 -10q-10 -2 -39 -2l-8 2h-18q-31 4 -46 0q-20 0 -32 2q-33 11 -39 14q-40 20 -62 37q-3 2 -18 22q-2 2 -5 7.5t-5 7.5t-2 4q-12 18 -25 22q-2 1 -10 17v4q-13 36 -10 78q9 81 36 147q34 75 74 115q107 104 225 121q67 11 158 14l33 2q12 0 20 -2 q21 -4 58 -29q4 0 8 -4q4 -2 8 -6q19 -16 14 -37q-4 -4 -4 -8q-4 -14 -4 -37q0 -19 -2 -22q-7 -20 2 -66q2 -4 2 -12q14 -66 56 -142q43 -78 135 -122q5 -2 16.5 -6.5t16.5 -6.5q73 -16 141 31q76 55 117 127q21 44 26 84q12 81 0 158q-1 7 -2 23t-2 24v4q-2 36 -13.5 73.5 t-23 61.5t-32.5 63l-7 11q-7 14 -59 84l-4 4q-50 65 -139 94l-23 8q-78 30 -115 39q-6 0 -8 2q-35 8 -106 12q-20 2 -54 -2h-36h-23q-62 0 -80 -4q-28 -4 -41 -4q-6 -1 -19.5 -3t-19.5 -3q-48 -7 -106 -41q-28 -14 -37 -20q-40 -18 -78 -45q-46 -32 -94 -80 q-63 -60 -92 -152q-4 -12 -37 -92q-5 -17 -16 -43q0 -1 -1 -2.5t-2 -4.5t-2 -5q-2 -22 -10 -56q-18 -95 -16 -137q4 -110 10 -164q12 -103 27 -161q38 -153 145 -269q14 -16 43.5 -46.5t44.5 -45.5l23 -24l-21 -13l31 -22q0 -19 12 -35q-4 -2 -10 -8l-21 4l-10 -13 q-2 -7 -6 -4q-6 0 -14 4q-19 9 -25 11q-3 0 -9 1t-9 1h-51q-5 2 -19.5 9.5t-23.5 10.5l-76 27l18 -25q-4 2 -14.5 10t-16.5 11q-6 23 -32 53q-3 3 -15 21l-6 8l-12 4h-8h-2l-19 2q-21 24 -35 55q-1 4 -20 41q-4 4 -8 12q-3 5 -11.5 16t-11.5 17q-4 6 -12 14q-1 2 -3 6.5 t-3 6.5q-53 118 -62 248q-4 36 -4 57q-12 156 -12 162q0 17 4 63q2 8 2 23q2 20 6 42t8 37.5t12.5 41.5t12 36.5t14 40.5t13.5 37l2 4q47 123 127 242q76 109 178 186zM829 473q49 32 37 88q-4 22 -2 31q12 65 -10 141l-6 19h-19q-82 0 -149 -37q-46 -24 -64 -70 q-4 -12 -6 -20q-9 -26 -14 -33q-22 -36 -14 -74q16 -82 82 -100q24 -3 49 0q41 5 78 31q10 8 30 20zM760 1370l-31 -10l21 -29q5 -11 18 -16h2q15 -2 23 6l24 12l-14 23q-7 14 -17 18h-2h-2q-11 3 -20 -2z" />
<glyph unicode="A" horiz-adv-x="948" d="M14 35q3 7 -2 31l-6 18q-4 17 4 25q-8 20 -8 49v37v61q-1 17 8 80v6q1 22 10 63.5t11 53.5q8 54 32 174q5 27 41 203q16 92 19 106q7 45 14 78q5 24 22.5 88.5t24.5 101.5q2 9 7.5 29t7.5 29q1 10 3 30.5t3 30.5q10 10 10 31l6 24q0 1 1 2.5t1 2.5q3 6 23 51q15 9 37 20 q0 5 1 16t1 17q4 1 11.5 2t10.5 2q3 -1 9.5 -4t9.5 -5t8 -5t7.5 -6.5t4.5 -8.5q28 -8 47 -34q3 -4 11.5 -12.5t11.5 -12.5t9 -12.5t9 -12.5q1 -1 2 -3t2 -3q5 -8 25 -33.5t29 -39.5q27 -44 57 -103q31 -60 41 -84q4 -9 16 -36.5t17 -43.5q2 -7 18 -51q5 -12 15.5 -37 t15.5 -37q4 -10 11 -30.5t11 -30.5q10 -29 27 -68q5 -15 6 -16q6 -8 10 -23q5 -21 8 -28q44 -117 66 -199q5 -21 16.5 -62t16.5 -61q20 -88 24 -106q3 -14 9.5 -41.5t9.5 -42.5q1 -5 3 -14.5t3 -14.5t4 -22.5t6 -26.5q7 -26 0 -66q-2 -6 -2 -16h-6q-4 -8 -6 -10 q-21 -11 -27 -15q-55 16 -78 31q-8 -4 -12 -4q-4 4 -14 19q-9 12 -13 34q-16 70 -20 82q-1 4 -2 12.5t-2 12.5q-4 21 -29 129q-3 13 -8 41t-8 41q-2 9 -23 80q-4 16 -13 46t-13 46q-11 26 -19 47q-19 4 -33 -2q-4 -1 -9 -3.5t-10.5 -7t-8.5 -6.5q0 -4 -2 -10q-7 0 -23 -4h-4 v2q-28 -4 -43 -4q-46 -3 -94 0q-18 0 -31 -8q-43 -17 -65 -23q-1 -1 -4.5 -2t-5.5 -2t-3 -2q-6 -6 -6 -22q-2 -22 -10.5 -65.5t-9.5 -67.5q-1 -30 -8.5 -94t-8.5 -95q0 -77 7 -115q1 -10 -13 -43q-6 -2 -14 -6q-2 -6 -6 -14q-4 0 0 -1t0 -1q-21 11 -23 12q-1 -3 -4.5 -12 t-5.5 -14q-5 -4 -15.5 -12.5t-15.5 -12.5q-17 -10 -30 -10h-17v2v-2q-10 6 -31 20h-14q-17 10 -33 23zM557 774q-1 2 -2 6t-2 6q-5 15 -16.5 43t-16.5 43q-7 15 -15 33.5t-17 40.5t-15 35q-6 17 -29 70q-2 6 -6 17t-6 17q-23 52 -45 91q-13 17 -20 20q0 -1 -5 -16 q-2 -10 -5 -31t-5 -31q-8 -41 -24 -127q-2 -8 -7.5 -28t-7.5 -31q-3 -12 -8 -38t-8 -40q-9 -34 -16 -94v-12h10q10 1 29.5 4t29.5 4q16 4 56 8q37 4 114 4q25 0 37 6zM201 63v3h-6v-3h6zM530 627l2 -4q1 0 2.5 1t2.5 1l-2 2h-5z" />
<glyph unicode="B" horiz-adv-x="974" d="M692 836q8 -4 19.5 -12.5t15.5 -10.5q63 -42 80 -59q64 -64 96 -127q23 -51 29 -82q1 -5 1 -12.5t-0.5 -16t-0.5 -12.5q0 -35 -6 -49q-3 -9 -6 -15q-1 -4 -3 -15t-2 -17q0 -27 -18 -56q-15 -23 -27 -37l-24 -30q-41 -58 -94 -82q-32 -16 -52 -31q-15 -13 -65 -35 q-31 -15 -64 -24q-83 -25 -141 -27q-41 -3 -72 2q-17 4 -36 5t-41.5 0.5t-34.5 0.5q-13 1 -36.5 4t-35.5 4q-10 1 -29.5 2t-29.5 2q-3 0 -13 5q-4 -2 -13 -7.5t-13 -7.5q-2 1 -23 15q-18 12 -24 30q0 4 -2 6q-14 17 -9 58q2 17 11.5 49t11.5 49q3 14 0 25q0 67 6 106 q13 82 10 156q-2 26 -2.5 73t-1.5 62q-1 13 -5 36t-5 34q-7 41 -14 102q-10 90 -11 102v66v12q-10 43 -14 129q0 5 -2 16.5t-2 16.5q0 12 4 14q8 11 8 27q0 10 8 18q2 1 16.5 12t22.5 15q58 28 119 43q84 21 146 29q137 13 245 -13q59 -13 84 -20q9 -3 28 -8t27 -8 t21.5 -8.5t25 -13.5t23.5 -19q44 -36 62 -72q24 -56 14 -105q-2 -9 -4 -55t-10 -65q-3 -8 -10.5 -23.5t-10.5 -23.5q-4 -9 -10 -17.5t-17.5 -20t-13.5 -14.5q-10 -11 -31 -30.5t-28 -26.5q-12 -9 -27 -18zM240 244q9 0 25.5 -2t29.5 -2t24 4q10 3 36 9t36 9q8 2 52 9t65 18 q6 4 143 82q46 22 68 59q11 19 12.5 35.5t-3.5 35t-5 23.5q0 1 -6 13q-37 48 -94 131q-10 13 -45 24q-11 5 -34 6t-30 2q-33 2 -100 2q-32 0 -70 -10q-8 -2 -12 -6q-4 -2 -10 -4t-9 -4q-4 -2 -11 -5t-11 -5q-10 -2 -18 -5.5t-19.5 -10t-24.5 -11.5q-4 -2 -16.5 -12 t-17.5 -13q1 -9 6 -59q2 -20 2 -59v-60q0 -21 6 -39q2 -6 2 -18q1 -13 6 -35t6 -33q0 -1 6 -37q1 1 2.5 -2t2 -6t2 -6t2.5 -2q0 -7 1 -8.5t1 -7.5zM180 852h53q58 9 76 10q54 6 103 21q111 34 182 84q50 34 70 71q44 80 51 107q8 33 -31 55q-4 1 -8.5 4.5t-5.5 3.5 q-71 23 -72 23q-95 24 -195 18q-71 -3 -145 -18q-11 -2 -86 -17q-17 -4 -20 -8t-5 -22v-8q-1 -8 -8 -37t-4 -45q4 -17 12.5 -51l12.5 -50q16 -86 18 -129q0 -8 2 -12z" />
<glyph unicode="C" horiz-adv-x="907" d="M743 303q-12 -8 -16 -12v-4q28 9 55.5 3t44.5 -34q-3 -2 -9 -7t-9 -7q5 -19 25 -39q-1 -4 -5.5 -11.5t-5 -11t1.5 -12.5q3 -5 -8 -16q-5 -4 -21 -15t-22 -18q-4 -7 -8.5 -12t-12.5 -9t-10.5 -5.5t-14.5 -6.5l-11 -4q-1 -1 -3 -2t-3 -2q-43 -33 -133 -29q-142 6 -244 92 q-102 88 -152 162q-3 4 -9 12.5t-9 12.5q-20 20 -49 80q-59 110 -72 143q-35 83 -41 174q-3 77 25 156q61 146 100 204q35 48 84 101q37 43 90 86q39 31 92 63q34 19 92 45q1 0 23 6q39 12 180 35q50 9 96 -2q50 -14 66 -53q0 -4 4 -8q23 -42 -10 -105q-21 -34 -62 -34 q-34 -3 -63 0q-5 0 -55 -11q-12 -4 -38 -12t-38 -12q-149 -48 -242 -160q-89 -107 -125 -229q-27 -95 -6 -191q14 -60 68 -141q38 -60 88 -101q43 -35 112 -45q60 -9 125 7q15 3 88 18q12 2 24 -6t15 -21q1 -1 4 -5t4 -7z" />
<glyph unicode="D" horiz-adv-x="874" d="M45 98q2 -1 6.5 -2t7.5 -2q-4 22 -8 35q-16 0 -16 25q-8 65 -10 102v49q0 84 -2 127q-7 123 -17 217q-7 79 -2 135q3 49 1.5 137t0.5 136q0 25 2 73.5t2 71.5q0 78 8 117q14 69 27 88l12 12q3 3 10.5 8.5t10.5 8.5q6 0 26 4q0 1 -1 4t-1 4q11 7 19 10q16 8 49 0 q5 -1 16.5 -3t16.5 -3q26 -5 33 -8q95 -33 157 -82q49 -34 68 -49q13 -9 36.5 -31t28.5 -27q8 -6 24.5 -19t24.5 -19q47 -35 72 -66q52 -58 53 -59q5 -6 13.5 -19.5t9.5 -15.5q5 -11 15.5 -32.5t15.5 -33.5q3 -5 7 -16.5t7 -16.5q41 -108 57 -202q11 -64 2 -135 q-4 -39 -14 -64q-5 -16 -17.5 -46t-17.5 -46q-5 -13 -15 -40t-15 -40q-5 -10 -7 -12q-2 -5 -34 -66q-3 -6 -7 -10q-18 -23 -26 -29q-43 -34 -64 -49q-7 -5 -35 -25.5t-45 -29.5q-55 -37 -81 -51q-3 -2 -37 -13q-7 -2 -19.5 -5t-22.5 -6t-18 -7q-15 -6 -28 -19 q-15 -15 -72 -38q-4 -2 -10.5 -4t-11 -4t-10 -5t-9.5 -6q-21 -12 -37 -6q-6 1 -12.5 -0.5t-9 -3t-9.5 -6.5t-8 -6q-2 0 -4 -2q-38 9 -63 34q-5 5 -7 9q-13 37 -18 67q0 4 2 6zM231 1292v-24v-23q-1 -12 -3 -33t-3 -39t0 -34v-27q-1 -16 -3 -46.5t-3 -45.5q0 -14 -1 -29 t-2.5 -34t-2.5 -29q-6 -117 -6 -121v-131q0 -16 1 -49t1 -49v-129q0 -12 -1 -35.5t-1 -34.5q0 -54 4 -156q0 -2 4 -14q10 0 14 2q23 4 70.5 13.5t71.5 13.5q95 18 164 90q17 16 45.5 48.5t33.5 37.5q1 2 4.5 7t4.5 7q2 5 22 51.5t31 69.5q14 37 20 80q7 54 2 90 q-14 99 -43 166q-37 90 -77 137q-57 65 -82 84q-50 35 -60 41q-58 38 -96 76q-28 28 -76 53q-5 4 -17.5 9.5t-15.5 6.5z" />
<glyph unicode="E" horiz-adv-x="729" d="M80 981q1 0 2.5 -0.5l4.5 -1.5t5 -2q0 2 1 7t1 7q0 21 1 63t1 64q3 111 6 219q4 33 -18 49q-3 1 -8 17q8 8 12 14q-2 1 -25 14t-30 27q4 8 4 12q-9 3 -21 9q0 -3 1 -8t1 -7q-6 -3 -11 -1.5t-5 7.5q-2 5 8 15q4 4 10 4q11 -2 20 1.5t20.5 12t15.5 10.5q6 5 16 9q7 0 21 1 t20 1q32 5 51 20q-6 3 -13.5 3t-15.5 -1.5t-12 -1.5q-8 1 -23 -0.5t-20 -1.5q-21 -4 -41 2q8 3 19 10q-1 1 -3.5 5t-4.5 6q19 4 57 8q16 3 46 8t54.5 9t46.5 7q74 12 150 15q37 4 115 8q5 0 14 -1t14 -1q12 2 35 -14q2 -2 9 -7t10.5 -8t6.5 -9t3 -13q4 -2 6 -4q16 -8 25 -11 q2 -12 4 -23.5t4.5 -24.5t3.5 -21q-6 -4 -8 -11t-1 -13.5t-1 -14.5q-22 -5 -37 -31q-8 -13 -25 -16q-30 -2 -160 -17q-13 -1 -39.5 -4t-40.5 -4q-23 -2 -63 -6q-14 -4 -29 -6q0 -12 -2 -37t-2 -37v-223q0 -13 2 -21h41q28 -1 83 -2t83 -2q5 0 17 -4q8 -4 36 -16q-2 -1 -6 -4 t-6 -4q11 -23 31 -25q15 0 43 -14q13 -7 15 -12.5t-3 -20.5q24 -20 10 -45q-14 -29 -22 -35q-4 -5 -15 -8t-12 -4q0 -15 -4 -21q-2 -4 -18 -4q-31 -2 -95 -2q-42 0 -65 2q-16 1 -45 3t-45 3q-20 1 -26.5 -6t-6.5 -26q8 -111 10 -164q0 -56 -4 -158v-123v-10q0 -14 4 -17.5 t17 -3.5q18 1 51 4.5t49 4.5h129q8 0 25.5 1t25.5 1q17 0 41 -4q2 -1 4 -4.5t5.5 -8.5t5.5 -8q2 0 18 -4q-4 -11 -8 -29q15 0 20 -12q2 -2 5 -3.5t8 -3.5t8 -3q0 -2 3 -13t-3 -16l16 -8q-1 -4 -3 -13.5t-4 -15t-8 -11t-16 -7.5q6 -15 -14 -35q-25 -25 -41 -31 q-10 -7 -20 -10q-88 0 -131 -2q-15 -1 -45.5 -3t-45.5 -3q-16 -2 -47 -2q-37 0 -55 -2q-20 -2 -49 12q-48 27 -80 84q-37 64 -37 145q0 45 1 136t1 137v12q-3 23 -3.5 48t0.5 60t1 48v155v39q0 3 -12 27zM135 1565v-4q14 -4 23 8q-4 -1 -12 -2t-11 -2z" />
<glyph unicode="F" horiz-adv-x="907" d="M63 -57l-40 30q-18 19 -21.5 43t0.5 45l6 99q1 21 4 59t5 69.5t3 59.5q1 22 3.5 68t3 67.5t-1.5 67.5q-3 38 2 172q4 132 4 199q3 54 0 108q0 1 -6 55v54q-1 24 -4.5 73.5t-4.5 75.5q0 8 1 26t1 27t-2 13q-11 25 13 53l12 6q5 5 11 12.5t7 8.5q28 5 60 12q0 2 -2 2 q31 0 93 -1t93 -1q134 -4 229 14q22 3 68 10.5t68 10.5q14 2 45 2q8 -4 27 -10.5t28 -10.5q13 -4 31 -18q3 -2 10.5 -11t13.5 -12q1 -4 2 -13.5t2 -14.5q5 -5 17 -13q0 -2 -2 -2q4 -7 12 -22.5t12 -22.5q-10 -10 -30 -26q2 -3 4 -10t4 -11q-3 -3 -9.5 -9t-9.5 -9 q-3 -1 -22.5 -8t-30.5 -7q-6 0 -18.5 -1t-18.5 -1h-43q-23 -3 -68.5 -9t-68.5 -9q-17 -1 -49.5 -3t-48.5 -3q-23 -1 -68 -4t-67 -4q-12 -2 -39 -2q3 -14 6 -19h-2q-4 -46 -4 -65v-183q0 -4 1 -11t1 -11q14 -5 34 -8q53 -3 105 6q9 2 57 2q2 0 6.5 -2t6.5 -2q25 -11 41 -13 q4 -3 12 -7.5t13.5 -9t8.5 -11.5q29 -3 49 -29q0 -2 -1 -6t-1 -6q1 -2 4.5 -7.5t4.5 -7.5q-1 -5 -2 -15.5t-2 -16.5l-24 -15t-19 -12q18 -14 6 -35q-16 -4 -29 -4q-95 -4 -143 0q-28 1 -125 10q0 -4 -2 -11t-2 -11q-3 -13 0 -27q6 -53 -2 -155q-4 -44 -5 -125.5t-4 -118.5 q-4 -90 -8 -137q-1 -10 -6.5 -41.5t-7.5 -51.5q-6 -8 -17 -26t-16 -25q-1 -2 -6 -18t-12 -23h-43l-18 -16q-17 -16 -32 -16q-15 13 -43 6z" />
<glyph unicode="G" horiz-adv-x="1013" d="M932 324q1 -7 0.5 -10t-3 -9t-3.5 -8q-2 -13 -15 -39l-6 -6l-6 -12v-2q-9 -2 -10 -16t-4 -17q-2 -2 -6 -10q0 10 -2 14q-7 -3 -6 -11.5t-1 -13.5q-18 -4 -18 -22q-1 -3 -3 -5.5t-5 -6t-4 -5.5q-4 -5 -27 -28l-2 -2q-11 -3 -29.5 -17t-31.5 -16q-6 -1 -14.5 -6.5 t-12.5 -7.5q-3 -1 -13 -6.5t-16 -6.5q-55 -14 -119 -14q-67 4 -100 14q-39 14 -100 29q-29 7 -82 39q-4 3 -14.5 7t-14.5 7q-17 11 -18 13q-66 49 -86 69q-14 12 -51 66q-64 97 -89 194q-24 105 -18 209q2 67 21 182q1 3 3 8.5t3 8.5l4 8q3 15 8 43t8 43q0 10 2 14 q4 26 10 41q3 -2 7 -5.5t6 -4.5l2 2q22 50 28 68q2 4 8 19t9 22q7 17 12.5 48.5t7.5 41.5v8q-11 20 6 45q26 55 89 98q54 33 67 37q34 10 82 10q23 0 67.5 1t65.5 1q19 0 51 -4q3 0 15 -6q46 -23 61 -33q41 -29 66 -51q80 -80 118 -157q19 -36 35 -80q6 -12 21 -52 q12 -27 -2 -43q-1 -1 -1 -5.5t-1 -6.5q-24 -4 -45 -4q0 -1 -5 -6q-1 1 -6 7t-10 11q2 -10 2 -18q-18 0 -43 25q0 -2 -1 -7t-1 -8q-3 4 -11.5 24.5t-19.5 26.5l-6 -24h-2q-3 6 -9 19.5t-9 19.5q-22 59 -58 106q-45 59 -88 78q-64 33 -120 4q-5 -3 -15.5 -11t-15.5 -11 q-17 -12 -41 -62q-1 2 -2 3.5t-3 4t-3 4.5q-6 -14 -18 -37t-17 -34q-28 -65 -53 -166q-25 -102 -39 -199q-11 -68 -11 -110q-7 -153 43 -256q40 -77 95 -107q37 -21 90 -41q61 -19 112 6q13 7 76 47q7 7 10 13q56 70 80 137q5 12 2.5 18t-14.5 7q-32 4 -47 4q-46 2 -113 24 q-5 1 -11.5 4t-8.5 4q-25 4 -27 25q-1 4 -6.5 14t-5.5 17l-12 12q4 8 6 14q-4 2 -13 2t-14.5 4t-7.5 15q5 -1 15.5 -3t15.5 -3l18 18q-15 10 -19.5 11t-11.5 -7q1 4 2 13t2 14q36 5 50 8q5 0 20 10q6 2 14 10q43 15 66 25q3 1 25 18q8 8 10 9q40 21 88 30h14q8 -8 33 -8 q3 -1 6 -2.5t7 -4t7 -3.5q0 -2 -1 -5.5t-1 -6.5q22 4 33 8q2 -2 10 -14q11 2 18 -5t7 -20q24 0 27 -21q4 -4 12 -8q15 -5 18 -22q0 -5 1 -15t1 -16q3 1 8.5 2t8.5 2l2 -4q0 -7 1 -21.5t1 -21.5v-37q0 -27 -12 -51q-14 -16 -7 -39q7 -22 -8 -33q-3 -2 -4.5 -6.5t-3 -11 t-2.5 -10.5l4 -2q4 12 8 20q7 -38 -16 -61q6 19 4 26q-12 -10 -4 -26zM279 1384q7 -3 11 -1t5 12q-10 -5 -16 -11z" />
<glyph unicode="H" horiz-adv-x="813" d="M600 1503q8 -3 27 -8q9 -5 20 6q3 6 6 15q2 -8 7.5 -12.5t15 -8.5t12.5 -6q0 -24 19 -43q14 -17 14 -43q1 -20 2 -61t2 -62q0 -5 3.5 -14t4.5 -11q6 -30 6 -34q6 -24 6 -50q3 -49 3 -100q0 -17 -1.5 -52t-1.5 -52q0 -21 5 -113q1 -13 5 -36t5 -34q4 -32 8 -100 q1 -10 -4 -47q0 -4 -4 -8q-10 -10 -10 -35v-111v-77q0 -29 -7 -48q-5 -13 -5.5 -27t0.5 -34t1 -27q1 -16 11 -110q0 -3 18 -148q4 -40 4 -61q0 -24 -10 -39q-6 -11 -19 -14q-3 0 -12 -9q-4 -2 -8 -10q-4 1 -15 4t-18 4q-2 -2 -6 -10q-2 -2 -6 -2q-9 2 -12 16q-4 11 -13 13 q-10 2 -14 20q0 13 -4 17q-10 16 -14 51q-4 25 -15 71q-4 30 -16 82q-3 18 -6 33q-17 109 -17 113q-1 9 -4 27.5t-4 27.5q-9 87 -8 113q0 7 -1 22.5t-1 22.5q-2 12 -14 12q-70 -4 -107 -6q-12 -4 -22 -4h-19q-1 0 -3 1t-3 1q-10 -4 -21 -4t-23.5 2t-19.5 2q-11 0 -32 1 t-33 1q-4 0 -8 -2q0 -3 -1 -10t-1 -11q1 -13 2 -39t2 -40q2 -15 0.5 -30t-7 -39t-6.5 -30q-9 -43 -8 -57q0 -9 -4 -29q-6 -55 -18 -106q-2 -12 -9.5 -32t-9.5 -32q0 -2 -6 -8q-17 -17 -22 -35q0 -2 -9 -16l-14 14h-2q-3 -12 -18 -8.5t-19 0.5q-16 29 -28 37q-7 7 -11 24 q-10 51 -10 125q0 10 -10 45q-6 45 -4 52q2 4 2 16q0 4 -1 14t-1 15q1 10 3 30.5t3 30.5q1 20 3 62l3 63q0 10 -1 29.5t-1 29.5q-2 23 -2 70q-1 19 -2 56t-2 55q-2 30 -6 91.5t-6 92.5q-3 34 -3 63v60v72q-1 13 -4 38t-4 37q-4 62 -4 90q-4 62 -4 93q-4 42 0 63q4 44 31 57 q5 3 8 7.5t7 14t5 11.5l8 8q3 -25 15 -36q2 -4 12 -9q1 2 3 6.5t3 6.5l4 8q4 -20 4 -25q2 -2 5 -2q18 4 34 -20q25 -29 33 -45q18 -34 12 -72q-7 -34 -4 -80q9 -112 21 -217q2 -31 14 -88q11 -77 8 -170v-96q2 -13 4.5 -16.5t14.5 -4.5q88 -14 155 -6q11 0 11 4q0 10 15 10 h3q7 1 26.5 3.5t30.5 3.5q2 1 6.5 2t6.5 2q3 0 8.5 2t7.5 2q25 0 25 24q0 37 4 115q1 22 4 68.5t4 68.5v4q3 19 4 41t1 38t-0.5 42t-0.5 39q1 21 0 45t-3 53.5t-3 44.5q0 76 6 115q8 39 37 76q4 8 6 14zM649 -78h4q-1 2 -2 5t-2 5l-2 -2q0 -1 1 -4t1 -4z" />
<glyph unicode="I" horiz-adv-x="311" d="M238 109q-3 1 -8.5 3t-8.5 3q0 -9 -4 -13q-12 -6 -14 -6q-7 4 -19 4t-16 2q-2 4 -14 14.5t-13 20.5l-4 4q-10 3 -17 8t-11.5 16t-5.5 14.5t-5 19.5l-30 141q-21 117 -23 166q0 32 -1 94t-1 92q0 68 4 103q0 7 4 22t4 23q10 107 11 131q0 28 18 43l10 -15q9 21 15 39h4 q-1 -11 10.5 -23.5t13.5 -17.5q2 7 7 17.5t6 13.5q2 -4 8 -14.5t8 -16.5q4 3 5 7t0.5 9t0.5 7q2 -3 7 -9.5t7 -9.5q5 -13 21 -16q6 -3 12 -12q25 -45 31 -60q4 -12 4 -39q0 -23 6.5 -64.5t7.5 -51.5q3 0 2 -46l-2 -46q0 -29 -2 -43q-9 -83 -6 -168q0 -23 1 -68t1 -68 q0 -2 3 -14.5t3 -19.5v-72v-53v-15q-27 -3 -30 -36zM43 1409q8 5 16 8h9l2 -4q7 2 19.5 3t22.5 4t17 10q10 -5 12 -7q1 -5 3.5 -9t7 -6.5t6.5 -3.5t8.5 -3t7.5 -2q12 -5 19 -15q6 -10 36 -55l7 -14q4 -8 4 -17q1 -2 2 -6t2 -6q0 -1 -1 -3t-1 -3q8 -10 9 -31.5t5 -29.5 q6 -13 -4 -23q-4 -4 -4 -8q2 -11 -4 -29t-6 -22l-13 -13q-1 1 -6 5t-10 6q-6 -15 -12 -27q-22 -7 -39 4q-55 25 -95 68q-8 8 -23.5 26.5t-23.5 26.5q-10 11 -14 47v27q-3 41 23 73q1 2 6.5 5.5t7.5 5.5q8 3 8 5t-4 13z" />
<glyph unicode="J" horiz-adv-x="790" d="M47 705q9 -3 12 -3q21 21 33 31q5 -5 12 -8t11 -3.5t16.5 -1.5t15.5 -1q7 -7 31 -27q-1 0 -2 -1t-2 -1q3 -6 15 -26t18 -31q1 -4 6 -27q0 -7 1 -21.5t1 -21.5q0 -33 6 -63q2 -14 -2 -45q0 -106 19 -162q21 -59 26 -59q1 0 3 3q6 7 12 3q2 1 8 2t8 2q15 8 65.5 21.5 t69.5 35.5q34 40 35 41q3 3 3.5 9t2.5 9q26 54 31 95l4 4q6 10 7.5 30t0.5 44.5t0 31.5q8 57 8 127q1 17 -4 90q-2 24 -7 72.5t-7 73.5q-2 21 -10 73q-5 31 -15.5 96t-15.5 97q-3 19 -7 56t-7 55q-4 29 -7 45t-11 38.5t-21 38.5v37q4 2 15 7t17 8l4 8q4 1 17 10q3 -1 9 -4 t9 -4q11 4 11 24q8 1 16 -7.5t14 -10.5q-1 4 -2 12.5t-2 12.5q8 -2 8 -12t2 -13q34 -16 76 -35q0 -14 15 -28.5t16 -16.5q2 -7 8 -37q11 -37 14 -45q8 -17 21 -65q2 -8 7 -24.5t7 -24.5q6 -21 18.5 -64t18.5 -65q1 -5 2 -16t2 -17q3 -13 8 -25q-2 -10 2 -39.5t-2 -40.5 q3 -3 9 -6q-1 -9 -3.5 -28.5t-3.5 -28.5q0 -2 1 -6t1 -6q0 -3 1.5 -9.5t1.5 -9.5q0 -106 -3 -141q-4 -99 -14 -150q-5 -26 -9.5 -76t-6.5 -65q-15 -103 -19 -123q-2 -14 -11 -39t-11 -35q-5 -18 -19.5 -50t-17.5 -40q-1 -3 -9 -28t-14 -39q-8 -24 -22 -52q-5 -8 -12.5 -18 l-10.5 -14q-14 -24 -34 -29q-4 1 -9 4.5t-6 3.5h-4q-8 -6 -28 -6h-19q-3 -1 -10 -6t-10 -6h-33q-4 0 -64 6q-4 0 -13.5 3.5t-14.5 2.5q-10 -2 -21 0.5t-23.5 7.5t-19.5 6q-17 5 -24 7q-24 18 -29 22q-4 2 -33 14q-1 1 -4 2.5t-4 2.5q-8 9 -25.5 26.5t-25.5 26.5 q-6 7 -18.5 22.5t-18.5 22.5q0 12 -2 18q-7 5 -11.5 13.5t-7.5 19.5t-6 16q-9 22 -22 70q-15 54 -15 88q-1 20 -3 43t-5 50t-4 44v47q8 73 18 109q2 10 6 20.5t11 24.5t10 21zM545 -23q-13 0 -15 -8q12 -6 15 8z" />
<glyph unicode="K" horiz-adv-x="1011" d="M352 717q58 -54 84 -80l123 -135q20 -22 61 -66.5t62 -66.5q3 -3 24 -27.5t33 -36.5q15 -15 43 -39q14 -14 40.5 -41.5t39.5 -42.5q5 -5 22 -23t25 -28q27 -32 31 -49q3 -13 29 -59l2 -3q-7 -10 -11 -12t-16 -2q-11 -28 -12 -33q-2 -6 2 -18q4 -33 -8 -49q-11 -20 -39 -6 q-44 20 -86 69q0 2 -4 2q0 -1 -1 -3t-1 -3q2 -2 2 -10q-6 5 -18.5 13t-16.5 12q-26 22 -41 20q-5 -3 -14 6q-12 12 -35 34.5t-41.5 41t-34.5 35.5q-98 114 -168 200q-71 87 -141 152q-23 24 -72 70q-8 4 -14 8q0 -3 -1 -9t-1 -8l6 -72t6 -73q1 -15 4 -60.5t6 -70.5 q2 -16 -2 -44.5t-4 -39.5q1 -14 -4 -86q-9 -68 -6 -135q0 -15 -2 -21q0 -6 -8 -14q-27 -13 -52 -4q-12 4 -16 4q-29 -6 -47 12q-5 5 -18.5 11.5t-14.5 7.5q-38 22 -31 80q4 20 2 30q-7 55 0 138v77q-1 25 -3 74.5t-3 73.5v121q0 17 1 36.5t2.5 43t2.5 36.5q10 129 11 162 q0 94 -2 141q-6 97 -15 185q-12 102 -12 203q0 13 6.5 35.5t7.5 29.5q5 -1 13 0t13 0t9 -6q5 5 29 25v-19q6 -5 10.5 1.5t7.5 6.5q8 -1 12.5 -13.5t6.5 -14.5q2 2 4.5 5.5t3.5 4.5q5 -2 8 -4t4.5 -4.5l7.5 -12.5q3 0 7 4q15 -27 30 -57q2 -49 6 -151q1 -15 2 -44.5t2 -44.5 q0 -13 5 -106q1 -12 2 -35.5t2 -34.5l4 -16q19 14 20 16q51 45 103 111q25 33 77 82q80 75 105 113q34 57 88 67h12h17q31 8 48 5.5t48 -13.5q3 -1 6.5 -5t7.5 -10t8 -10q-1 -2 -1.5 -5.5t-1 -9t-1.5 -9.5q0 -1 -1 -5t-1 -5q5 -11 5.5 -15.5t-3 -15.5t-4.5 -15q0 -6 -4 -10 q-9 -5 -16 -14.5t-14.5 -22t-12.5 -18.5q-82 -113 -123 -180q-16 -25 -55 -60q-14 -14 -86 -82q-21 -21 -25 -24q-6 -6 -14 -10q-21 -5 -33 -33z" />
<glyph unicode="L" horiz-adv-x="911" d="M102 1423q10 -23 33 -26q30 -6 33 -43q3 -27 12 -51q30 -100 49 -279q12 -105 23 -260v-88q-2 -41 -2 -119q-1 -14 -3 -40t-3 -40q-8 -98 -4 -147q4 -47 14 -70q18 -4 51 4q184 41 242 53q57 9 110 15q78 12 80 12q15 4 35 -8q16 -12 33 -14q1 -3 0 -6.5t0.5 -7.5t5.5 -7 q2 -1 2.5 -3.5t0.5 -7t1 -7.5h16q9 -3 17 -11v-20q5 -4 12.5 -8.5t9.5 -5.5l-10 -15q6 -6 10 -8q-13 -13 -16 -14q-2 -2 -5 -2.5t-7.5 -0.5t-7.5 -1q3 -27 -17 -45q-4 -3 -20 -35q-7 -12 -25 -4q-19 -19 -43 -25q-37 -6 -147 -33q-24 -5 -71.5 -16t-70.5 -16 q-44 -11 -75 -13q-64 -11 -109 -6q-14 4 -27 10q-81 48 -108 119q-3 8 -41 92q-41 90 -35 201q1 26 4 72t5 83.5t3 71.5q2 66 2 195q0 16 -1 34.5t-2.5 41t-2.5 34.5q-3 50 -12 103q-4 34 -14 97t-11 71q-2 19 -7 52t-7 48v41q0 10 2 10q4 3 12.5 8.5t12.5 8.5q12 16 22 14 q5 -1 17.5 4.5t19.5 3.5q1 0 14 4z" />
<glyph unicode="M" horiz-adv-x="1243" d="M1194 123q10 -14 4 -29v-20q-2 -3 -12 -23q-1 -1 -21 -16q-7 0 -23 -1t-26 -1q-7 7 -43 16q-3 0 -7.5 2t-6.5 2q-2 5 -8.5 17.5t-8.5 19.5h-2v21q-4 27 -12 39q-3 5 -8 24q-5 25 -16.5 87t-18.5 95q-4 22 -29 129q-8 35 -24 109q-12 46 -21 96q-21 98 -34 170 q-5 25 -14.5 76t-14.5 76q-5 15 -6 20q-6 -9 -6 -12q-2 -8 -12.5 -57t-16.5 -74q-2 -9 -5 -26.5t-5 -26.5q-11 -66 -27 -140q-11 -71 -20 -108q-3 -17 -10.5 -51t-10.5 -52q-6 -31 -14 -96q-3 -21 -6 -45q-3 -7 -9 -22t-8 -19q-23 -4 -33 -14q-6 -8 -24 -4q-2 2 -6 5t-6 5 q-21 0 -45 4q-25 9 -25 31q-4 12 -6 16q-11 11 -19 39q-5 15 -15 45.5t-15 46.5t-14.5 50t-14.5 51q-24 83 -68 198q-1 3 -53 121q-4 9 -26 39q-3 -12 -5 -18q-9 -68 -14 -95l-12 -69q-2 -10 -8.5 -30t-8.5 -30q-3 -15 -9.5 -42.5t-11.5 -50t-9 -42.5q-8 -35 -31 -151 q-4 -21 -12 -60.5t-11 -54.5q-8 -45 -24 -131q-2 -10 -27 -45q-2 -3 -8 -9.5t-8 -9.5q-14 -4 -19 -6q-5 1 -15.5 2t-16.5 2q-15 23 -17 25q-12 6 -24 10q-1 3 -5.5 11t-5.5 10v2l-6 6q-19 15 -10 41q7 27 14 67q3 20 12 75.5t13 86.5q13 75 37 174q9 37 28.5 110.5 t28.5 110.5q19 76 23 101q4 17 8 55q2 17 5 53t5 53q8 34 10 56q1 9 2.5 29t2.5 30q4 54 12 72q1 1 2 3t2 3q13 16 10 39q8 12 10 16q3 1 8 2t7 2q14 6 28 0q6 -3 20 -7t21 -7q7 -14 19 -35q14 -8 20 -30q10 -23 23 -46q61 -127 108 -217q38 -83 43 -96q15 -35 27 -72 q28 -76 29 -79q7 -14 8 -17q2 1 8 21q19 65 23 104q3 20 11 60.5t11 60.5q5 24 14.5 71t14.5 70q17 108 18 113q9 51 15 106l12 93q0 6 4 14q0 4 4 20q1 1 6 11h14l21 14q0 -2 2 -2q1 3 2 3.5t2 0.5t3 1.5t3 4.5h13q3 -4 9 -3.5t9 -2.5q2 0 5.5 1t4.5 1q6 -2 18.5 -5 t18.5 -5q5 -2 15.5 -8.5t15.5 -8.5q0 1 8 5q7 -7 10 -13v-4q-6 -26 4 -55q18 -79 33 -137q8 -31 26 -87t23 -71q8 -18 15 -47q1 -4 4 -12.5t4 -12.5q1 -3 2 -11.5t2 -12.5q2 -7 7 -29t7 -35q2 -12 5 -37t5 -37q1 -3 2.5 -10t2.5 -10q4 -38 16 -102q1 -6 4.5 -28t3.5 -34 q3 -28 33 -139q4 -17 11 -49.5t11 -48.5q27 -101 29 -109q4 -16 11.5 -49.5t11.5 -50.5q4 -22 16 -74q8 -29 0 -45z" />
<glyph unicode="N" horiz-adv-x="944" d="M795 1352q-5 -18 10 -23q16 -6 22 -22q3 -4 10.5 -10.5t10.5 -10.5q6 -6 6 -12q4 -12 4 -17q8 -31 19 -40q2 -1 2 -15q0 -21 2 -31q8 -31 4 -94l-6 -123q-5 -73 -5 -90q-3 -70 0 -141q1 -24 3.5 -71t3.5 -70q2 -14 2 -39q1 -16 2.5 -44.5t2.5 -52t1 -43.5q1 -19 2 -54.5 t2 -53.5q6 -169 6 -170q4 -53 0 -80q0 -8 2 -12q6 -23 -16 -35q-2 -2 -6.5 -6t-6.5 -6q-1 -1 -6 -8t-8 -9q-12 -9 -29.5 -7.5t-29.5 13.5q-24 28 -39 43q-3 3 -10.5 8.5t-10.5 8.5q-4 2 -12 10q-7 12 -23.5 37t-23.5 37q-18 34 -55 100t-56 100q-12 23 -36.5 72t-38.5 74 q-9 18 -28 52.5t-28 51.5q-7 15 -24.5 40t-24.5 40q-4 10 -15 27t-14 24q-8 18 -45 59.5t-45 61.5q-1 2 -5 10.5t-5 12.5q-1 0 -3 -1t-3 -1v-29q0 -6 1 -18.5t1 -18.5q-5 -86 6 -211q1 -27 3 -83t3 -83q0 -19 -0.5 -54t-0.5 -64t1 -54q3 -43 -4 -98q-1 -9 -5 -27.5t-5 -27.5 q0 -40 -16 -64q-11 -18 -25 -24q-5 -3 5 -5q2 -1 6 -1q6 -2 6 -2.5t-3 -0.5q-4 -12 -4 -18q-6 0 -17 -1t-16 -1q-4 5 -15 16t-17 21t-8 22q-3 -1 -8.5 -3t-8.5 -3h-14q-9 13 -31 39q-2 0 -7 -1t-7 -1q-15 5 -13 14q4 17 -16 37q4 16 -4 47q-2 10 -4 32.5t-4 33.5 q-15 84 -19 240q-4 78 -4 116q-1 17 0 51t0 52q-1 28 2 85.5t2 86.5q0 12 -1 25.5t-2.5 29.5t-2.5 25q-11 104 -4 170q4 80 8 122q0 28 23 31q8 0 14 6q7 5 14 15q2 4 23 57q2 0 2 2h4q9 -4 12.5 -5t6.5 1.5t6 9.5q4 8 8 12q3 -7 10 -10v-4q7 -14 11.5 -16t19.5 2 q13 4 63 -6q4 -7 17.5 -16t17.5 -15q20 -22 64 -45q15 -7 18 -21q11 -29 49 -145q5 -13 11.5 -35.5t13.5 -41.5t16 -34q3 -6 10.5 -18t10.5 -18q8 -15 25.5 -43.5t25.5 -42.5q35 -68 41 -82q6 -17 17 -50.5t16 -48.5l12 -30q7 -13 21.5 -39t21.5 -39q0 -1 14 -19v64 q-4 90 -4 131q0 86 2 129q3 44 6 90q1 29 3.5 89t3.5 89q5 58 8 72q3 12 4 26.5t1 31.5t1 26q4 50 16 65q14 17 27 17q10 0 16 2q24 5 27 4.5t24 -10.5h2h7z" />
<glyph unicode="O" horiz-adv-x="759" d="M426 41q-5 -9 -8 -4q-7 7 -17 2q-12 -1 -33 -4t-32 -4q-43 -7 -74 8q-12 5 -53 31q-9 6 -27 19.5t-20 14.5q-11 9 -22 21.5t-17 21t-18.5 27t-16.5 23.5q-2 3 -11 15.5t-14 20.5q0 1 -3.5 5.5t-3 7t4.5 8.5q2 4 0 4q-6 6 -5.5 19t-0.5 20q-1 2 -1.5 3.5t-1 4t-1.5 4.5 q-8 -4 -10 -6l-2 2q5 10 -4 19q-8 12 -10 18q-20 61 -23 137q-6 86 6 172q2 23 23 187q3 18 8 52.5t8 51.5q2 14 7 38t7 34q4 18 11.5 53.5t11.5 54.5q2 10 5 21.5t7 25t6 21.5q2 6 6 10.5t11 8.5t8 5q6 3 8 5q2 -2 6 -6.5t6 -6.5q7 21 11 29h2q0 -12 -2 -18q12 -6 12 8 q2 18 23 35l36 24q11 7 11 23q-5 0 -13 4l2 4q48 27 78 31q12 0 27 -3q28 -9 55 3q6 3 12 0q53 -24 91 -80q12 -18 36 -47q18 -23 25 -33q37 -52 94 -160q7 -14 25 -70q2 -2 2 -8q23 -46 31 -127q16 -140 12 -209q-4 -104 -19 -159q-1 -5 -4 -12t-4 -9q0 -2 -3.5 -9.5 t-4.5 -12.5q-4 -29 -16 -41q-4 -8 -4 -13q-5 -13 -14.5 -36.5t-14.5 -36.5q-5 -11 -18.5 -32.5t-18.5 -33.5q-6 -12 -14.5 -25t-14 -20t-18.5 -22t-17 -19q-1 -1 -4.5 -6t-5.5 -7.5t-6 -5.5t-7.5 -4.5t-8.5 -1.5q-3 -6 -7.5 -10.5t-11.5 -9t-10 -6.5q-7 -5 -21.5 -15.5 t-21.5 -15.5q-4 -4 -4 -8h2zM551 723q-2 6 -2 18q-4 24 -4 39q-3 80 -27 150q-19 51 -59 119q-10 15 -10 18q0 8 -3 12.5t-8.5 8.5t-7.5 6q-10 12 -29 8q-29 -3 -53 -21q-12 -6 -14 -6q-5 -1 -35 -6q-11 0 -14 6q-6 12 -15 -2q-1 -3 -3 -8t-3 -8q-19 -74 -26 -92 q-12 -34 -19 -91q-9 -57 -26 -184q-2 -13 -8 -48.5t-7 -55.5q-4 -114 -4 -176q0 -50 16 -103q18 -68 64 -76q4 0 4 -2q20 -15 49 -8q20 6 62 27q4 4 8 6q4 6 14 16q4 5 21 23.5t26.5 31t16.5 27.5q50 97 59 135q5 21 4 23q-2 9 2 20q24 93 25 115q1 14 3 39.5t3 38.5z" />
<glyph unicode="P" horiz-adv-x="925" d="M207 61q-17 25 -17 37q0 5 -3.5 14t-4.5 11q-7 82 -4 147q1 32 9 132t8 155q2 133 2 401q0 30 -1 89t-1 88v79q0 7 -3.5 20.5t-3.5 16.5q-11 -1 -29.5 8t-27.5 5q-19 -9 -27 -11q-42 -10 -73 33q-14 20 -25 45q-3 9 -4.5 14.5t0 12t2 8t6.5 10.5t8 13q4 5 12.5 15 t12.5 15q6 7 12 11.5t15.5 8t14 4.5t17 3.5t15.5 3.5q2 1 7.5 1t8.5 1q49 16 115 16q1 0 94 -6q31 -2 119 -24q34 -11 88 -37q31 -15 74 -39q4 -2 11 -7t11 -7q87 -57 117 -91q31 -31 49 -63q39 -64 59 -131q3 -9 13 -59q2 -23 2 -66q-2 -19 -27 -64q-15 -24 -21 -33 t-18.5 -20.5t-30.5 -21.5q-28 -15 -58 -28t-75.5 -30t-58.5 -22q-8 -3 -21.5 -8t-24.5 -8.5t-20 -6.5q-20 -6 -60 -10t-60 -10q-19 -4 -24 -14.5t-7 -34.5q-2 -17 -12 -54t-11 -57q-2 -33 -6 -97t-6 -97q-3 -49 0 -101q3 -48 -2 -84q-6 -37 -4 -65q0 -13 -4 -17 q-4 -1 -1 -12.5t3 -15.5q-4 -11 -12 -7q-2 1 -7 4.5t-8 5t-7.5 3t-8.5 0.5q-2 0 -6 4q-2 1 -8.5 4.5t-8.5 5.5q-8 7 -27 11t-22 5q-2 0 -7 -1t-7 -1zM387 1237q0 -1 -15 -8q-6 -3 -1 -4q2 3 7 6t8 4.5t1 3.5q5 -3 -3 -12.5t-5 -12.5q6 -5 6 -12.5t-2.5 -17t-1.5 -15.5 q0 -4 2.5 -14t1.5 -16q-2 -17 -7 -55.5t-7 -59.5q-2 -28 -9 -66q-4 -42 -8 -61q-1 -8 12.5 -19.5t26.5 -17.5q16 -7 53 4q162 31 224 58q37 18 49 26q18 9 18 25q-2 8 -2 26q-3 30 -36 77.5t-62 74.5q-37 37 -129 76q-48 23 -107 26q-12 0 -20 -8q2 -4 6 -8z" />
<glyph unicode="Q" horiz-adv-x="1280" d="M989 -31q3 -2 9.5 -7t9.5 -7q59 -45 100 -74q16 -12 16 -24q0 -4 9 -13q12 -15 4 -34q-1 -3 -4.5 -9t-5 -11t-1.5 -9q0 -18 -22 -33q-13 -13 -14 -20q-2 -8 -11 -13t-18 -2q-5 0 -17 4q-13 5 -38 15.5t-37 15.5q-6 3 -20 9.5t-25 12t-19 11.5q-7 4 -55 47q-18 18 -19 20 q-13 10 -24 7q-5 -2 -15.5 -5.5t-15.5 -5.5q-102 -26 -143 -26h-17q-84 -16 -182 32q-4 1 -17 7.5t-20 7.5q-42 12 -88 51q-69 52 -139 158q-19 27 -76 121q-35 55 -59 137q-4 14 -7 30t-5.5 35.5t-4.5 30.5q-4 42 -8 59q-12 60 -8 154q1 8 4 24.5t4 24.5q6 33 18.5 98.5 t18.5 98.5q8 40 31 84q7 14 18.5 41.5t18.5 40.5q47 101 80 141q2 3 30 31q7 6 21.5 17.5t21.5 17.5q21 17 61 52.5t60 53.5q7 6 64 41q26 18 39 23q12 5 61 20q6 2 18.5 5t18.5 5q53 14 96 6q1 -1 4.5 -1.5t6 -1.5t3.5 -3q5 -5 12 -8t13 -4.5t15.5 -3t13.5 -2.5 q27 -4 75 -37q15 -12 39 -41q16 -18 39 -49q67 -94 90 -176q19 -65 70 -133q5 -8 27 -52q4 -7 11 -21.5t11 -21.5q25 -44 27 -47q1 -1 2 -4t2 -4q13 -11 25.5 -39t19.5 -37q6 -6 16 -45q2 -6 19 -84q19 -86 6 -157q-15 -83 -43 -170q-28 -74 -43 -105q-10 -21 -33 -57 t-29 -47q-19 -27 -26 -47q-14 -36 -60 -82l-3 -4q-3 -4 -5 -5q0 -4 -2 -8zM627 336q2 -1 7 -3t7 -3q15 -2 27 -19q2 -4 7 -11t7 -11q32 -42 41 -56q20 -38 70 -96q13 -16 28 -26q12 -6 16.5 -5t10.5 13q5 6 13 20.5t13 20.5q56 76 99 200q7 19 15.5 54t12.5 47 q26 106 19 176q-6 61 -25 127q-17 48 -20 67q-17 82 -64 164q-64 108 -80 152q-12 31 -34 76q-23 47 -68 61q-2 0 -31 12q-6 2 -21 7.5t-24 7.5q-20 4 -24 14q-2 3 -11 8q-27 6 -30 41q-4 -2 -14.5 -5t-14.5 -5q-7 -4 -22.5 -12.5t-22.5 -12.5q-61 -37 -90 -75 q-10 -13 -23 -23t-39 -30.5t-40 -30.5q-37 -33 -52 -62q-8 -15 -23.5 -44.5t-23.5 -43.5q-2 -5 -10.5 -18t-11.5 -21q-16 -35 -33 -82q-2 -5 -11.5 -32.5t-11.5 -42.5q-1 -16 -9 -77.5t-7 -94.5q0 -11 -1.5 -44.5t-0.5 -52.5q0 -32 10 -47q6 -9 12 -26t9 -23q15 -34 22 -84 q2 -13 15 -25q5 -7 17 -20.5t17 -20.5q23 -28 45 -65q70 -102 113 -145q58 -54 121 -62q51 -7 125 -4l12 6q-11 21 -20 33q-42 61 -54 106q-4 24 -4 37q0 42 2 62q0 18 6 22q10 10 13 23l10 10q3 -1 11 -9.5t16 -6.5q0 6 2 10z" />
<glyph unicode="R" horiz-adv-x="880" d="M133 -63q-8 -3 -14 0q-12 9 -27 6l-14 14q-3 1 -12 2t-13 2q1 6 2 17.5t2 17.5q-6 0 -22 4q-6 18 -2 59l-2 2l2 -2q-4 4 -4 11v24q2 0 4 -2q2 4 0.5 10.5t-0.5 8.5v26l6 117q4 82 6 125q4 79 2 121q-1 20 -1 107.5t-3 135.5q0 2 -2 17.5t-4 23.5q0 1 -10 31q0 2 2 6 q7 17 4 37q-1 16 -3 49t-3 49v15q-4 14 -5 28.5t0 39t1 30.5q1 3 10 21h-15q0 4 -1 11.5t-1 10.5l-3 51l-3 51q0 47 -2 72q0 22 -4 76q0 3 -1 10.5t-1 11.5q0 2 1 7t1 6q0 10 -4 30q2 2 5 6.5t5 6.5v16h2q2 7 7.5 23t7.5 26q6 2 17 5.5t17 5.5q2 2 5.5 7t5.5 7q-1 6 -8 7 t-9 3l8 8q3 9 7 17h2q1 -1 0 -1q-1 1 -2 1q39 15 112 26q64 8 144 -2q28 -4 41 -4q12 -2 32 -6q3 -2 9.5 -5t9.5 -5q4 2 12 0.5t11.5 -3t11 -5.5t10.5 -5q42 -21 57 -38q5 -5 8 -5q22 -3 25 -24q8 -4 12 -8q6 -8 17.5 -24.5t17.5 -24.5q21 -11 27 -33q0 -12 10 -17q4 0 8 -2 q-6 -6 -6 -8q-3 -10 6 -10q3 -5 8.5 -15.5t8.5 -15.5q-6 -11 4 -16q0 -2 -1 -7t-1 -8q4 0 8 -4q7 -11 0 -20h2q1 -9 6 -59q6 -64 -8 -123q-1 -5 -6 -35q-6 -39 -25 -70q-9 -7 -18 -24.5t-11 -20.5q-20 -25 -24 -29q-32 -37 -51 -45q-7 -4 -15 -9t-18 -11.5t-15 -9.5 q-8 -6 -18 -4q-18 -13 -25 -17v2q-8 -4 -24 -8q-7 -2 -25 -8t-31 -9.5t-26 -4.5q-1 0 -3 -1.5t-3 -1.5q-35 -13 -45 -16q-3 -9 6 -18q36 -32 59 -58q7 -8 20 -21.5t23.5 -25.5t18.5 -24q4 -6 15 -17.5t15 -17.5q56 -70 60 -76q8 -10 23.5 -29.5t23.5 -29.5q7 -11 29 -37 q40 -50 47 -60l6 -6q11 -10 31.5 -35t33.5 -36q1 -1 37 -43q38 -38 56 -58q25 -25 36 -47v2q11 -7 9 -14q-1 -2 -5 -7t-6 -8q0 -6 -3 -13t-5.5 -10.5t-9 -12t-8.5 -11.5q-2 1 -5 3.5t-5 3.5q-1 -1 -2.5 -3t-3 -3.5t-3.5 -2.5q2 -1 4 -4t2 -4l-2 -2q-12 0 -18 -2 q-2 -1 -16 -10q-12 4 -19 4q-72 55 -145 147q-13 16 -33 47q-3 5 -10 9q-2 4 -6.5 12t-6.5 12q-4 2 -12 2q-17 14 -24 43q-1 0 -5 1t-6 1q-4 5 -12 15.5t-15 19.5t-12 17q-2 4 -6 16q-4 6 -8 18q-3 1 -8 3.5t-8 3.5q0 4 -4 12q-9 5 -17.5 13.5t-12.5 14t-12.5 18.5t-11.5 17 v-2q-6 7 -18 20.5t-18 20.5l-101 101q-3 2 -9 7t-9 7q-6 -3 -6 -19v-86q0 -19 0.5 -54t0.5 -64t-1 -54q0 -31 -7 -71q-8 -62 -8 -92q0 -18 -4 -58q-2 -25 -2 -74q0 -10 -4 -14v-4v4l6 -12q2 -10 2 -29q-5 -10 -14 -37q-8 -16 -14 -24q-3 -5 -21 -10h2zM31 1008v-2v2z M479 1059q24 21 37 53q22 51 25 111q0 10 -2 16q-1 8 -5.5 23.5t-5.5 23.5q-9 35 -32 55q-44 35 -70 45q-48 21 -125 25q-27 2 -82 -2q-4 0 -22 -6q-5 -1 -14.5 -4t-14.5 -4l-8 -4q-9 -4 -13 -9q1 -24 11 -163q2 -27 6 -83t6 -83q10 -138 14 -162q2 -1 3.5 -2.5t2.5 -1.5 q27 0 39 4q24 5 56 16q10 4 29.5 12.5t29.5 12.5q2 1 5 3t5 3q0 1 -1 2t-1 2q-23 0 -33 2q7 3 20.5 10.5t20.5 10.5q36 18 54 26q4 4 8 6q11 11 16 13q14 6 49 37q1 1 3 4.5t4 5.5q-11 0 -15 2zM438 920q3 10 1 13t-13 3q-6 -6 0 -14q3 -6 12 -2zM14 1276v-2q0 2 2 2h-2z M487 848v2v-2z" />
<glyph unicode="S" horiz-adv-x="690" d="M0 285q38 21 49 28q2 4 0 15.5t0 17.5q3 7 -12 37q-6 14 -1.5 23t19.5 8q6 0 10 5.5t5 6.5q4 -3 12 -8t12 -8q66 -49 133 -52q65 -4 90 2q101 28 119 127q1 17 1 23t-2 23t-3 24q-9 7 -16 27.5t-15 27.5q-15 14 -88 68q-7 5 -26.5 19t-29 21.5t-25 20t-27.5 25t-23 25.5 q-32 44 -55 79q-6 9 -10 21q-33 81 -39 104q-22 80 -25 113q-6 58 -6 119q0 91 51 159q11 16 11 17q17 50 81 67q17 5 43 5q15 -2 56 12q6 2 12 2q38 -4 55 -8q27 -6 56 -6q20 1 41.5 -4.5t46.5 -14.5t39 -12q5 -1 10.5 -4.5t12 -10t9.5 -8.5q-2 -11 9 -25.5t12 -19.5 q4 -8 0 -12q-5 -12 8 -29q-9 -32 -14 -45l-16 4t-19 4q-3 -22 14 -34q-10 -1 -28.5 -3.5t-28.5 -3.5q-1 -1 -3.5 -6t-4.5 -8q-7 1 -18 4t-15 4q-66 15 -107 6q-4 -1 -15 -3t-18.5 -4.5t-13.5 -6.5q-19 -15 -24 -22q-61 -104 -23 -220q2 -8 5 -14.5t8.5 -14t8.5 -11.5 t12 -11.5t11 -9.5t13 -10.5t12 -9.5q70 -49 98 -70q1 -1 3 -2t3.5 -2.5t1.5 -3.5q2 -9 8 -14.5t16.5 -10.5t14.5 -8q36 -33 56 -61q8 -10 19.5 -31.5t16.5 -28.5q33 -51 43 -96q0 -2 17 -41q10 -20 6 -29l-2 -6q7 -10 9.5 -22.5t2 -21t-3 -23t-2.5 -21.5q-1 -11 -27 -63 q-5 -11 -14 -41q-33 -117 -104 -162q-56 -34 -74 -39q-5 -1 -19 -4t-22 -4q-5 0 -46 -7.5t-63 -1.5q-6 2 -18 2t-16 1q-14 3 -39.5 6t-46.5 7t-39 11q-9 4 -27 17q-48 54 -51 57q-9 9 -6 24q3 10 -4 17q-15 23 -27 37zM221 1462q-28 0 -33.5 -2.5t-9.5 -19.5q2 1 10.5 2.5 t13 3t10 6t9.5 10.5zM641 440h-8q0 -3 -1 -8.5t-1 -7.5q2 -2 6 -2q1 3 2 9t2 9z" />
<glyph unicode="T" horiz-adv-x="1239" d="M39 1458q11 0 28.5 -0.5t31.5 -0.5t26 1q13 0 36.5 3.5t31.5 4.5q9 1 26 1t25 1q197 0 338 5q30 0 200 10q33 1 99 2t100 2q35 3 72 6q53 0 67 -25q17 -28 49 -28q3 0 11 -4q-4 -16 -4 -23q-6 -29 12 -47q14 -14 8 -33q-11 -17 -12 -20q-10 -27 -37 -27q-8 0 -24 -1 t-25.5 -1.5t-23 -2t-25.5 -5.5q-13 0 -19 2q-12 4 -33 0q-16 -3 -32.5 -5t-36.5 -4t-31 -3q-35 -6 -68 -6q-12 -1 -33.5 -2.5t-33.5 -2.5h-25v-14q2 -16 2 -45q0 -43 2 -63q2 -28 7.5 -84.5t7.5 -85.5q5 -49 14 -168l12 -177q11 -180 11 -296q0 -18 -3.5 -102t-3.5 -128 q0 -67 -4 -102q-5 -33 -41 -51q-1 -1 -5 -1t-5 1q-14 10 -47 14q-7 0 -10 6q-18 23 -19 27q-10 17 -22 22q-4 2 -8 10q-20 45 -23 54q-4 12 -4 39q4 130 8 194q6 82 -14 178q-15 69 -21 146q-4 33 -20 104q-33 114 -39 172q-1 11 -1 33.5t-1 32.5l-6 57l-6 57 q-4 26 -12 75.5t-11 68.5q-2 11 -5 13.5t-15 2.5q-41 2 -123 2q-18 -4 -29 10q-7 7 -14 7q-50 4 -72 4q-71 0 -106 2q-43 3 -68 35l-10 10q-15 15 -17 28q-2 6 -12 27q-7 28 4 47q1 2 8 9.5t7 13.5q0 1 2 2t2 2q15 0 12 14z" />
<glyph unicode="U" horiz-adv-x="720" d="M678 492q3 -7 0.5 -43t-2.5 -43v-21q0 -25 -4 -37q-4 -9 -4 -43q-1 -15 -3 -46t-3 -46q-7 -45 -25 -78q-24 -41 -51 -78q-40 -46 -88 -71l4 8q-4 1 -19 -4q-20 -7 -34 -2q-8 2 -27 2q-91 6 -92 6q-42 3 -82 18q-40 14 -58 43q-40 63 -57 162q-2 15 -8 42t-8 42 q-8 54 -8 78q-3 62 -3 125q-4 73 -14 108q-18 88 -24 181q-2 21 -5.5 60t-5.5 60q-2 10 -10 35q-3 17 -9 53l-9 54q-6 30 -6 33q-5 32 -3 45q1 8 -0.5 23t-1.5 20q-2 14 -2 43q0 18 -4 22q-2 2 -2 8q3 40 -8 95q-3 22 6 40q1 4 3 12.5t3 12.5v2q7 5 16 21t15 22 q9 -31 14 -43q2 3 5 6.5t4 5.5q22 -40 30 -49q32 -35 41 -67q0 -7 6 -19q3 9 5 13v-3q1 -6 3 -17t3 -17q8 -117 14 -170q1 -16 5 -46t5 -46l6 -93q1 -28 2 -82t2 -81q1 -16 5.5 -49.5t5.5 -51.5q2 -9 4 -33t2 -28q7 -30 21.5 -89t21.5 -89q4 -17 6.5 -49.5t5.5 -45.5 q3 -12 8.5 -33.5t9 -39.5t5.5 -35q3 -15 26 -15h21q13 1 39.5 1.5t40.5 1.5q1 0 9 -1t16 -0.5t16 3.5q4 0 4 8q2 13 13.5 46.5t12.5 51.5q1 12 6.5 59.5t6.5 73.5q1 20 0.5 75t1.5 75q0 14 -2 40t-2 38q0 106 -2 157q-1 27 -11 127l-6 105q-6 106 -33 211q-1 6 -6 28.5 t-7.5 38t-2.5 31.5q3 27 6 57q10 0 12 -2q2 28 8.5 37t34.5 18q5 -2 15.5 -5t15.5 -5q0 -4 2 -6l2 -2q15 4 21 -8q4 -4 16 -12q6 -3 10 -11q0 -4 4 -4q9 0 13 -12q8 -27 10 -45q3 -6 0 -12q-5 -9 0 -37q3 -16 12 -61t13 -70q0 -1 6 -47q6 -41 14 -123q17 -138 18 -152 q1 -31 6.5 -89t6.5 -71q7 -59 4 -106q-5 -42 2 -100z" />
<glyph unicode="V" horiz-adv-x="946" d="M803 1364l8 -16q1 0 11 4t14 8q4 3 12 29q4 -16 4 -19q3 -8 4 -9t9 -2q3 -1 5 -1q15 -4 19 -12q2 -3 -2 -25q1 -1 4.5 -8.5t5.5 -12.5q0 -1 1 -4t1 -4q-3 -10 -3 -14.5t3 -14.5t4 -14q0 -25 -2 -30q-17 -65 -22 -119q0 -4 -3.5 -12.5t-3.5 -12.5q-1 -12 -3 -33t-3 -32 q-2 -14 -6 -41.5t-6 -42.5q-4 -46 -8 -66q-3 -18 -10.5 -52.5t-10.5 -51.5q-2 -13 -4 -39.5t-4 -40.5t-12 -76q-8 -40 -8 -59q2 -39 -15 -125q-5 -25 -17 -79t-17 -83q-5 -19 -10.5 -54.5t-6.5 -43.5t-5 -23.5t-5 -23.5q0 -9 4 -29q7 -23 4 -45v-4q-10 -10 -10 -45 q0 -40 -33 -60q-15 6 -20.5 4t-10.5 -16q-6 -12 -6 -25q0 -20 -12 -26q-11 -4 -23 8q-8 8 -12 14q-23 -5 -41 23q-26 43 -33 72q-5 16 -15 46t-15 46q-20 55 -59 162.5t-58 162.5q-41 120 -84 240q-8 21 -27.5 58.5t-21.5 41.5q-86 172 -127 258q-14 30 -39.5 90t-38.5 89 q-5 10 -16.5 28.5t-14.5 24.5q-1 1 -4 4.5t-4 5.5l-2.5 5t-0.5 6.5t3 6.5l2 5q-5 16 1.5 42t6.5 29v12q3 1 8.5 4.5t6.5 4.5q-1 3 -2 8t-2 8q34 15 34 43q3 3 13.5 5.5t11.5 10.5q8 0 12 -2q1 4 2 11.5t2 11.5q4 -4 11 -12t10 -11q1 0 2 1t2 1q-3 9 -6 21q20 -3 35 -18 q27 -27 30 -29q1 2 2 6t2 6q2 0 2 -2q19 -30 33 -49q4 -6 21 -10q5 -2 13.5 -5t10.5 -4q3 -4 11 -14.5t10 -15.5q3 -8 9 -23.5t9 -23.5q12 -52 53 -148q6 -15 15 -45q6 -18 19.5 -55t19.5 -55q6 -22 16 -50q8 -28 35 -108q33 -87 43 -109q13 -34 67 -153q3 -8 8.5 -25.5 t8.5 -25.5q7 -14 12 -29q20 28 29 59q27 112 31 180q0 30 12 84q11 46 22 127q14 84 29 144q12 59 18 117q1 14 15 67q3 13 28 100q1 3 7 11t8 12z" />
<glyph unicode="W" horiz-adv-x="1343" d="M8 1395q-10 16 -4 30v23q2 4 6.5 13.5t5.5 11.5q4 3 12.5 9t12.5 9q33 0 51 2q9 -9 49 -18q3 0 8 -2.5t7 -2.5q6 -14 18 -38h2v-25q0 -24 12 -41q5 -8 9 -27q13 -73 39 -198q2 -10 30 -137q15 -58 27 -117q16 -70 22 -105q7 -36 20 -101l17 -85q14 -77 33 -164 q0 -7 6 -22q6 12 6 14q5 24 15.5 71t15.5 70q2 9 5 29t5 29q26 132 29 151q4 20 11 60t11 59q5 21 14 59.5t11 48.5q6 37 14 107q1 7 3.5 23t3.5 26q3 6 18 41q24 8 35 19q8 8 26 4q2 -2 7 -6t6 -5q30 -3 51 -6q24 -9 27 -33q0 -10 6 -16q9 -10 18 -43q21 -57 33 -100 q5 -16 10.5 -35t11.5 -40.5t9 -33.5q42 -136 75 -215q9 -26 30.5 -74t25.5 -57q7 -13 30 -43q1 4 2 11t2 10q5 44 15 102q2 14 7 39.5t7 36.5q14 48 17 63q23 93 34 148q16 69 33 161q4 21 12.5 63.5t12.5 63.5q4 23 13 70.5t13 71.5q1 6 5 13t7 11.5t9 12t8 10.5q2 4 18 20 q12 3 21 6q5 0 16 -1t17 -1q3 -4 9 -13.5t9 -14.5q3 -1 13.5 -5.5t13.5 -5.5q4 -6 12 -22v-2l6 -6q20 -20 12 -45q-8 -24 -16 -72q-13 -79 -27 -176q-11 -70 -38 -191q-9 -36 -31 -115.5t-33 -121.5q-4 -18 -12.5 -55t-12.5 -56q-3 -15 -8 -57l-12 -117q-1 -10 -4 -29.5 t-4 -29.5q-1 -3 -6 -66q-4 -54 -15 -75q0 -7 -2 -9q-16 -16 -12 -41l-12 -18q-2 -1 -7.5 -2t-7.5 -2q-15 -6 -32 0q-13 6 -43 14q-9 15 -21 39q-11 6 -22 33q-5 12 -23 49q-105 209 -117 236q-25 46 -47 104q-4 8 -31 76q-5 16 -30 88q-1 1 -2.5 4l-3 6t-2.5 6 q-6 -4 -11 -20q-15 -54 -24 -115q-3 -25 -13 -71.5t-12 -57.5q-2 -14 -29 -156q-15 -75 -22 -118q-7 -42 -14 -119q-2 -17 -6.5 -50t-6.5 -49q0 -4 -4 -16t-6 -20q0 -1 -1 -2.5t-2.5 -4t-2.5 -4.5q-3 0 -7.5 -1t-6.5 -1q-4 -2 -11.5 -7t-11.5 -7l-2 2q-2 -4 -5.5 -5t-4.5 -5 h-17q-3 3 -9 2.5t-9 3.5q-2 0 -5.5 -1t-4.5 -1q-6 2 -20.5 5t-20.5 5t-18 8.5t-15 8.5q-2 0 -8 -3q-2 2 -6 6.5t-6 6.5v4q7 22 -5 61q-16 77 -36 148q-6 25 -15 53.5t-21 63t-18 53.5q-10 41 -14 51l-4 12t-4 15q-1 4 -3 13t-3 13q-2 11 -7.5 34t-7.5 34q-2 14 -6 41.5 t-6 40.5q0 3 -1 10.5t-1 11.5l-18 111q-11 61 -11 65q-2 31 -32 152q-18 66 -27 106q-5 20 -15.5 59t-15.5 58l-24 111q-3 13 -9.5 38.5t-9.5 39.5q0 3 -1.5 11.5t-2 13t0 11.5t3.5 13z" />
<glyph unicode="X" horiz-adv-x="1110" d="M465 928q6 6 6 10q10 37 29 187.5t26 183.5q8 38 39 143q3 8 8 15.5t12.5 16.5t10.5 13q7 7 12 4q17 -5 25 15q1 2 5.5 5t6.5 5q11 -11 27 -23q1 0 2 1t2 1t8.5 5t13.5 1q5 -2 7 -5t1 -10l-1 -7q0 -16 10 -29q11 -25 6 -45q-5 -22 -14.5 -65t-14.5 -64q-5 -22 -15 -68.5 t-15 -68.5q-1 -6 -6.5 -48.5t-10.5 -64.5q-5 -21 -35 -118q-15 -41 11 -74q21 -29 122 -197q126 -201 172 -289q23 -44 71.5 -123t66.5 -112q5 -9 14 -35q1 -3 -0.5 -11t-1.5 -11q-4 -12 -4 -21q0 -11 1 -33.5t1 -34.5q0 -7 -6 -10q-15 -18 -15 -41q0 -16 -8 -24 q-8 0 -19 -1t-16 -1q-1 0 -9.5 2t-12.5 4q-2 1 -47 18q-1 -4 -4 -11t-4 -11q-18 9 -21 12q-117 150 -127 162q-32 38 -75 117t-58 102q-23 35 -78 99.5t-78 101.5q-7 7 -8 10q-4 -6 -8 -14q-12 -36 -34.5 -108t-33.5 -108q-3 -10 -8 -31.5t-8 -31.5q-45 -113 -53 -135 q-3 -7 -25 -70q-8 -16 -14 -22q-1 -2 -8.5 -10t-10.5 -11.5t-7 -11.5t-5 -16q-2 -8 -6.5 -16.5t-11 -18t-8.5 -13.5t-6.5 -11t-6.5 -11q-11 -24 -35 -45q-4 -4 -16 -8q-6 -2 -16 -2q-2 0 -11 -1.5t-12 -0.5q-2 2 -7.5 5.5t-8.5 6t-7 7t-6 9.5q-9 12 -22 25q-14 8 -14 26 q-3 34 10 70q24 74 28 115q6 35 29 61q32 34 43 107q15 94 66 213q17 38 47.5 114.5t46.5 114.5q8 22 -4 43q-14 20 -28.5 43t-32 50.5t-27.5 43.5q-4 7 -24 39.5t-29 50.5q-43 76 -125 224q-44 82 -64 147q-7 21 2 39q4 7 10.5 19t12.5 22t12 18q15 22 39 25q19 0 35 16 q5 4 28 13q20 7 33 -4q6 -3 14 -3q21 9 41 -4q4 -4 7 -10q5 -10 14 -31.5t14 -31.5q15 -32 43 -102t49 -111q13 -41 49.5 -132t49.5 -110q6 -6 8 -10z" />
<glyph unicode="Y" horiz-adv-x="903" d="M184 -133q-4 -6 -10 -12q-33 2 -22 34q8 33 28 95q1 4 3.5 12t4.5 15t5 12q38 106 61 170q10 29 33.5 78.5t31.5 68.5q28 56 60 141q24 59 45 117q10 20 -4 31q-3 2 -6.5 7t-6 8t-6.5 4.5t-10 0.5q-3 4 -10 11.5t-10 11.5q-22 25 -56 74.5t-49 68.5q-3 4 -61 94 q-5 8 -15 22t-12 17q-13 20 -18 37q-4 14 -27 47q-42 59 -67 105q-5 8 -17.5 25t-13.5 18q-23 31 -21 55q0 15 -12 39q-2 11 -0.5 16.5t6.5 15.5t6 15q5 -1 8.5 1.5t6 7.5t4.5 7q8 6 20 6t21 -6q6 -6 12 -2q1 0 4.5 -1t5.5 -1q30 -11 54 -41q11 -16 34 -49t35 -49 q18 -26 39 -66q19 -41 72 -106q46 -53 94 -137q10 -16 31.5 -45.5t31.5 -44.5q3 0 7 -4l18 36q36 64 66 174q25 87 53 142q11 17 18 41q4 9 11.5 28.5t11.5 28.5q2 6 8 18.5t8 18.5q16 31 23 51q3 10 9.5 18.5t17 18t14.5 14.5q1 2 4 2.5t7.5 0.5t6.5 1q4 2 14 2.5t15 2.5 q4 2 9 2t11.5 -1t9.5 -1l5 -3q28 -28 26 -43q-8 -93 -22 -135q-3 -11 -9 -29l-11 -33t-9 -28q-4 -15 -14 -40t-13 -36q-9 -38 -16 -47q-8 -11 -14.5 -25t-10 -25t-8.5 -29t-8 -27q-25 -75 -57 -182q-5 -16 -18.5 -54t-20.5 -59q-2 -7 -4 -25t-4 -26q-3 -1 -5.5 -2.5 t-4.5 -4.5t-3 -5.5t-2 -7.5t-2 -7q-32 -107 -51 -162q-1 -4 -53 -127q-7 -17 -21.5 -48t-21.5 -48q-4 -9 -13 -39q-13 -61 -71 -215q-5 -13 -25 -20q-6 -1 -18 -8t-17 -9l-20 10l-2 -2q-5 -6 -18.5 -1.5t-18.5 1.5q-23 -10 -37 7q-9 5 -14 2q-10 -2 -19 10z" />
<glyph unicode="Z" horiz-adv-x="1437" d="M455 270q-20 -25 -23 -37q8 -2 19 -2q16 1 51 3.5t55 3.5q105 8 156 14q20 2 42.5 5t50 7t42.5 6q64 9 129 15q20 4 29 4q9 2 90 16t125 21q2 -2 10.5 -8.5t15.5 -10.5q5 -1 17 -3t14 -3q11 -9 34 -26.5t34 -26.5q-3 -6 -13 -21q-4 -2 -14 -5.5t-16 -6.5q10 -4 22 -8 q0 -5 -6 -17q14 7 18 11q1 -1 4 -3.5t5 -4.5q1 1 4.5 6.5t4.5 6.5t6 3.5t9 -2.5q10 -6 27 -23q-8 -7 -41 -16q-18 -6 -19 -8q-14 -22 -43 -25v-16q-18 -12 -20 -13q4 -1 14 -8q-53 -22 -102 -35v-1q-3 -3 -4 -5q-8 -2 -26 -7t-26 -7v2q-13 -2 -37 -5.5t-32 -4.5q-11 4 -25 5 t-24 0t-28.5 -3.5t-25.5 -3.5q-15 -1 -41.5 -6.5t-35.5 -6.5q-6 -1 -17.5 -3t-17.5 -3q-23 0 -33 2q-5 -1 -18 -5t-19 -5t-17 -3t-20.5 -1t-19.5 4q-8 -6 -19.5 -7t-21.5 1t-21 0q-4 -2 -12 -10q-13 4 -20 2q-56 -4 -82 -8q-23 0 -29 6q-10 5 -25 -2q-3 -2 -7.5 -6t-6.5 -5 q-15 -3 -43 -8t-43 -8q-7 -1 -20.5 -3t-20.5 -3q-44 -6 -90 -12q3 -3 6 -9h-18v3h-2q-15 -11 -55 -3.5t-52 5.5q-50 19 -63 61h-4h-7q-2 1 -8 4.5t-8 5.5q-5 14 -8 19q-8 0 -14 -2q-15 10 -21 16q-6 12 3.5 26t10.5 19q-8 4 -14 6q0 7 9 17t10 12q4 10 18 31q4 12 4 26l-4 8 q17 24 47 58q39 53 59 96q10 22 43 64q14 18 86 100q11 12 34.5 33t35.5 32q92 95 176 185q15 15 43 39q3 4 9.5 12t9.5 12q5 10 10 15q16 16 24 26q21 30 37 35q4 4 7 10q0 1 -5 21q7 13 33.5 53.5t36.5 67.5q-31 2 -68 6q-19 2 -106 12l-123 18q-12 2 -37 7.5t-37 7.5 q-16 3 -44.5 10.5t-39.5 9.5q-10 2 -26 10q-18 12 -21 15q-2 4 -6 16q-3 1 -10 2t-10 2q-4 4 -13 14t-14 15q13 0 33 -4v4q-38 24 -51 31q-14 36 -35 49q-5 16 10 24q1 -2 3.5 -6t4.5 -7t4 -5h35l-4 12q12 0 18 2q-2 6 -8 15q21 3 39 6l12 18h11q25 3 69.5 -3t55.5 -7 q22 -1 67.5 -4t69.5 -4q23 -1 70.5 -4t72.5 -4q16 -1 45 -4.5t45 -4.5q39 -1 116 -4t116 -4q16 0 50 2t52 2q42 0 111 15q9 4 30 0l60 6q2 -1 17.5 -12t27.5 -11q3 -6 14.5 -28.5t18.5 -36.5q-1 -7 -6 -24t-7 -27q9 9 11 10q12 -4 22 -6q-30 -27 -57 -54q-8 -8 -24 -26 t-25 -27q-93 -56 -131 -92q-4 0 -11 1t-12 1q-5 -4 -52 -45t-73 -62q-21 -16 -54.5 -51t-49.5 -49q-2 -2 -19 -24q-10 -15 -30.5 -42.5t-30.5 -41.5q-1 -1 -3 -3.5t-3 -3.5q-17 -10 -33 -25.5t-34.5 -38.5t-27.5 -32q-5 -5 -15 -15.5t-15 -15.5q-25 -25 -41 -49 q-2 -1 -17 -6q0 -1 1 -2t1 -2q-16 -20 -49 -59t-49 -58q-17 -3 -25 -9.5t-28 -35.5q2 -4 6 -16q0 1 -1 4t-1 4q-2 -3 -18 -18.5t-17 -30.5q6 6 21 16zM1315 242q1 0 3 1t3 1l-6 6l-4 -2q4 -4 4 -6z" />
<glyph unicode="\" d="M672 1094q0 3 -1 8.5t-1 7.5q0 19 -6 37q-32 90 -66 137q-2 2 -12 33l-6 18q0 1 -1 3t-1 3t-2.5 7t-4.5 10q-3 6 -10 19.5t-10 19.5l-8 14q31 22 14 55l41 29l31 -22l4 28h2q12 0 29 10q7 7 14 7q9 0 24 -15q31 -22 48 -55q7 -14 21.5 -41.5t21.5 -40.5q5 -9 15 -28.5 t15 -28.5l4 -11q2 -5 12 -24t13 -29q37 -83 59 -198q10 -45 41 -62q0 -2 2 -2q1 -8 4 -23.5t3 -17.5q6 -33 14 -88q6 -38 2 -70q-4 -38 4 -61q4 -9 12.5 -28.5t12.5 -28.5q14 -34 22 -62l4 -6q3 -8 8 -21.5t8.5 -24.5t6.5 -20q5 -21 15 -62.5t15 -61.5l11 -39q1 -4 3 -12.5 t3 -12.5q0 -6 4 -18q0 -9 4 -21q4 -13 8 -39l2 -10q22 -114 29 -158q2 -12 5 -37t5 -38q0 -11 4 -39q0 -9 -14 -21l-6 -6l-21 10l-20 31l-15 -47q-16 16 -34 16q-9 0 -13 -2q-2 2 -6 7.5t-6 7.5q-1 1 -4 3t-4 3q-5 19 -27 26q-2 2 -2 4q-2 16 -10 43q-1 4 -4 13.5t-4 13.5 q-15 37 -15 57q0 7 -6 19q-2 2 -2 4q-2 5 -6 15.5t-6 15.5q-20 46 -25 65q-7 24 -17.5 71.5t-12.5 53.5q-3 12 -9.5 37t-9.5 37q-2 10 -7 27.5t-7 23.5t-5 18.5t-5 18.5q-12 37 -21 78q-3 11 -9 33.5t-9 33.5q-4 12 -4 21q-12 48 -31 73v5v4q-3 16 -8 28q-1 6 -3 17.5 t-3 17.5q-2 6 -5.5 19.5t-5.5 19.5q-2 9 -7 28.5t-7 28.5q-9 55 -47 70q-4 4 -4 6q-2 5 -6 15.5t-6 15.5l14 -6z" />
<glyph unicode="^" horiz-adv-x="579" d="M539 1083v-4q-4 -4 -4 -6q-1 -1 -3.5 -3t-3.5 -3q-2 0 -6 4l-16 6l-6 -18l-8 -4q-11 -6 -15 -17l-41 9l-14 -27q-8 4 -12 4q-2 0 -4 -2q0 1 -1.5 2t-1.5 2q-25 32 -45 64l-8 12q-6 6 -14 18q-18 21 -29 41q-24 46 -67 99l-4 3q-4 3 -5 5q-4 0 -4 4l-14 12l-10 -16 q-5 -5 -8 -11q-2 -2 -17 -22q-7 -14 -22.5 -39.5t-22.5 -38.5q-3 -5 -19 -32.5t-24 -43.5l-8 -8q-19 -10 -35 -39q0 -1 -1 -3t-1 -3q-4 -8 -6 -10l-14 6q-7 14 -19 20q-2 3 -2 5l-4 4q2 8 2 24q0 24 4 70q1 4 4 12t4 12q4 8 4 11q3 7 9.5 21.5t9.5 21.5q1 3 4 9t4 9q1 2 2 6 t2 6q1 3 4 10.5t4 10.5q9 12 19 22q6 5 12 23q7 33 23 45q2 2 12 16l2 2q7 14 16 17q11 4 19 14q9 13 10 17l4 4l6 10h2q9 0 13 -4l10 -2l14 16q2 0 6 -1t6 -1h5l18 6l18 -12q12 -6 19 -6h2h2q7 0 18 -17q2 -2 2 -4q19 -22 97 -123q2 -3 8 -11.5t10 -14.5q1 -2 6 -10t8 -13 q5 -6 14.5 -19.5t14.5 -19.5q21 -27 41 -57q9 -11 18 -33q1 -6 3.5 -18.5t3.5 -18.5z" />
<glyph unicode="_" d="M1253 66q-6 -3 -14 -3l-14 -2l-4 -20q-2 -4 -2 -10h-2q-6 -1 -18.5 -2t-18.5 -2q-8 -1 -23.5 -4t-17.5 -3q-31 -3 -64 -6q-46 -4 -71 -4q-17 0 -41 4h-2h-11h-10q-8 -4 -27 -4h-22q-8 2 -25 2h-6q-18 -2 -57 -2q-60 0 -72 -2q-65 0 -98 -2q-10 0 -30 -1t-30 -1 q-28 -4 -41 -4h-18h-25q-2 0 -7.5 1t-8.5 1t-8.5 1t-7.5 1h-8v2q-11 14 -33 14q-9 0 -15 9q-14 14 -22 16q-6 0 -14 16q-13 37 4 60q8 12 8 33q2 4 2 12q7 10 -2 24q6 9 16 9q6 1 18.5 2t18.5 2l19 2h2q8 0 14 2q20 10 57 10q23 0 35 2q82 9 315 14h39q2 0 7 -1t8 -1 q18 -6 39 -6q22 0 49 6q15 5 39 5q12 0 18 2q6 0 20 1t21 1l21 2q5 0 15.5 1t16.5 1q46 4 68 4h6q32 0 74 -10l14 -2q2 0 4 -1t5 -2t5 -2l-6 -36l-22 -5l16 -24q6 -12 19 -16q-2 -3 -7 -9t-6 -8q-1 -1 -3 -2t-3 -2q-2 -2 -4 -2h-2q-1 -1 -3.5 -3t-4.5 -3.5t-4.5 -5 t-3.5 -6.5l-13 -21l4 -2l-6 -4l8 -10q-1 0 -4 -1t-4 -1q-24 -4 -39 -4zM756 98l32 13l-18 20v2q-4 4 -10 8l-4 2h-4q-7 0 -19 -8l-4 -4v-8q0 -8 2 -10l4 -21z" />
<glyph unicode="`" horiz-adv-x="327" d="M283 995q7 -28 -2 -39q-7 -11 -7 -16q0 -12 -6 -12l-6 -2l-16 -27q-8 4 -15 4q-6 0 -16 10q-3 2 -8 7.5t-8 7.5q-3 4 -21 22q-34 30 -53 62l-4 6q-27 48 -29 55q-9 28 -41 90q-27 51 -51 113v4q2 4 6 11.5t6 11.5l4 6q9 16 21 16h6q5 -1 15.5 -2t15.5 -2h14h4q4 -2 8 -6 q20 -14 29 -25q10 -12 29 -45q1 -3 3.5 -8.5t5 -10.5t5.5 -9q16 -40 41 -72q13 -16 23 -39q7 -11 10 -19q31 -56 37 -88v-4z" />
<glyph unicode="a" horiz-adv-x="948" d="M14 35q3 7 -2 31l-6 18q-4 17 4 25q-8 20 -8 49v37v61q-1 17 8 80v6q1 22 10 63.5t11 53.5q8 54 32 174q5 27 41 203q16 92 19 106q7 45 14 78q5 24 22.5 88.5t24.5 101.5q2 9 7.5 29t7.5 29q1 10 3 30.5t3 30.5q10 10 10 31l6 24q0 1 1 2.5t1 2.5q3 6 23 51q15 9 37 20 q0 5 1 16t1 17q4 1 11.5 2t10.5 2q3 -1 9.5 -4t9.5 -5t8 -5t7.5 -6.5t4.5 -8.5q28 -8 47 -34q3 -4 11.5 -12.5t11.5 -12.5t9 -12.5t9 -12.5q1 -1 2 -3t2 -3q5 -8 25 -33.5t29 -39.5q27 -44 57 -103q31 -60 41 -84q4 -9 16 -36.5t17 -43.5q2 -7 18 -51q5 -12 15.5 -37 t15.5 -37q4 -10 11 -30.5t11 -30.5q10 -29 27 -68q5 -15 6 -16q6 -8 10 -23q5 -21 8 -28q44 -117 66 -199q5 -21 16.5 -62t16.5 -61q20 -88 24 -106q3 -14 9.5 -41.5t9.5 -42.5q1 -5 3 -14.5t3 -14.5t4 -22.5t6 -26.5q7 -26 0 -66q-2 -6 -2 -16h-6q-4 -8 -6 -10 q-21 -11 -27 -15q-55 16 -78 31q-8 -4 -12 -4q-4 4 -14 19q-9 12 -13 34q-16 70 -20 82q-1 4 -2 12.5t-2 12.5q-4 21 -29 129q-3 13 -8 41t-8 41q-2 9 -23 80q-4 16 -13 46t-13 46q-11 26 -19 47q-19 4 -33 -2q-4 -1 -9 -3.5t-10.5 -7t-8.5 -6.5q0 -4 -2 -10q-7 0 -23 -4h-4 v2q-28 -4 -43 -4q-46 -3 -94 0q-18 0 -31 -8q-43 -17 -65 -23q-1 -1 -4.5 -2t-5.5 -2t-3 -2q-6 -6 -6 -22q-2 -22 -10.5 -65.5t-9.5 -67.5q-1 -30 -8.5 -94t-8.5 -95q0 -77 7 -115q1 -10 -13 -43q-6 -2 -14 -6q-2 -6 -6 -14q-4 0 0 -1t0 -1q-21 11 -23 12q-1 -3 -4.5 -12 t-5.5 -14q-5 -4 -15.5 -12.5t-15.5 -12.5q-17 -10 -30 -10h-17v2v-2q-10 6 -31 20h-14q-17 10 -33 23zM557 774q-1 2 -2 6t-2 6q-5 15 -16.5 43t-16.5 43q-7 15 -15 33.5t-17 40.5t-15 35q-6 17 -29 70q-2 6 -6 17t-6 17q-23 52 -45 91q-13 17 -20 20q0 -1 -5 -16 q-2 -10 -5 -31t-5 -31q-8 -41 -24 -127q-2 -8 -7.5 -28t-7.5 -31q-3 -12 -8 -38t-8 -40q-9 -34 -16 -94v-12h10q10 1 29.5 4t29.5 4q16 4 56 8q37 4 114 4q25 0 37 6zM201 63v3h-6v-3h6zM530 627l2 -4q1 0 2.5 1t2.5 1l-2 2h-5z" />
<glyph unicode="b" horiz-adv-x="974" d="M692 836q8 -4 19.5 -12.5t15.5 -10.5q63 -42 80 -59q64 -64 96 -127q23 -51 29 -82q1 -5 1 -12.5t-0.5 -16t-0.5 -12.5q0 -35 -6 -49q-3 -9 -6 -15q-1 -4 -3 -15t-2 -17q0 -27 -18 -56q-15 -23 -27 -37l-24 -30q-41 -58 -94 -82q-32 -16 -52 -31q-15 -13 -65 -35 q-31 -15 -64 -24q-83 -25 -141 -27q-41 -3 -72 2q-17 4 -36 5t-41.5 0.5t-34.5 0.5q-13 1 -36.5 4t-35.5 4q-10 1 -29.5 2t-29.5 2q-3 0 -13 5q-4 -2 -13 -7.5t-13 -7.5q-2 1 -23 15q-18 12 -24 30q0 4 -2 6q-14 17 -9 58q2 17 11.5 49t11.5 49q3 14 0 25q0 67 6 106 q13 82 10 156q-2 26 -2.5 73t-1.5 62q-1 13 -5 36t-5 34q-7 41 -14 102q-10 90 -11 102v66v12q-10 43 -14 129q0 5 -2 16.5t-2 16.5q0 12 4 14q8 11 8 27q0 10 8 18q2 1 16.5 12t22.5 15q58 28 119 43q84 21 146 29q137 13 245 -13q59 -13 84 -20q9 -3 28 -8t27 -8 t21.5 -8.5t25 -13.5t23.5 -19q44 -36 62 -72q24 -56 14 -105q-2 -9 -4 -55t-10 -65q-3 -8 -10.5 -23.5t-10.5 -23.5q-4 -9 -10 -17.5t-17.5 -20t-13.5 -14.5q-10 -11 -31 -30.5t-28 -26.5q-12 -9 -27 -18zM240 244q9 0 25.5 -2t29.5 -2t24 4q10 3 36 9t36 9q8 2 52 9t65 18 q6 4 143 82q46 22 68 59q11 19 12.5 35.5t-3.5 35t-5 23.5q0 1 -6 13q-37 48 -94 131q-10 13 -45 24q-11 5 -34 6t-30 2q-33 2 -100 2q-32 0 -70 -10q-8 -2 -12 -6q-4 -2 -10 -4t-9 -4q-4 -2 -11 -5t-11 -5q-10 -2 -18 -5.5t-19.5 -10t-24.5 -11.5q-4 -2 -16.5 -12 t-17.5 -13q1 -9 6 -59q2 -20 2 -59v-60q0 -21 6 -39q2 -6 2 -18q1 -13 6 -35t6 -33q0 -1 6 -37q1 1 2.5 -2t2 -6t2 -6t2.5 -2q0 -7 1 -8.5t1 -7.5zM180 852h53q58 9 76 10q54 6 103 21q111 34 182 84q50 34 70 71q44 80 51 107q8 33 -31 55q-4 1 -8.5 4.5t-5.5 3.5 q-71 23 -72 23q-95 24 -195 18q-71 -3 -145 -18q-11 -2 -86 -17q-17 -4 -20 -8t-5 -22v-8q-1 -8 -8 -37t-4 -45q4 -17 12.5 -51l12.5 -50q16 -86 18 -129q0 -8 2 -12z" />
<glyph unicode="c" horiz-adv-x="907" d="M743 303q-12 -8 -16 -12v-4q28 9 55.5 3t44.5 -34q-3 -2 -9 -7t-9 -7q5 -19 25 -39q-1 -4 -5.5 -11.5t-5 -11t1.5 -12.5q3 -5 -8 -16q-5 -4 -21 -15t-22 -18q-4 -7 -8.5 -12t-12.5 -9t-10.5 -5.5t-14.5 -6.5l-11 -4q-1 -1 -3 -2t-3 -2q-43 -33 -133 -29q-142 6 -244 92 q-102 88 -152 162q-3 4 -9 12.5t-9 12.5q-20 20 -49 80q-59 110 -72 143q-35 83 -41 174q-3 77 25 156q61 146 100 204q35 48 84 101q37 43 90 86q39 31 92 63q34 19 92 45q1 0 23 6q39 12 180 35q50 9 96 -2q50 -14 66 -53q0 -4 4 -8q23 -42 -10 -105q-21 -34 -62 -34 q-34 -3 -63 0q-5 0 -55 -11q-12 -4 -38 -12t-38 -12q-149 -48 -242 -160q-89 -107 -125 -229q-27 -95 -6 -191q14 -60 68 -141q38 -60 88 -101q43 -35 112 -45q60 -9 125 7q15 3 88 18q12 2 24 -6t15 -21q1 -1 4 -5t4 -7z" />
<glyph unicode="d" horiz-adv-x="874" d="M45 98q2 -1 6.5 -2t7.5 -2q-4 22 -8 35q-16 0 -16 25q-8 65 -10 102v49q0 84 -2 127q-7 123 -17 217q-7 79 -2 135q3 49 1.5 137t0.5 136q0 25 2 73.5t2 71.5q0 78 8 117q14 69 27 88l12 12q3 3 10.5 8.5t10.5 8.5q6 0 26 4q0 1 -1 4t-1 4q11 7 19 10q16 8 49 0 q5 -1 16.5 -3t16.5 -3q26 -5 33 -8q95 -33 157 -82q49 -34 68 -49q13 -9 36.5 -31t28.5 -27q8 -6 24.5 -19t24.5 -19q47 -35 72 -66q52 -58 53 -59q5 -6 13.5 -19.5t9.5 -15.5q5 -11 15.5 -32.5t15.5 -33.5q3 -5 7 -16.5t7 -16.5q41 -108 57 -202q11 -64 2 -135 q-4 -39 -14 -64q-5 -16 -17.5 -46t-17.5 -46q-5 -13 -15 -40t-15 -40q-5 -10 -7 -12q-2 -5 -34 -66q-3 -6 -7 -10q-18 -23 -26 -29q-43 -34 -64 -49q-7 -5 -35 -25.5t-45 -29.5q-55 -37 -81 -51q-3 -2 -37 -13q-7 -2 -19.5 -5t-22.5 -6t-18 -7q-15 -6 -28 -19 q-15 -15 -72 -38q-4 -2 -10.5 -4t-11 -4t-10 -5t-9.5 -6q-21 -12 -37 -6q-6 1 -12.5 -0.5t-9 -3t-9.5 -6.5t-8 -6q-2 0 -4 -2q-38 9 -63 34q-5 5 -7 9q-13 37 -18 67q0 4 2 6zM231 1292v-24v-23q-1 -12 -3 -33t-3 -39t0 -34v-27q-1 -16 -3 -46.5t-3 -45.5q0 -14 -1 -29 t-2.5 -34t-2.5 -29q-6 -117 -6 -121v-131q0 -16 1 -49t1 -49v-129q0 -12 -1 -35.5t-1 -34.5q0 -54 4 -156q0 -2 4 -14q10 0 14 2q23 4 70.5 13.5t71.5 13.5q95 18 164 90q17 16 45.5 48.5t33.5 37.5q1 2 4.5 7t4.5 7q2 5 22 51.5t31 69.5q14 37 20 80q7 54 2 90 q-14 99 -43 166q-37 90 -77 137q-57 65 -82 84q-50 35 -60 41q-58 38 -96 76q-28 28 -76 53q-5 4 -17.5 9.5t-15.5 6.5z" />
<glyph unicode="e" horiz-adv-x="729" d="M80 981q1 0 2.5 -0.5l4.5 -1.5t5 -2q0 2 1 7t1 7q0 21 1 63t1 64q3 111 6 219q4 33 -18 49q-3 1 -8 17q8 8 12 14q-2 1 -25 14t-30 27q4 8 4 12q-9 3 -21 9q0 -3 1 -8t1 -7q-6 -3 -11 -1.5t-5 7.5q-2 5 8 15q4 4 10 4q11 -2 20 1.5t20.5 12t15.5 10.5q6 5 16 9q7 0 21 1 t20 1q32 5 51 20q-6 3 -13.5 3t-15.5 -1.5t-12 -1.5q-8 1 -23 -0.5t-20 -1.5q-21 -4 -41 2q8 3 19 10q-1 1 -3.5 5t-4.5 6q19 4 57 8q16 3 46 8t54.5 9t46.5 7q74 12 150 15q37 4 115 8q5 0 14 -1t14 -1q12 2 35 -14q2 -2 9 -7t10.5 -8t6.5 -9t3 -13q4 -2 6 -4q16 -8 25 -11 q2 -12 4 -23.5t4.5 -24.5t3.5 -21q-6 -4 -8 -11t-1 -13.5t-1 -14.5q-22 -5 -37 -31q-8 -13 -25 -16q-30 -2 -160 -17q-13 -1 -39.5 -4t-40.5 -4q-23 -2 -63 -6q-14 -4 -29 -6q0 -12 -2 -37t-2 -37v-223q0 -13 2 -21h41q28 -1 83 -2t83 -2q5 0 17 -4q8 -4 36 -16q-2 -1 -6 -4 t-6 -4q11 -23 31 -25q15 0 43 -14q13 -7 15 -12.5t-3 -20.5q24 -20 10 -45q-14 -29 -22 -35q-4 -5 -15 -8t-12 -4q0 -15 -4 -21q-2 -4 -18 -4q-31 -2 -95 -2q-42 0 -65 2q-16 1 -45 3t-45 3q-20 1 -26.5 -6t-6.5 -26q8 -111 10 -164q0 -56 -4 -158v-123v-10q0 -14 4 -17.5 t17 -3.5q18 1 51 4.5t49 4.5h129q8 0 25.5 1t25.5 1q17 0 41 -4q2 -1 4 -4.5t5.5 -8.5t5.5 -8q2 0 18 -4q-4 -11 -8 -29q15 0 20 -12q2 -2 5 -3.5t8 -3.5t8 -3q0 -2 3 -13t-3 -16l16 -8q-1 -4 -3 -13.5t-4 -15t-8 -11t-16 -7.5q6 -15 -14 -35q-25 -25 -41 -31 q-10 -7 -20 -10q-88 0 -131 -2q-15 -1 -45.5 -3t-45.5 -3q-16 -2 -47 -2q-37 0 -55 -2q-20 -2 -49 12q-48 27 -80 84q-37 64 -37 145q0 45 1 136t1 137v12q-3 23 -3.5 48t0.5 60t1 48v155v39q0 3 -12 27zM135 1565v-4q14 -4 23 8q-4 -1 -12 -2t-11 -2z" />
<glyph unicode="f" horiz-adv-x="907" d="M63 -57l-40 30q-18 19 -21.5 43t0.5 45l6 99q1 21 4 59t5 69.5t3 59.5q1 22 3.5 68t3 67.5t-1.5 67.5q-3 38 2 172q4 132 4 199q3 54 0 108q0 1 -6 55v54q-1 24 -4.5 73.5t-4.5 75.5q0 8 1 26t1 27t-2 13q-11 25 13 53l12 6q5 5 11 12.5t7 8.5q28 5 60 12q0 2 -2 2 q31 0 93 -1t93 -1q134 -4 229 14q22 3 68 10.5t68 10.5q14 2 45 2q8 -4 27 -10.5t28 -10.5q13 -4 31 -18q3 -2 10.5 -11t13.5 -12q1 -4 2 -13.5t2 -14.5q5 -5 17 -13q0 -2 -2 -2q4 -7 12 -22.5t12 -22.5q-10 -10 -30 -26q2 -3 4 -10t4 -11q-3 -3 -9.5 -9t-9.5 -9 q-3 -1 -22.5 -8t-30.5 -7q-6 0 -18.5 -1t-18.5 -1h-43q-23 -3 -68.5 -9t-68.5 -9q-17 -1 -49.5 -3t-48.5 -3q-23 -1 -68 -4t-67 -4q-12 -2 -39 -2q3 -14 6 -19h-2q-4 -46 -4 -65v-183q0 -4 1 -11t1 -11q14 -5 34 -8q53 -3 105 6q9 2 57 2q2 0 6.5 -2t6.5 -2q25 -11 41 -13 q4 -3 12 -7.5t13.5 -9t8.5 -11.5q29 -3 49 -29q0 -2 -1 -6t-1 -6q1 -2 4.5 -7.5t4.5 -7.5q-1 -5 -2 -15.5t-2 -16.5l-24 -15t-19 -12q18 -14 6 -35q-16 -4 -29 -4q-95 -4 -143 0q-28 1 -125 10q0 -4 -2 -11t-2 -11q-3 -13 0 -27q6 -53 -2 -155q-4 -44 -5 -125.5t-4 -118.5 q-4 -90 -8 -137q-1 -10 -6.5 -41.5t-7.5 -51.5q-6 -8 -17 -26t-16 -25q-1 -2 -6 -18t-12 -23h-43l-18 -16q-17 -16 -32 -16q-15 13 -43 6z" />
<glyph unicode="g" horiz-adv-x="1013" d="M932 324q1 -7 0.5 -10t-3 -9t-3.5 -8q-2 -13 -15 -39l-6 -6l-6 -12v-2q-9 -2 -10 -16t-4 -17q-2 -2 -6 -10q0 10 -2 14q-7 -3 -6 -11.5t-1 -13.5q-18 -4 -18 -22q-1 -3 -3 -5.5t-5 -6t-4 -5.5q-4 -5 -27 -28l-2 -2q-11 -3 -29.5 -17t-31.5 -16q-6 -1 -14.5 -6.5 t-12.5 -7.5q-3 -1 -13 -6.5t-16 -6.5q-55 -14 -119 -14q-67 4 -100 14q-39 14 -100 29q-29 7 -82 39q-4 3 -14.5 7t-14.5 7q-17 11 -18 13q-66 49 -86 69q-14 12 -51 66q-64 97 -89 194q-24 105 -18 209q2 67 21 182q1 3 3 8.5t3 8.5l4 8q3 15 8 43t8 43q0 10 2 14 q4 26 10 41q3 -2 7 -5.5t6 -4.5l2 2q22 50 28 68q2 4 8 19t9 22q7 17 12.5 48.5t7.5 41.5v8q-11 20 6 45q26 55 89 98q54 33 67 37q34 10 82 10q23 0 67.5 1t65.5 1q19 0 51 -4q3 0 15 -6q46 -23 61 -33q41 -29 66 -51q80 -80 118 -157q19 -36 35 -80q6 -12 21 -52 q12 -27 -2 -43q-1 -1 -1 -5.5t-1 -6.5q-24 -4 -45 -4q0 -1 -5 -6q-1 1 -6 7t-10 11q2 -10 2 -18q-18 0 -43 25q0 -2 -1 -7t-1 -8q-3 4 -11.5 24.5t-19.5 26.5l-6 -24h-2q-3 6 -9 19.5t-9 19.5q-22 59 -58 106q-45 59 -88 78q-64 33 -120 4q-5 -3 -15.5 -11t-15.5 -11 q-17 -12 -41 -62q-1 2 -2 3.5t-3 4t-3 4.5q-6 -14 -18 -37t-17 -34q-28 -65 -53 -166q-25 -102 -39 -199q-11 -68 -11 -110q-7 -153 43 -256q40 -77 95 -107q37 -21 90 -41q61 -19 112 6q13 7 76 47q7 7 10 13q56 70 80 137q5 12 2.5 18t-14.5 7q-32 4 -47 4q-46 2 -113 24 q-5 1 -11.5 4t-8.5 4q-25 4 -27 25q-1 4 -6.5 14t-5.5 17l-12 12q4 8 6 14q-4 2 -13 2t-14.5 4t-7.5 15q5 -1 15.5 -3t15.5 -3l18 18q-15 10 -19.5 11t-11.5 -7q1 4 2 13t2 14q36 5 50 8q5 0 20 10q6 2 14 10q43 15 66 25q3 1 25 18q8 8 10 9q40 21 88 30h14q8 -8 33 -8 q3 -1 6 -2.5t7 -4t7 -3.5q0 -2 -1 -5.5t-1 -6.5q22 4 33 8q2 -2 10 -14q11 2 18 -5t7 -20q24 0 27 -21q4 -4 12 -8q15 -5 18 -22q0 -5 1 -15t1 -16q3 1 8.5 2t8.5 2l2 -4q0 -7 1 -21.5t1 -21.5v-37q0 -27 -12 -51q-14 -16 -7 -39q7 -22 -8 -33q-3 -2 -4.5 -6.5t-3 -11 t-2.5 -10.5l4 -2q4 12 8 20q7 -38 -16 -61q6 19 4 26q-12 -10 -4 -26zM279 1384q7 -3 11 -1t5 12q-10 -5 -16 -11z" />
<glyph unicode="h" horiz-adv-x="813" d="M600 1503q8 -3 27 -8q9 -5 20 6q3 6 6 15q2 -8 7.5 -12.5t15 -8.5t12.5 -6q0 -24 19 -43q14 -17 14 -43q1 -20 2 -61t2 -62q0 -5 3.5 -14t4.5 -11q6 -30 6 -34q6 -24 6 -50q3 -49 3 -100q0 -17 -1.5 -52t-1.5 -52q0 -21 5 -113q1 -13 5 -36t5 -34q4 -32 8 -100 q1 -10 -4 -47q0 -4 -4 -8q-10 -10 -10 -35v-111v-77q0 -29 -7 -48q-5 -13 -5.5 -27t0.5 -34t1 -27q1 -16 11 -110q0 -3 18 -148q4 -40 4 -61q0 -24 -10 -39q-6 -11 -19 -14q-3 0 -12 -9q-4 -2 -8 -10q-4 1 -15 4t-18 4q-2 -2 -6 -10q-2 -2 -6 -2q-9 2 -12 16q-4 11 -13 13 q-10 2 -14 20q0 13 -4 17q-10 16 -14 51q-4 25 -15 71q-4 30 -16 82q-3 18 -6 33q-17 109 -17 113q-1 9 -4 27.5t-4 27.5q-9 87 -8 113q0 7 -1 22.5t-1 22.5q-2 12 -14 12q-70 -4 -107 -6q-12 -4 -22 -4h-19q-1 0 -3 1t-3 1q-10 -4 -21 -4t-23.5 2t-19.5 2q-11 0 -32 1 t-33 1q-4 0 -8 -2q0 -3 -1 -10t-1 -11q1 -13 2 -39t2 -40q2 -15 0.5 -30t-7 -39t-6.5 -30q-9 -43 -8 -57q0 -9 -4 -29q-6 -55 -18 -106q-2 -12 -9.5 -32t-9.5 -32q0 -2 -6 -8q-17 -17 -22 -35q0 -2 -9 -16l-14 14h-2q-3 -12 -18 -8.5t-19 0.5q-16 29 -28 37q-7 7 -11 24 q-10 51 -10 125q0 10 -10 45q-6 45 -4 52q2 4 2 16q0 4 -1 14t-1 15q1 10 3 30.5t3 30.5q1 20 3 62l3 63q0 10 -1 29.5t-1 29.5q-2 23 -2 70q-1 19 -2 56t-2 55q-2 30 -6 91.5t-6 92.5q-3 34 -3 63v60v72q-1 13 -4 38t-4 37q-4 62 -4 90q-4 62 -4 93q-4 42 0 63q4 44 31 57 q5 3 8 7.5t7 14t5 11.5l8 8q3 -25 15 -36q2 -4 12 -9q1 2 3 6.5t3 6.5l4 8q4 -20 4 -25q2 -2 5 -2q18 4 34 -20q25 -29 33 -45q18 -34 12 -72q-7 -34 -4 -80q9 -112 21 -217q2 -31 14 -88q11 -77 8 -170v-96q2 -13 4.5 -16.5t14.5 -4.5q88 -14 155 -6q11 0 11 4q0 10 15 10 h3q7 1 26.5 3.5t30.5 3.5q2 1 6.5 2t6.5 2q3 0 8.5 2t7.5 2q25 0 25 24q0 37 4 115q1 22 4 68.5t4 68.5v4q3 19 4 41t1 38t-0.5 42t-0.5 39q1 21 0 45t-3 53.5t-3 44.5q0 76 6 115q8 39 37 76q4 8 6 14zM649 -78h4q-1 2 -2 5t-2 5l-2 -2q0 -1 1 -4t1 -4z" />
<glyph unicode="i" horiz-adv-x="311" d="M238 109q-3 1 -8.5 3t-8.5 3q0 -9 -4 -13q-12 -6 -14 -6q-7 4 -19 4t-16 2q-2 4 -14 14.5t-13 20.5l-4 4q-10 3 -17 8t-11.5 16t-5.5 14.5t-5 19.5l-30 141q-21 117 -23 166q0 32 -1 94t-1 92q0 68 4 103q0 7 4 22t4 23q10 107 11 131q0 28 18 43l10 -15q9 21 15 39h4 q-1 -11 10.5 -23.5t13.5 -17.5q2 7 7 17.5t6 13.5q2 -4 8 -14.5t8 -16.5q4 3 5 7t0.5 9t0.5 7q2 -3 7 -9.5t7 -9.5q5 -13 21 -16q6 -3 12 -12q25 -45 31 -60q4 -12 4 -39q0 -23 6.5 -64.5t7.5 -51.5q3 0 2 -46l-2 -46q0 -29 -2 -43q-9 -83 -6 -168q0 -23 1 -68t1 -68 q0 -2 3 -14.5t3 -19.5v-72v-53v-15q-27 -3 -30 -36zM43 1409q8 5 16 8h9l2 -4q7 2 19.5 3t22.5 4t17 10q10 -5 12 -7q1 -5 3.5 -9t7 -6.5t6.5 -3.5t8.5 -3t7.5 -2q12 -5 19 -15q6 -10 36 -55l7 -14q4 -8 4 -17q1 -2 2 -6t2 -6q0 -1 -1 -3t-1 -3q8 -10 9 -31.5t5 -29.5 q6 -13 -4 -23q-4 -4 -4 -8q2 -11 -4 -29t-6 -22l-13 -13q-1 1 -6 5t-10 6q-6 -15 -12 -27q-22 -7 -39 4q-55 25 -95 68q-8 8 -23.5 26.5t-23.5 26.5q-10 11 -14 47v27q-3 41 23 73q1 2 6.5 5.5t7.5 5.5q8 3 8 5t-4 13z" />
<glyph unicode="j" horiz-adv-x="790" d="M47 705q9 -3 12 -3q21 21 33 31q5 -5 12 -8t11 -3.5t16.5 -1.5t15.5 -1q7 -7 31 -27q-1 0 -2 -1t-2 -1q3 -6 15 -26t18 -31q1 -4 6 -27q0 -7 1 -21.5t1 -21.5q0 -33 6 -63q2 -14 -2 -45q0 -106 19 -162q21 -59 26 -59q1 0 3 3q6 7 12 3q2 1 8 2t8 2q15 8 65.5 21.5 t69.5 35.5q34 40 35 41q3 3 3.5 9t2.5 9q26 54 31 95l4 4q6 10 7.5 30t0.5 44.5t0 31.5q8 57 8 127q1 17 -4 90q-2 24 -7 72.5t-7 73.5q-2 21 -10 73q-5 31 -15.5 96t-15.5 97q-3 19 -7 56t-7 55q-4 29 -7 45t-11 38.5t-21 38.5v37q4 2 15 7t17 8l4 8q4 1 17 10q3 -1 9 -4 t9 -4q11 4 11 24q8 1 16 -7.5t14 -10.5q-1 4 -2 12.5t-2 12.5q8 -2 8 -12t2 -13q34 -16 76 -35q0 -14 15 -28.5t16 -16.5q2 -7 8 -37q11 -37 14 -45q8 -17 21 -65q2 -8 7 -24.5t7 -24.5q6 -21 18.5 -64t18.5 -65q1 -5 2 -16t2 -17q3 -13 8 -25q-2 -10 2 -39.5t-2 -40.5 q3 -3 9 -6q-1 -9 -3.5 -28.5t-3.5 -28.5q0 -2 1 -6t1 -6q0 -3 1.5 -9.5t1.5 -9.5q0 -106 -3 -141q-4 -99 -14 -150q-5 -26 -9.5 -76t-6.5 -65q-15 -103 -19 -123q-2 -14 -11 -39t-11 -35q-5 -18 -19.5 -50t-17.5 -40q-1 -3 -9 -28t-14 -39q-8 -24 -22 -52q-5 -8 -12.5 -18 l-10.5 -14q-14 -24 -34 -29q-4 1 -9 4.5t-6 3.5h-4q-8 -6 -28 -6h-19q-3 -1 -10 -6t-10 -6h-33q-4 0 -64 6q-4 0 -13.5 3.5t-14.5 2.5q-10 -2 -21 0.5t-23.5 7.5t-19.5 6q-17 5 -24 7q-24 18 -29 22q-4 2 -33 14q-1 1 -4 2.5t-4 2.5q-8 9 -25.5 26.5t-25.5 26.5 q-6 7 -18.5 22.5t-18.5 22.5q0 12 -2 18q-7 5 -11.5 13.5t-7.5 19.5t-6 16q-9 22 -22 70q-15 54 -15 88q-1 20 -3 43t-5 50t-4 44v47q8 73 18 109q2 10 6 20.5t11 24.5t10 21zM545 -23q-13 0 -15 -8q12 -6 15 8z" />
<glyph unicode="k" horiz-adv-x="1011" d="M352 717q58 -54 84 -80l123 -135q20 -22 61 -66.5t62 -66.5q3 -3 24 -27.5t33 -36.5q15 -15 43 -39q14 -14 40.5 -41.5t39.5 -42.5q5 -5 22 -23t25 -28q27 -32 31 -49q3 -13 29 -59l2 -3q-7 -10 -11 -12t-16 -2q-11 -28 -12 -33q-2 -6 2 -18q4 -33 -8 -49q-11 -20 -39 -6 q-44 20 -86 69q0 2 -4 2q0 -1 -1 -3t-1 -3q2 -2 2 -10q-6 5 -18.5 13t-16.5 12q-26 22 -41 20q-5 -3 -14 6q-12 12 -35 34.5t-41.5 41t-34.5 35.5q-98 114 -168 200q-71 87 -141 152q-23 24 -72 70q-8 4 -14 8q0 -3 -1 -9t-1 -8l6 -72t6 -73q1 -15 4 -60.5t6 -70.5 q2 -16 -2 -44.5t-4 -39.5q1 -14 -4 -86q-9 -68 -6 -135q0 -15 -2 -21q0 -6 -8 -14q-27 -13 -52 -4q-12 4 -16 4q-29 -6 -47 12q-5 5 -18.5 11.5t-14.5 7.5q-38 22 -31 80q4 20 2 30q-7 55 0 138v77q-1 25 -3 74.5t-3 73.5v121q0 17 1 36.5t2.5 43t2.5 36.5q10 129 11 162 q0 94 -2 141q-6 97 -15 185q-12 102 -12 203q0 13 6.5 35.5t7.5 29.5q5 -1 13 0t13 0t9 -6q5 5 29 25v-19q6 -5 10.5 1.5t7.5 6.5q8 -1 12.5 -13.5t6.5 -14.5q2 2 4.5 5.5t3.5 4.5q5 -2 8 -4t4.5 -4.5l7.5 -12.5q3 0 7 4q15 -27 30 -57q2 -49 6 -151q1 -15 2 -44.5t2 -44.5 q0 -13 5 -106q1 -12 2 -35.5t2 -34.5l4 -16q19 14 20 16q51 45 103 111q25 33 77 82q80 75 105 113q34 57 88 67h12h17q31 8 48 5.5t48 -13.5q3 -1 6.5 -5t7.5 -10t8 -10q-1 -2 -1.5 -5.5t-1 -9t-1.5 -9.5q0 -1 -1 -5t-1 -5q5 -11 5.5 -15.5t-3 -15.5t-4.5 -15q0 -6 -4 -10 q-9 -5 -16 -14.5t-14.5 -22t-12.5 -18.5q-82 -113 -123 -180q-16 -25 -55 -60q-14 -14 -86 -82q-21 -21 -25 -24q-6 -6 -14 -10q-21 -5 -33 -33z" />
<glyph unicode="l" horiz-adv-x="911" d="M102 1423q10 -23 33 -26q30 -6 33 -43q3 -27 12 -51q30 -100 49 -279q12 -105 23 -260v-88q-2 -41 -2 -119q-1 -14 -3 -40t-3 -40q-8 -98 -4 -147q4 -47 14 -70q18 -4 51 4q184 41 242 53q57 9 110 15q78 12 80 12q15 4 35 -8q16 -12 33 -14q1 -3 0 -6.5t0.5 -7.5t5.5 -7 q2 -1 2.5 -3.5t0.5 -7t1 -7.5h16q9 -3 17 -11v-20q5 -4 12.5 -8.5t9.5 -5.5l-10 -15q6 -6 10 -8q-13 -13 -16 -14q-2 -2 -5 -2.5t-7.5 -0.5t-7.5 -1q3 -27 -17 -45q-4 -3 -20 -35q-7 -12 -25 -4q-19 -19 -43 -25q-37 -6 -147 -33q-24 -5 -71.5 -16t-70.5 -16 q-44 -11 -75 -13q-64 -11 -109 -6q-14 4 -27 10q-81 48 -108 119q-3 8 -41 92q-41 90 -35 201q1 26 4 72t5 83.5t3 71.5q2 66 2 195q0 16 -1 34.5t-2.5 41t-2.5 34.5q-3 50 -12 103q-4 34 -14 97t-11 71q-2 19 -7 52t-7 48v41q0 10 2 10q4 3 12.5 8.5t12.5 8.5q12 16 22 14 q5 -1 17.5 4.5t19.5 3.5q1 0 14 4z" />
<glyph unicode="m" horiz-adv-x="1243" d="M1194 123q10 -14 4 -29v-20q-2 -3 -12 -23q-1 -1 -21 -16q-7 0 -23 -1t-26 -1q-7 7 -43 16q-3 0 -7.5 2t-6.5 2q-2 5 -8.5 17.5t-8.5 19.5h-2v21q-4 27 -12 39q-3 5 -8 24q-5 25 -16.5 87t-18.5 95q-4 22 -29 129q-8 35 -24 109q-12 46 -21 96q-21 98 -34 170 q-5 25 -14.5 76t-14.5 76q-5 15 -6 20q-6 -9 -6 -12q-2 -8 -12.5 -57t-16.5 -74q-2 -9 -5 -26.5t-5 -26.5q-11 -66 -27 -140q-11 -71 -20 -108q-3 -17 -10.5 -51t-10.5 -52q-6 -31 -14 -96q-3 -21 -6 -45q-3 -7 -9 -22t-8 -19q-23 -4 -33 -14q-6 -8 -24 -4q-2 2 -6 5t-6 5 q-21 0 -45 4q-25 9 -25 31q-4 12 -6 16q-11 11 -19 39q-5 15 -15 45.5t-15 46.5t-14.5 50t-14.5 51q-24 83 -68 198q-1 3 -53 121q-4 9 -26 39q-3 -12 -5 -18q-9 -68 -14 -95l-12 -69q-2 -10 -8.5 -30t-8.5 -30q-3 -15 -9.5 -42.5t-11.5 -50t-9 -42.5q-8 -35 -31 -151 q-4 -21 -12 -60.5t-11 -54.5q-8 -45 -24 -131q-2 -10 -27 -45q-2 -3 -8 -9.5t-8 -9.5q-14 -4 -19 -6q-5 1 -15.5 2t-16.5 2q-15 23 -17 25q-12 6 -24 10q-1 3 -5.5 11t-5.5 10v2l-6 6q-19 15 -10 41q7 27 14 67q3 20 12 75.5t13 86.5q13 75 37 174q9 37 28.5 110.5 t28.5 110.5q19 76 23 101q4 17 8 55q2 17 5 53t5 53q8 34 10 56q1 9 2.5 29t2.5 30q4 54 12 72q1 1 2 3t2 3q13 16 10 39q8 12 10 16q3 1 8 2t7 2q14 6 28 0q6 -3 20 -7t21 -7q7 -14 19 -35q14 -8 20 -30q10 -23 23 -46q61 -127 108 -217q38 -83 43 -96q15 -35 27 -72 q28 -76 29 -79q7 -14 8 -17q2 1 8 21q19 65 23 104q3 20 11 60.5t11 60.5q5 24 14.5 71t14.5 70q17 108 18 113q9 51 15 106l12 93q0 6 4 14q0 4 4 20q1 1 6 11h14l21 14q0 -2 2 -2q1 3 2 3.5t2 0.5t3 1.5t3 4.5h13q3 -4 9 -3.5t9 -2.5q2 0 5.5 1t4.5 1q6 -2 18.5 -5 t18.5 -5q5 -2 15.5 -8.5t15.5 -8.5q0 1 8 5q7 -7 10 -13v-4q-6 -26 4 -55q18 -79 33 -137q8 -31 26 -87t23 -71q8 -18 15 -47q1 -4 4 -12.5t4 -12.5q1 -3 2 -11.5t2 -12.5q2 -7 7 -29t7 -35q2 -12 5 -37t5 -37q1 -3 2.5 -10t2.5 -10q4 -38 16 -102q1 -6 4.5 -28t3.5 -34 q3 -28 33 -139q4 -17 11 -49.5t11 -48.5q27 -101 29 -109q4 -16 11.5 -49.5t11.5 -50.5q4 -22 16 -74q8 -29 0 -45z" />
<glyph unicode="n" horiz-adv-x="944" d="M795 1352q-5 -18 10 -23q16 -6 22 -22q3 -4 10.5 -10.5t10.5 -10.5q6 -6 6 -12q4 -12 4 -17q8 -31 19 -40q2 -1 2 -15q0 -21 2 -31q8 -31 4 -94l-6 -123q-5 -73 -5 -90q-3 -70 0 -141q1 -24 3.5 -71t3.5 -70q2 -14 2 -39q1 -16 2.5 -44.5t2.5 -52t1 -43.5q1 -19 2 -54.5 t2 -53.5q6 -169 6 -170q4 -53 0 -80q0 -8 2 -12q6 -23 -16 -35q-2 -2 -6.5 -6t-6.5 -6q-1 -1 -6 -8t-8 -9q-12 -9 -29.5 -7.5t-29.5 13.5q-24 28 -39 43q-3 3 -10.5 8.5t-10.5 8.5q-4 2 -12 10q-7 12 -23.5 37t-23.5 37q-18 34 -55 100t-56 100q-12 23 -36.5 72t-38.5 74 q-9 18 -28 52.5t-28 51.5q-7 15 -24.5 40t-24.5 40q-4 10 -15 27t-14 24q-8 18 -45 59.5t-45 61.5q-1 2 -5 10.5t-5 12.5q-1 0 -3 -1t-3 -1v-29q0 -6 1 -18.5t1 -18.5q-5 -86 6 -211q1 -27 3 -83t3 -83q0 -19 -0.5 -54t-0.5 -64t1 -54q3 -43 -4 -98q-1 -9 -5 -27.5t-5 -27.5 q0 -40 -16 -64q-11 -18 -25 -24q-5 -3 5 -5q2 -1 6 -1q6 -2 6 -2.5t-3 -0.5q-4 -12 -4 -18q-6 0 -17 -1t-16 -1q-4 5 -15 16t-17 21t-8 22q-3 -1 -8.5 -3t-8.5 -3h-14q-9 13 -31 39q-2 0 -7 -1t-7 -1q-15 5 -13 14q4 17 -16 37q4 16 -4 47q-2 10 -4 32.5t-4 33.5 q-15 84 -19 240q-4 78 -4 116q-1 17 0 51t0 52q-1 28 2 85.5t2 86.5q0 12 -1 25.5t-2.5 29.5t-2.5 25q-11 104 -4 170q4 80 8 122q0 28 23 31q8 0 14 6q7 5 14 15q2 4 23 57q2 0 2 2h4q9 -4 12.5 -5t6.5 1.5t6 9.5q4 8 8 12q3 -7 10 -10v-4q7 -14 11.5 -16t19.5 2 q13 4 63 -6q4 -7 17.5 -16t17.5 -15q20 -22 64 -45q15 -7 18 -21q11 -29 49 -145q5 -13 11.5 -35.5t13.5 -41.5t16 -34q3 -6 10.5 -18t10.5 -18q8 -15 25.5 -43.5t25.5 -42.5q35 -68 41 -82q6 -17 17 -50.5t16 -48.5l12 -30q7 -13 21.5 -39t21.5 -39q0 -1 14 -19v64 q-4 90 -4 131q0 86 2 129q3 44 6 90q1 29 3.5 89t3.5 89q5 58 8 72q3 12 4 26.5t1 31.5t1 26q4 50 16 65q14 17 27 17q10 0 16 2q24 5 27 4.5t24 -10.5h2h7z" />
<glyph unicode="o" horiz-adv-x="759" d="M426 41q-5 -9 -8 -4q-7 7 -17 2q-12 -1 -33 -4t-32 -4q-43 -7 -74 8q-12 5 -53 31q-9 6 -27 19.5t-20 14.5q-11 9 -22 21.5t-17 21t-18.5 27t-16.5 23.5q-2 3 -11 15.5t-14 20.5q0 1 -3.5 5.5t-3 7t4.5 8.5q2 4 0 4q-6 6 -5.5 19t-0.5 20q-1 2 -1.5 3.5t-1 4t-1.5 4.5 q-8 -4 -10 -6l-2 2q5 10 -4 19q-8 12 -10 18q-20 61 -23 137q-6 86 6 172q2 23 23 187q3 18 8 52.5t8 51.5q2 14 7 38t7 34q4 18 11.5 53.5t11.5 54.5q2 10 5 21.5t7 25t6 21.5q2 6 6 10.5t11 8.5t8 5q6 3 8 5q2 -2 6 -6.5t6 -6.5q7 21 11 29h2q0 -12 -2 -18q12 -6 12 8 q2 18 23 35l36 24q11 7 11 23q-5 0 -13 4l2 4q48 27 78 31q12 0 27 -3q28 -9 55 3q6 3 12 0q53 -24 91 -80q12 -18 36 -47q18 -23 25 -33q37 -52 94 -160q7 -14 25 -70q2 -2 2 -8q23 -46 31 -127q16 -140 12 -209q-4 -104 -19 -159q-1 -5 -4 -12t-4 -9q0 -2 -3.5 -9.5 t-4.5 -12.5q-4 -29 -16 -41q-4 -8 -4 -13q-5 -13 -14.5 -36.5t-14.5 -36.5q-5 -11 -18.5 -32.5t-18.5 -33.5q-6 -12 -14.5 -25t-14 -20t-18.5 -22t-17 -19q-1 -1 -4.5 -6t-5.5 -7.5t-6 -5.5t-7.5 -4.5t-8.5 -1.5q-3 -6 -7.5 -10.5t-11.5 -9t-10 -6.5q-7 -5 -21.5 -15.5 t-21.5 -15.5q-4 -4 -4 -8h2zM551 723q-2 6 -2 18q-4 24 -4 39q-3 80 -27 150q-19 51 -59 119q-10 15 -10 18q0 8 -3 12.5t-8.5 8.5t-7.5 6q-10 12 -29 8q-29 -3 -53 -21q-12 -6 -14 -6q-5 -1 -35 -6q-11 0 -14 6q-6 12 -15 -2q-1 -3 -3 -8t-3 -8q-19 -74 -26 -92 q-12 -34 -19 -91q-9 -57 -26 -184q-2 -13 -8 -48.5t-7 -55.5q-4 -114 -4 -176q0 -50 16 -103q18 -68 64 -76q4 0 4 -2q20 -15 49 -8q20 6 62 27q4 4 8 6q4 6 14 16q4 5 21 23.5t26.5 31t16.5 27.5q50 97 59 135q5 21 4 23q-2 9 2 20q24 93 25 115q1 14 3 39.5t3 38.5z" />
<glyph unicode="p" horiz-adv-x="925" d="M207 61q-17 25 -17 37q0 5 -3.5 14t-4.5 11q-7 82 -4 147q1 32 9 132t8 155q2 133 2 401q0 30 -1 89t-1 88v79q0 7 -3.5 20.5t-3.5 16.5q-11 -1 -29.5 8t-27.5 5q-19 -9 -27 -11q-42 -10 -73 33q-14 20 -25 45q-3 9 -4.5 14.5t0 12t2 8t6.5 10.5t8 13q4 5 12.5 15 t12.5 15q6 7 12 11.5t15.5 8t14 4.5t17 3.5t15.5 3.5q2 1 7.5 1t8.5 1q49 16 115 16q1 0 94 -6q31 -2 119 -24q34 -11 88 -37q31 -15 74 -39q4 -2 11 -7t11 -7q87 -57 117 -91q31 -31 49 -63q39 -64 59 -131q3 -9 13 -59q2 -23 2 -66q-2 -19 -27 -64q-15 -24 -21 -33 t-18.5 -20.5t-30.5 -21.5q-28 -15 -58 -28t-75.5 -30t-58.5 -22q-8 -3 -21.5 -8t-24.5 -8.5t-20 -6.5q-20 -6 -60 -10t-60 -10q-19 -4 -24 -14.5t-7 -34.5q-2 -17 -12 -54t-11 -57q-2 -33 -6 -97t-6 -97q-3 -49 0 -101q3 -48 -2 -84q-6 -37 -4 -65q0 -13 -4 -17 q-4 -1 -1 -12.5t3 -15.5q-4 -11 -12 -7q-2 1 -7 4.5t-8 5t-7.5 3t-8.5 0.5q-2 0 -6 4q-2 1 -8.5 4.5t-8.5 5.5q-8 7 -27 11t-22 5q-2 0 -7 -1t-7 -1zM387 1237q0 -1 -15 -8q-6 -3 -1 -4q2 3 7 6t8 4.5t1 3.5q5 -3 -3 -12.5t-5 -12.5q6 -5 6 -12.5t-2.5 -17t-1.5 -15.5 q0 -4 2.5 -14t1.5 -16q-2 -17 -7 -55.5t-7 -59.5q-2 -28 -9 -66q-4 -42 -8 -61q-1 -8 12.5 -19.5t26.5 -17.5q16 -7 53 4q162 31 224 58q37 18 49 26q18 9 18 25q-2 8 -2 26q-3 30 -36 77.5t-62 74.5q-37 37 -129 76q-48 23 -107 26q-12 0 -20 -8q2 -4 6 -8z" />
<glyph unicode="q" horiz-adv-x="1280" d="M989 -31q3 -2 9.5 -7t9.5 -7q59 -45 100 -74q16 -12 16 -24q0 -4 9 -13q12 -15 4 -34q-1 -3 -4.5 -9t-5 -11t-1.5 -9q0 -18 -22 -33q-13 -13 -14 -20q-2 -8 -11 -13t-18 -2q-5 0 -17 4q-13 5 -38 15.5t-37 15.5q-6 3 -20 9.5t-25 12t-19 11.5q-7 4 -55 47q-18 18 -19 20 q-13 10 -24 7q-5 -2 -15.5 -5.5t-15.5 -5.5q-102 -26 -143 -26h-17q-84 -16 -182 32q-4 1 -17 7.5t-20 7.5q-42 12 -88 51q-69 52 -139 158q-19 27 -76 121q-35 55 -59 137q-4 14 -7 30t-5.5 35.5t-4.5 30.5q-4 42 -8 59q-12 60 -8 154q1 8 4 24.5t4 24.5q6 33 18.5 98.5 t18.5 98.5q8 40 31 84q7 14 18.5 41.5t18.5 40.5q47 101 80 141q2 3 30 31q7 6 21.5 17.5t21.5 17.5q21 17 61 52.5t60 53.5q7 6 64 41q26 18 39 23q12 5 61 20q6 2 18.5 5t18.5 5q53 14 96 6q1 -1 4.5 -1.5t6 -1.5t3.5 -3q5 -5 12 -8t13 -4.5t15.5 -3t13.5 -2.5 q27 -4 75 -37q15 -12 39 -41q16 -18 39 -49q67 -94 90 -176q19 -65 70 -133q5 -8 27 -52q4 -7 11 -21.5t11 -21.5q25 -44 27 -47q1 -1 2 -4t2 -4q13 -11 25.5 -39t19.5 -37q6 -6 16 -45q2 -6 19 -84q19 -86 6 -157q-15 -83 -43 -170q-28 -74 -43 -105q-10 -21 -33 -57 t-29 -47q-19 -27 -26 -47q-14 -36 -60 -82l-3 -4q-3 -4 -5 -5q0 -4 -2 -8zM627 336q2 -1 7 -3t7 -3q15 -2 27 -19q2 -4 7 -11t7 -11q32 -42 41 -56q20 -38 70 -96q13 -16 28 -26q12 -6 16.5 -5t10.5 13q5 6 13 20.5t13 20.5q56 76 99 200q7 19 15.5 54t12.5 47 q26 106 19 176q-6 61 -25 127q-17 48 -20 67q-17 82 -64 164q-64 108 -80 152q-12 31 -34 76q-23 47 -68 61q-2 0 -31 12q-6 2 -21 7.5t-24 7.5q-20 4 -24 14q-2 3 -11 8q-27 6 -30 41q-4 -2 -14.5 -5t-14.5 -5q-7 -4 -22.5 -12.5t-22.5 -12.5q-61 -37 -90 -75 q-10 -13 -23 -23t-39 -30.5t-40 -30.5q-37 -33 -52 -62q-8 -15 -23.5 -44.5t-23.5 -43.5q-2 -5 -10.5 -18t-11.5 -21q-16 -35 -33 -82q-2 -5 -11.5 -32.5t-11.5 -42.5q-1 -16 -9 -77.5t-7 -94.5q0 -11 -1.5 -44.5t-0.5 -52.5q0 -32 10 -47q6 -9 12 -26t9 -23q15 -34 22 -84 q2 -13 15 -25q5 -7 17 -20.5t17 -20.5q23 -28 45 -65q70 -102 113 -145q58 -54 121 -62q51 -7 125 -4l12 6q-11 21 -20 33q-42 61 -54 106q-4 24 -4 37q0 42 2 62q0 18 6 22q10 10 13 23l10 10q3 -1 11 -9.5t16 -6.5q0 6 2 10z" />
<glyph unicode="r" horiz-adv-x="880" d="M133 -63q-8 -3 -14 0q-12 9 -27 6l-14 14q-3 1 -12 2t-13 2q1 6 2 17.5t2 17.5q-6 0 -22 4q-6 18 -2 59l-2 2l2 -2q-4 4 -4 11v24q2 0 4 -2q2 4 0.5 10.5t-0.5 8.5v26l6 117q4 82 6 125q4 79 2 121q-1 20 -1 107.5t-3 135.5q0 2 -2 17.5t-4 23.5q0 1 -10 31q0 2 2 6 q7 17 4 37q-1 16 -3 49t-3 49v15q-4 14 -5 28.5t0 39t1 30.5q1 3 10 21h-15q0 4 -1 11.5t-1 10.5l-3 51l-3 51q0 47 -2 72q0 22 -4 76q0 3 -1 10.5t-1 11.5q0 2 1 7t1 6q0 10 -4 30q2 2 5 6.5t5 6.5v16h2q2 7 7.5 23t7.5 26q6 2 17 5.5t17 5.5q2 2 5.5 7t5.5 7q-1 6 -8 7 t-9 3l8 8q3 9 7 17h2q1 -1 0 -1q-1 1 -2 1q39 15 112 26q64 8 144 -2q28 -4 41 -4q12 -2 32 -6q3 -2 9.5 -5t9.5 -5q4 2 12 0.5t11.5 -3t11 -5.5t10.5 -5q42 -21 57 -38q5 -5 8 -5q22 -3 25 -24q8 -4 12 -8q6 -8 17.5 -24.5t17.5 -24.5q21 -11 27 -33q0 -12 10 -17q4 0 8 -2 q-6 -6 -6 -8q-3 -10 6 -10q3 -5 8.5 -15.5t8.5 -15.5q-6 -11 4 -16q0 -2 -1 -7t-1 -8q4 0 8 -4q7 -11 0 -20h2q1 -9 6 -59q6 -64 -8 -123q-1 -5 -6 -35q-6 -39 -25 -70q-9 -7 -18 -24.5t-11 -20.5q-20 -25 -24 -29q-32 -37 -51 -45q-7 -4 -15 -9t-18 -11.5t-15 -9.5 q-8 -6 -18 -4q-18 -13 -25 -17v2q-8 -4 -24 -8q-7 -2 -25 -8t-31 -9.5t-26 -4.5q-1 0 -3 -1.5t-3 -1.5q-35 -13 -45 -16q-3 -9 6 -18q36 -32 59 -58q7 -8 20 -21.5t23.5 -25.5t18.5 -24q4 -6 15 -17.5t15 -17.5q56 -70 60 -76q8 -10 23.5 -29.5t23.5 -29.5q7 -11 29 -37 q40 -50 47 -60l6 -6q11 -10 31.5 -35t33.5 -36q1 -1 37 -43q38 -38 56 -58q25 -25 36 -47v2q11 -7 9 -14q-1 -2 -5 -7t-6 -8q0 -6 -3 -13t-5.5 -10.5t-9 -12t-8.5 -11.5q-2 1 -5 3.5t-5 3.5q-1 -1 -2.5 -3t-3 -3.5t-3.5 -2.5q2 -1 4 -4t2 -4l-2 -2q-12 0 -18 -2 q-2 -1 -16 -10q-12 4 -19 4q-72 55 -145 147q-13 16 -33 47q-3 5 -10 9q-2 4 -6.5 12t-6.5 12q-4 2 -12 2q-17 14 -24 43q-1 0 -5 1t-6 1q-4 5 -12 15.5t-15 19.5t-12 17q-2 4 -6 16q-4 6 -8 18q-3 1 -8 3.5t-8 3.5q0 4 -4 12q-9 5 -17.5 13.5t-12.5 14t-12.5 18.5t-11.5 17 v-2q-6 7 -18 20.5t-18 20.5l-101 101q-3 2 -9 7t-9 7q-6 -3 -6 -19v-86q0 -19 0.5 -54t0.5 -64t-1 -54q0 -31 -7 -71q-8 -62 -8 -92q0 -18 -4 -58q-2 -25 -2 -74q0 -10 -4 -14v-4v4l6 -12q2 -10 2 -29q-5 -10 -14 -37q-8 -16 -14 -24q-3 -5 -21 -10h2zM31 1008v-2v2z M479 1059q24 21 37 53q22 51 25 111q0 10 -2 16q-1 8 -5.5 23.5t-5.5 23.5q-9 35 -32 55q-44 35 -70 45q-48 21 -125 25q-27 2 -82 -2q-4 0 -22 -6q-5 -1 -14.5 -4t-14.5 -4l-8 -4q-9 -4 -13 -9q1 -24 11 -163q2 -27 6 -83t6 -83q10 -138 14 -162q2 -1 3.5 -2.5t2.5 -1.5 q27 0 39 4q24 5 56 16q10 4 29.5 12.5t29.5 12.5q2 1 5 3t5 3q0 1 -1 2t-1 2q-23 0 -33 2q7 3 20.5 10.5t20.5 10.5q36 18 54 26q4 4 8 6q11 11 16 13q14 6 49 37q1 1 3 4.5t4 5.5q-11 0 -15 2zM438 920q3 10 1 13t-13 3q-6 -6 0 -14q3 -6 12 -2zM14 1276v-2q0 2 2 2h-2z M487 848v2v-2z" />
<glyph unicode="s" horiz-adv-x="690" d="M0 285q38 21 49 28q2 4 0 15.5t0 17.5q3 7 -12 37q-6 14 -1.5 23t19.5 8q6 0 10 5.5t5 6.5q4 -3 12 -8t12 -8q66 -49 133 -52q65 -4 90 2q101 28 119 127q1 17 1 23t-2 23t-3 24q-9 7 -16 27.5t-15 27.5q-15 14 -88 68q-7 5 -26.5 19t-29 21.5t-25 20t-27.5 25t-23 25.5 q-32 44 -55 79q-6 9 -10 21q-33 81 -39 104q-22 80 -25 113q-6 58 -6 119q0 91 51 159q11 16 11 17q17 50 81 67q17 5 43 5q15 -2 56 12q6 2 12 2q38 -4 55 -8q27 -6 56 -6q20 1 41.5 -4.5t46.5 -14.5t39 -12q5 -1 10.5 -4.5t12 -10t9.5 -8.5q-2 -11 9 -25.5t12 -19.5 q4 -8 0 -12q-5 -12 8 -29q-9 -32 -14 -45l-16 4t-19 4q-3 -22 14 -34q-10 -1 -28.5 -3.5t-28.5 -3.5q-1 -1 -3.5 -6t-4.5 -8q-7 1 -18 4t-15 4q-66 15 -107 6q-4 -1 -15 -3t-18.5 -4.5t-13.5 -6.5q-19 -15 -24 -22q-61 -104 -23 -220q2 -8 5 -14.5t8.5 -14t8.5 -11.5 t12 -11.5t11 -9.5t13 -10.5t12 -9.5q70 -49 98 -70q1 -1 3 -2t3.5 -2.5t1.5 -3.5q2 -9 8 -14.5t16.5 -10.5t14.5 -8q36 -33 56 -61q8 -10 19.5 -31.5t16.5 -28.5q33 -51 43 -96q0 -2 17 -41q10 -20 6 -29l-2 -6q7 -10 9.5 -22.5t2 -21t-3 -23t-2.5 -21.5q-1 -11 -27 -63 q-5 -11 -14 -41q-33 -117 -104 -162q-56 -34 -74 -39q-5 -1 -19 -4t-22 -4q-5 0 -46 -7.5t-63 -1.5q-6 2 -18 2t-16 1q-14 3 -39.5 6t-46.5 7t-39 11q-9 4 -27 17q-48 54 -51 57q-9 9 -6 24q3 10 -4 17q-15 23 -27 37zM221 1462q-28 0 -33.5 -2.5t-9.5 -19.5q2 1 10.5 2.5 t13 3t10 6t9.5 10.5zM641 440h-8q0 -3 -1 -8.5t-1 -7.5q2 -2 6 -2q1 3 2 9t2 9z" />
<glyph unicode="t" horiz-adv-x="1239" d="M39 1458q11 0 28.5 -0.5t31.5 -0.5t26 1q13 0 36.5 3.5t31.5 4.5q9 1 26 1t25 1q197 0 338 5q30 0 200 10q33 1 99 2t100 2q35 3 72 6q53 0 67 -25q17 -28 49 -28q3 0 11 -4q-4 -16 -4 -23q-6 -29 12 -47q14 -14 8 -33q-11 -17 -12 -20q-10 -27 -37 -27q-8 0 -24 -1 t-25.5 -1.5t-23 -2t-25.5 -5.5q-13 0 -19 2q-12 4 -33 0q-16 -3 -32.5 -5t-36.5 -4t-31 -3q-35 -6 -68 -6q-12 -1 -33.5 -2.5t-33.5 -2.5h-25v-14q2 -16 2 -45q0 -43 2 -63q2 -28 7.5 -84.5t7.5 -85.5q5 -49 14 -168l12 -177q11 -180 11 -296q0 -18 -3.5 -102t-3.5 -128 q0 -67 -4 -102q-5 -33 -41 -51q-1 -1 -5 -1t-5 1q-14 10 -47 14q-7 0 -10 6q-18 23 -19 27q-10 17 -22 22q-4 2 -8 10q-20 45 -23 54q-4 12 -4 39q4 130 8 194q6 82 -14 178q-15 69 -21 146q-4 33 -20 104q-33 114 -39 172q-1 11 -1 33.5t-1 32.5l-6 57l-6 57 q-4 26 -12 75.5t-11 68.5q-2 11 -5 13.5t-15 2.5q-41 2 -123 2q-18 -4 -29 10q-7 7 -14 7q-50 4 -72 4q-71 0 -106 2q-43 3 -68 35l-10 10q-15 15 -17 28q-2 6 -12 27q-7 28 4 47q1 2 8 9.5t7 13.5q0 1 2 2t2 2q15 0 12 14z" />
<glyph unicode="u" horiz-adv-x="720" d="M678 492q3 -7 0.5 -43t-2.5 -43v-21q0 -25 -4 -37q-4 -9 -4 -43q-1 -15 -3 -46t-3 -46q-7 -45 -25 -78q-24 -41 -51 -78q-40 -46 -88 -71l4 8q-4 1 -19 -4q-20 -7 -34 -2q-8 2 -27 2q-91 6 -92 6q-42 3 -82 18q-40 14 -58 43q-40 63 -57 162q-2 15 -8 42t-8 42 q-8 54 -8 78q-3 62 -3 125q-4 73 -14 108q-18 88 -24 181q-2 21 -5.5 60t-5.5 60q-2 10 -10 35q-3 17 -9 53l-9 54q-6 30 -6 33q-5 32 -3 45q1 8 -0.5 23t-1.5 20q-2 14 -2 43q0 18 -4 22q-2 2 -2 8q3 40 -8 95q-3 22 6 40q1 4 3 12.5t3 12.5v2q7 5 16 21t15 22 q9 -31 14 -43q2 3 5 6.5t4 5.5q22 -40 30 -49q32 -35 41 -67q0 -7 6 -19q3 9 5 13v-3q1 -6 3 -17t3 -17q8 -117 14 -170q1 -16 5 -46t5 -46l6 -93q1 -28 2 -82t2 -81q1 -16 5.5 -49.5t5.5 -51.5q2 -9 4 -33t2 -28q7 -30 21.5 -89t21.5 -89q4 -17 6.5 -49.5t5.5 -45.5 q3 -12 8.5 -33.5t9 -39.5t5.5 -35q3 -15 26 -15h21q13 1 39.5 1.5t40.5 1.5q1 0 9 -1t16 -0.5t16 3.5q4 0 4 8q2 13 13.5 46.5t12.5 51.5q1 12 6.5 59.5t6.5 73.5q1 20 0.5 75t1.5 75q0 14 -2 40t-2 38q0 106 -2 157q-1 27 -11 127l-6 105q-6 106 -33 211q-1 6 -6 28.5 t-7.5 38t-2.5 31.5q3 27 6 57q10 0 12 -2q2 28 8.5 37t34.5 18q5 -2 15.5 -5t15.5 -5q0 -4 2 -6l2 -2q15 4 21 -8q4 -4 16 -12q6 -3 10 -11q0 -4 4 -4q9 0 13 -12q8 -27 10 -45q3 -6 0 -12q-5 -9 0 -37q3 -16 12 -61t13 -70q0 -1 6 -47q6 -41 14 -123q17 -138 18 -152 q1 -31 6.5 -89t6.5 -71q7 -59 4 -106q-5 -42 2 -100z" />
<glyph unicode="v" horiz-adv-x="946" d="M803 1364l8 -16q1 0 11 4t14 8q4 3 12 29q4 -16 4 -19q3 -8 4 -9t9 -2q3 -1 5 -1q15 -4 19 -12q2 -3 -2 -25q1 -1 4.5 -8.5t5.5 -12.5q0 -1 1 -4t1 -4q-3 -10 -3 -14.5t3 -14.5t4 -14q0 -25 -2 -30q-17 -65 -22 -119q0 -4 -3.5 -12.5t-3.5 -12.5q-1 -12 -3 -33t-3 -32 q-2 -14 -6 -41.5t-6 -42.5q-4 -46 -8 -66q-3 -18 -10.5 -52.5t-10.5 -51.5q-2 -13 -4 -39.5t-4 -40.5t-12 -76q-8 -40 -8 -59q2 -39 -15 -125q-5 -25 -17 -79t-17 -83q-5 -19 -10.5 -54.5t-6.5 -43.5t-5 -23.5t-5 -23.5q0 -9 4 -29q7 -23 4 -45v-4q-10 -10 -10 -45 q0 -40 -33 -60q-15 6 -20.5 4t-10.5 -16q-6 -12 -6 -25q0 -20 -12 -26q-11 -4 -23 8q-8 8 -12 14q-23 -5 -41 23q-26 43 -33 72q-5 16 -15 46t-15 46q-20 55 -59 162.5t-58 162.5q-41 120 -84 240q-8 21 -27.5 58.5t-21.5 41.5q-86 172 -127 258q-14 30 -39.5 90t-38.5 89 q-5 10 -16.5 28.5t-14.5 24.5q-1 1 -4 4.5t-4 5.5l-2.5 5t-0.5 6.5t3 6.5l2 5q-5 16 1.5 42t6.5 29v12q3 1 8.5 4.5t6.5 4.5q-1 3 -2 8t-2 8q34 15 34 43q3 3 13.5 5.5t11.5 10.5q8 0 12 -2q1 4 2 11.5t2 11.5q4 -4 11 -12t10 -11q1 0 2 1t2 1q-3 9 -6 21q20 -3 35 -18 q27 -27 30 -29q1 2 2 6t2 6q2 0 2 -2q19 -30 33 -49q4 -6 21 -10q5 -2 13.5 -5t10.5 -4q3 -4 11 -14.5t10 -15.5q3 -8 9 -23.5t9 -23.5q12 -52 53 -148q6 -15 15 -45q6 -18 19.5 -55t19.5 -55q6 -22 16 -50q8 -28 35 -108q33 -87 43 -109q13 -34 67 -153q3 -8 8.5 -25.5 t8.5 -25.5q7 -14 12 -29q20 28 29 59q27 112 31 180q0 30 12 84q11 46 22 127q14 84 29 144q12 59 18 117q1 14 15 67q3 13 28 100q1 3 7 11t8 12z" />
<glyph unicode="w" horiz-adv-x="1343" d="M8 1395q-10 16 -4 30v23q2 4 6.5 13.5t5.5 11.5q4 3 12.5 9t12.5 9q33 0 51 2q9 -9 49 -18q3 0 8 -2.5t7 -2.5q6 -14 18 -38h2v-25q0 -24 12 -41q5 -8 9 -27q13 -73 39 -198q2 -10 30 -137q15 -58 27 -117q16 -70 22 -105q7 -36 20 -101l17 -85q14 -77 33 -164 q0 -7 6 -22q6 12 6 14q5 24 15.5 71t15.5 70q2 9 5 29t5 29q26 132 29 151q4 20 11 60t11 59q5 21 14 59.5t11 48.5q6 37 14 107q1 7 3.5 23t3.5 26q3 6 18 41q24 8 35 19q8 8 26 4q2 -2 7 -6t6 -5q30 -3 51 -6q24 -9 27 -33q0 -10 6 -16q9 -10 18 -43q21 -57 33 -100 q5 -16 10.5 -35t11.5 -40.5t9 -33.5q42 -136 75 -215q9 -26 30.5 -74t25.5 -57q7 -13 30 -43q1 4 2 11t2 10q5 44 15 102q2 14 7 39.5t7 36.5q14 48 17 63q23 93 34 148q16 69 33 161q4 21 12.5 63.5t12.5 63.5q4 23 13 70.5t13 71.5q1 6 5 13t7 11.5t9 12t8 10.5q2 4 18 20 q12 3 21 6q5 0 16 -1t17 -1q3 -4 9 -13.5t9 -14.5q3 -1 13.5 -5.5t13.5 -5.5q4 -6 12 -22v-2l6 -6q20 -20 12 -45q-8 -24 -16 -72q-13 -79 -27 -176q-11 -70 -38 -191q-9 -36 -31 -115.5t-33 -121.5q-4 -18 -12.5 -55t-12.5 -56q-3 -15 -8 -57l-12 -117q-1 -10 -4 -29.5 t-4 -29.5q-1 -3 -6 -66q-4 -54 -15 -75q0 -7 -2 -9q-16 -16 -12 -41l-12 -18q-2 -1 -7.5 -2t-7.5 -2q-15 -6 -32 0q-13 6 -43 14q-9 15 -21 39q-11 6 -22 33q-5 12 -23 49q-105 209 -117 236q-25 46 -47 104q-4 8 -31 76q-5 16 -30 88q-1 1 -2.5 4l-3 6t-2.5 6 q-6 -4 -11 -20q-15 -54 -24 -115q-3 -25 -13 -71.5t-12 -57.5q-2 -14 -29 -156q-15 -75 -22 -118q-7 -42 -14 -119q-2 -17 -6.5 -50t-6.5 -49q0 -4 -4 -16t-6 -20q0 -1 -1 -2.5t-2.5 -4t-2.5 -4.5q-3 0 -7.5 -1t-6.5 -1q-4 -2 -11.5 -7t-11.5 -7l-2 2q-2 -4 -5.5 -5t-4.5 -5 h-17q-3 3 -9 2.5t-9 3.5q-2 0 -5.5 -1t-4.5 -1q-6 2 -20.5 5t-20.5 5t-18 8.5t-15 8.5q-2 0 -8 -3q-2 2 -6 6.5t-6 6.5v4q7 22 -5 61q-16 77 -36 148q-6 25 -15 53.5t-21 63t-18 53.5q-10 41 -14 51l-4 12t-4 15q-1 4 -3 13t-3 13q-2 11 -7.5 34t-7.5 34q-2 14 -6 41.5 t-6 40.5q0 3 -1 10.5t-1 11.5l-18 111q-11 61 -11 65q-2 31 -32 152q-18 66 -27 106q-5 20 -15.5 59t-15.5 58l-24 111q-3 13 -9.5 38.5t-9.5 39.5q0 3 -1.5 11.5t-2 13t0 11.5t3.5 13z" />
<glyph unicode="x" horiz-adv-x="1110" d="M465 928q6 6 6 10q10 37 29 187.5t26 183.5q8 38 39 143q3 8 8 15.5t12.5 16.5t10.5 13q7 7 12 4q17 -5 25 15q1 2 5.5 5t6.5 5q11 -11 27 -23q1 0 2 1t2 1t8.5 5t13.5 1q5 -2 7 -5t1 -10l-1 -7q0 -16 10 -29q11 -25 6 -45q-5 -22 -14.5 -65t-14.5 -64q-5 -22 -15 -68.5 t-15 -68.5q-1 -6 -6.5 -48.5t-10.5 -64.5q-5 -21 -35 -118q-15 -41 11 -74q21 -29 122 -197q126 -201 172 -289q23 -44 71.5 -123t66.5 -112q5 -9 14 -35q1 -3 -0.5 -11t-1.5 -11q-4 -12 -4 -21q0 -11 1 -33.5t1 -34.5q0 -7 -6 -10q-15 -18 -15 -41q0 -16 -8 -24 q-8 0 -19 -1t-16 -1q-1 0 -9.5 2t-12.5 4q-2 1 -47 18q-1 -4 -4 -11t-4 -11q-18 9 -21 12q-117 150 -127 162q-32 38 -75 117t-58 102q-23 35 -78 99.5t-78 101.5q-7 7 -8 10q-4 -6 -8 -14q-12 -36 -34.5 -108t-33.5 -108q-3 -10 -8 -31.5t-8 -31.5q-45 -113 -53 -135 q-3 -7 -25 -70q-8 -16 -14 -22q-1 -2 -8.5 -10t-10.5 -11.5t-7 -11.5t-5 -16q-2 -8 -6.5 -16.5t-11 -18t-8.5 -13.5t-6.5 -11t-6.5 -11q-11 -24 -35 -45q-4 -4 -16 -8q-6 -2 -16 -2q-2 0 -11 -1.5t-12 -0.5q-2 2 -7.5 5.5t-8.5 6t-7 7t-6 9.5q-9 12 -22 25q-14 8 -14 26 q-3 34 10 70q24 74 28 115q6 35 29 61q32 34 43 107q15 94 66 213q17 38 47.5 114.5t46.5 114.5q8 22 -4 43q-14 20 -28.5 43t-32 50.5t-27.5 43.5q-4 7 -24 39.5t-29 50.5q-43 76 -125 224q-44 82 -64 147q-7 21 2 39q4 7 10.5 19t12.5 22t12 18q15 22 39 25q19 0 35 16 q5 4 28 13q20 7 33 -4q6 -3 14 -3q21 9 41 -4q4 -4 7 -10q5 -10 14 -31.5t14 -31.5q15 -32 43 -102t49 -111q13 -41 49.5 -132t49.5 -110q6 -6 8 -10z" />
<glyph unicode="y" horiz-adv-x="903" d="M184 -133q-4 -6 -10 -12q-33 2 -22 34q8 33 28 95q1 4 3.5 12t4.5 15t5 12q38 106 61 170q10 29 33.5 78.5t31.5 68.5q28 56 60 141q24 59 45 117q10 20 -4 31q-3 2 -6.5 7t-6 8t-6.5 4.5t-10 0.5q-3 4 -10 11.5t-10 11.5q-22 25 -56 74.5t-49 68.5q-3 4 -61 94 q-5 8 -15 22t-12 17q-13 20 -18 37q-4 14 -27 47q-42 59 -67 105q-5 8 -17.5 25t-13.5 18q-23 31 -21 55q0 15 -12 39q-2 11 -0.5 16.5t6.5 15.5t6 15q5 -1 8.5 1.5t6 7.5t4.5 7q8 6 20 6t21 -6q6 -6 12 -2q1 0 4.5 -1t5.5 -1q30 -11 54 -41q11 -16 34 -49t35 -49 q18 -26 39 -66q19 -41 72 -106q46 -53 94 -137q10 -16 31.5 -45.5t31.5 -44.5q3 0 7 -4l18 36q36 64 66 174q25 87 53 142q11 17 18 41q4 9 11.5 28.5t11.5 28.5q2 6 8 18.5t8 18.5q16 31 23 51q3 10 9.5 18.5t17 18t14.5 14.5q1 2 4 2.5t7.5 0.5t6.5 1q4 2 14 2.5t15 2.5 q4 2 9 2t11.5 -1t9.5 -1l5 -3q28 -28 26 -43q-8 -93 -22 -135q-3 -11 -9 -29l-11 -33t-9 -28q-4 -15 -14 -40t-13 -36q-9 -38 -16 -47q-8 -11 -14.5 -25t-10 -25t-8.5 -29t-8 -27q-25 -75 -57 -182q-5 -16 -18.5 -54t-20.5 -59q-2 -7 -4 -25t-4 -26q-3 -1 -5.5 -2.5 t-4.5 -4.5t-3 -5.5t-2 -7.5t-2 -7q-32 -107 -51 -162q-1 -4 -53 -127q-7 -17 -21.5 -48t-21.5 -48q-4 -9 -13 -39q-13 -61 -71 -215q-5 -13 -25 -20q-6 -1 -18 -8t-17 -9l-20 10l-2 -2q-5 -6 -18.5 -1.5t-18.5 1.5q-23 -10 -37 7q-9 5 -14 2q-10 -2 -19 10z" />
<glyph unicode="z" horiz-adv-x="1437" d="M455 270q-20 -25 -23 -37q8 -2 19 -2q16 1 51 3.5t55 3.5q105 8 156 14q20 2 42.5 5t50 7t42.5 6q64 9 129 15q20 4 29 4q9 2 90 16t125 21q2 -2 10.5 -8.5t15.5 -10.5q5 -1 17 -3t14 -3q11 -9 34 -26.5t34 -26.5q-3 -6 -13 -21q-4 -2 -14 -5.5t-16 -6.5q10 -4 22 -8 q0 -5 -6 -17q14 7 18 11q1 -1 4 -3.5t5 -4.5q1 1 4.5 6.5t4.5 6.5t6 3.5t9 -2.5q10 -6 27 -23q-8 -7 -41 -16q-18 -6 -19 -8q-14 -22 -43 -25v-16q-18 -12 -20 -13q4 -1 14 -8q-53 -22 -102 -35v-1q-3 -3 -4 -5q-8 -2 -26 -7t-26 -7v2q-13 -2 -37 -5.5t-32 -4.5q-11 4 -25 5 t-24 0t-28.5 -3.5t-25.5 -3.5q-15 -1 -41.5 -6.5t-35.5 -6.5q-6 -1 -17.5 -3t-17.5 -3q-23 0 -33 2q-5 -1 -18 -5t-19 -5t-17 -3t-20.5 -1t-19.5 4q-8 -6 -19.5 -7t-21.5 1t-21 0q-4 -2 -12 -10q-13 4 -20 2q-56 -4 -82 -8q-23 0 -29 6q-10 5 -25 -2q-3 -2 -7.5 -6t-6.5 -5 q-15 -3 -43 -8t-43 -8q-7 -1 -20.5 -3t-20.5 -3q-44 -6 -90 -12q3 -3 6 -9h-18v3h-2q-15 -11 -55 -3.5t-52 5.5q-50 19 -63 61h-4h-7q-2 1 -8 4.5t-8 5.5q-5 14 -8 19q-8 0 -14 -2q-15 10 -21 16q-6 12 3.5 26t10.5 19q-8 4 -14 6q0 7 9 17t10 12q4 10 18 31q4 12 4 26l-4 8 q17 24 47 58q39 53 59 96q10 22 43 64q14 18 86 100q11 12 34.5 33t35.5 32q92 95 176 185q15 15 43 39q3 4 9.5 12t9.5 12q5 10 10 15q16 16 24 26q21 30 37 35q4 4 7 10q0 1 -5 21q7 13 33.5 53.5t36.5 67.5q-31 2 -68 6q-19 2 -106 12l-123 18q-12 2 -37 7.5t-37 7.5 q-16 3 -44.5 10.5t-39.5 9.5q-10 2 -26 10q-18 12 -21 15q-2 4 -6 16q-3 1 -10 2t-10 2q-4 4 -13 14t-14 15q13 0 33 -4v4q-38 24 -51 31q-14 36 -35 49q-5 16 10 24q1 -2 3.5 -6t4.5 -7t4 -5h35l-4 12q12 0 18 2q-2 6 -8 15q21 3 39 6l12 18h11q25 3 69.5 -3t55.5 -7 q22 -1 67.5 -4t69.5 -4q23 -1 70.5 -4t72.5 -4q16 -1 45 -4.5t45 -4.5q39 -1 116 -4t116 -4q16 0 50 2t52 2q42 0 111 15q9 4 30 0l60 6q2 -1 17.5 -12t27.5 -11q3 -6 14.5 -28.5t18.5 -36.5q-1 -7 -6 -24t-7 -27q9 9 11 10q12 -4 22 -6q-30 -27 -57 -54q-8 -8 -24 -26 t-25 -27q-93 -56 -131 -92q-4 0 -11 1t-12 1q-5 -4 -52 -45t-73 -62q-21 -16 -54.5 -51t-49.5 -49q-2 -2 -19 -24q-10 -15 -30.5 -42.5t-30.5 -41.5q-1 -1 -3 -3.5t-3 -3.5q-17 -10 -33 -25.5t-34.5 -38.5t-27.5 -32q-5 -5 -15 -15.5t-15 -15.5q-25 -25 -41 -49 q-2 -1 -17 -6q0 -1 1 -2t1 -2q-16 -20 -49 -59t-49 -58q-17 -3 -25 -9.5t-28 -35.5q2 -4 6 -16q0 1 -1 4t-1 4q-2 -3 -18 -18.5t-17 -30.5q6 6 21 16zM1315 242q1 0 3 1t3 1l-6 6l-4 -2q4 -4 4 -6z" />
<glyph unicode="&#xa3;" horiz-adv-x="841" d="M801 66q-1 -2 -3 -6.5t-3 -6.5l-7 -10l7 -10q6 -9 -11 -23q-18 -18 -12 -35q-2 -2 -4 -2q-8 -9 -51 -34q-32 -18 -101 -25l-6 -2q-62 -4 -102 -4q-43 0 -133 4l-15 2h-32q-21 0 -49 -4q-5 0 -13 -4q-26 20 -63 20h-10h-11h-16h-6h-6q-32 0 -58 -18l-16 -10l-14 24 l-21 -20l-22 14q4 8 4 12q9 32 -2 54q-8 13 -21 49q-6 19 0 28q5 5 12 19v2q2 12 15 12q1 0 3 -1t3 -1h12q24 0 47 27q32 40 35 90q9 103 57 186q25 39 62 119q3 6 9 18.5t9 18.5q1 3 5 13.5t6 15.5q0 2 1 7t1 7l10 31l-33 -2h-4v22l-31 2h-22h-2h-21q-3 0 -9 -1t-9 -1 q-11 0 -23 4q-3 1 -8.5 2t-7.5 2q-29 6 -35 19q-7 12 -25 26l13 15v10q-7 33 16 45q11 5 14 12q1 1 3.5 2t3.5 2q13 9 16 9q18 3 55 8t54 8l34 4q29 7 35 20q8 14 -2 39q-23 52 -41 80l-8 13q-25 42 -57 77q-23 23 -41 76l-2 6q-43 116 -48 150q-4 34 -2 49q1 16 6.5 44.5 t6.5 35.5l12 -4l8 18q0 1 1 4t1 4q1 2 2 6.5t2 6.5q5 8 23 39l2 2q23 4 35 18q11 11 24 14q61 21 92 27q20 4 33 4t19 -2q94 -20 139 -63q12 -10 12 -35l-20 -17l20 -18q7 -5 10 -23q-2 0 -6 4l-20 21l-14 -27l-5 -4h-2q-26 26 -73 41q-20 4 -31 4q-61 0 -92 -51 q-35 -53 -8 -139q19 -64 71 -148q3 -5 9.5 -16t9.5 -16t18 -35q30 -50 41 -72q17 -31 27 -59q2 -4 12 -29l4 -14h14h9q2 0 7.5 -1t8.5 -1q6 0 8 2h29q24 0 78 -4q20 -4 32 -4q19 -2 48 -23q4 -19 28 -33l-16 -20l10 -21q-6 -2 -20 -2h-7h-18l-6 -24q-10 0 -16 -2 q-56 -9 -70 -9q-34 -2 -88 -32l-8 -6q-30 -16 -35 -62q-1 -2 -2 -6t-2 -6q-2 -10 -7.5 -32t-7.5 -32q-1 -4 -2 -11t-2 -11q-4 -12 -4 -21l-12 -55l6 2q-9 -23 -14 -31l-13 6l-26 -57l12 -6q-13 -34 -27 -76q-5 -10 -8 -22q-11 -28 -18 -62q-5 -9 -8 -26q-10 -31 6 -50 q11 -20 41 -20h14q8 4 14 4q2 1 7 2t8 2q1 0 4.5 1t5.5 1q6 2 12 2h6q8 -4 15 -4q13 0 22 6h4q8 3 25 9.5t25 9.5l8 2q16 -8 43 -8q25 0 37 4q10 -14 20 -21q21 -8 29 -10q2 -1 7 -2t7 -2l10 -4l9 6q8 4 14 4h8q6 -2 16 -2q11 0 31 4q15 5 17 6q4 -4 8 -20q0 -1 1 -4t1 -4z " />
<glyph unicode="&#xa7;" horiz-adv-x="690" d="M647 659q2 -33 -12 -75q-18 -12 -21 -29q-4 -8 -8 -10q-6 -9 -12 -15l-8 9l-17 -17q-1 -2 -3 -5t-3 -5l-8 -8l4 -12q4 -7 8 -9l8 -20q3 -6 9.5 -18.5t9.5 -18.5v-2l2 -4q-1 -9 4 -41q1 -3 2 -9t2 -8v-20q4 -50 0 -72q-1 -4 -3 -13t-3 -13q-7 -47 -23 -70q-14 -17 -24 -37 q-11 -16 -15 -22t-13.5 -17.5t-18.5 -18.5t-19 -13q-23 -16 -49 -25q-74 -30 -129 -49l-8 -2q-24 -8 -35 -8h-8l-4 2q-4 0 -13.5 1t-13.5 1h-8h-18q-45 0 -103 20q-8 0 -20 4l-4 4q5 14 -2 23q-4 6 0 29q0 1 1 4t1 4q7 33 18 47q8 8 37 8h6h33q18 -2 55 -2q55 0 86 10h6 q59 16 86 33q28 20 36.5 42t2.5 56q-6 46 -57 101l-8 22q-1 6 -4 12t-6 9.5t-7.5 8t-7 6t-8 5t-6.5 4.5l-4 2q-75 44 -80 47q-41 23 -51 29q-5 3 -14.5 9t-14.5 9q-18 11 -29 19q-4 2 -12 5t-12 5q-1 0 -3.5 1t-4.5 1q-3 2 -5 2h-2q-1 1 -4 3t-4 3l-8 7q-9 6 -14 8 q-6 2 -11 5.5t-10.5 9.5t-8.5 9.5t-9 11.5t-8 11q-2 5 -8 11.5t-7 8.5q-1 1 -2 7t-2 8q0 6 -2 10q-9 43 12 92q3 9 10.5 28.5t10.5 28.5q2 5 5 15.5t5 15.5q3 8 10 19q8 13 27 26q12 8 35 31q4 6 12 14q17 14 6 43q-5 8 -14 31q-13 37 -33 70q-16 26 -16 59v8q-4 71 0 105 q3 27 26 92l2 4q8 21 23 33l2 2q48 48 82 75q26 19 53 33q15 10 21 13q10 -5 16 -5q8 0 23 5q1 1 3 2t3 2q36 4 45 4q50 0 84 -51q8 -11 8 -21v-16q-16 -11 -21 -19l-4 -6v-6l-39 27l-2 -27l-8 2l-8 -16l-33 6l-2 -23h-16q-2 0 -4 2q-15 6 -33 6q-40 0 -53 -43 q-13 -52 -11 -82q6 -146 146 -233l16 -10q114 -74 154 -107q14 -8 37 -35q2 -2 6 -7t6 -7q4 -18 22 -45q2 -3 6.5 -10t6.5 -10q3 -14 6 -29v-4q8 -64 10 -101zM463 563l33 -14l-7 37q0 16 -2 24q-4 55 -24 82q-10 10 -10 21q-7 23 -33 53q-7 7 -20 21t-19 20q-12 12 -23 14 q-23 5 -55 33h-2q-22 19 -61 41q-8 8 -23 8q-13 0 -22 -7.5t-11 -14.5q-14 -28 -16 -33q-2 -3 -5 -9.5t-5 -9.5q-24 -50 20 -94q34 -34 68 -53q48 -28 80 -45q10 -5 45 -25q6 -3 18.5 -10t18.5 -10q4 -3 13 -8.5t13 -8.5q3 -1 9.5 -4t9.5 -4q2 0 10 -4z" />
<glyph unicode="&#xa8;" d="M522 1190q-9 95 39 180q22 39 57 39q6 0 16 1t15 1l6 2h13q50 0 61 -47q6 -25 23 -33q16 -9 16 -47q2 -4 2 -12q2 -26 -2 -82q0 -7 -1 -20t-1 -19q0 -12 -14 -33q-2 -2 -17 -22l-14 -21q-17 -17 -21 -20h-12h-24l-5 -25q0 -4 -18 -8q-12 -4 -20 -6h-9q-2 0 -7.5 1t-8.5 1 q-2 0 -7 -1t-7 -1q-6 8 -17 16q-28 31 -28 51q0 19 -9 64q-1 7 -3 20.5t-3 20.5zM1104 1380q18 -6 24 -6h5q2 0 2 -2q22 -33 26 -49q1 -5 3 -15.5t3 -15.5q10 -35 11 -41q7 -59 4 -112q0 -24 -15 -35q-15 -13 -20 -37q-8 -8 -14 -8h-3l-14 8l-61 -35h-2q-24 8 -45 8h-4l-7 2 q-2 3 -2 9q-1 5 -4 13t-4 9q0 1 -1 3t-1 3l-4 15l-14 4q-3 1 -6.5 2t-5.5 1.5t-3 0.5v12v39l-1 49q-1 49 1 49q0 83 74 133h14h19q25 0 39 -2q4 -2 6 -2z" />
<glyph unicode="&#xad;" horiz-adv-x="808" d="M741 803q1 -1 4 -2q22 -10 13 -21h-25q8 -28 8 -45q2 -5 -2.5 -11t-11.5 -9q-37 -12 -78 -21q-15 -3 -30.5 -3.5t-37 0.5t-30.5 1q-13 0 -39 -1t-39 -1q-15 0 -51 4q-20 0 -60 4q-56 3 -108 9q-27 0 -39 2q-71 10 -119 26q-51 17 -69 41q-4 3 -9 17q-2 5 -5 15.5t-7 16.5 q-11 15 0 35t35 31q31 13 41 20q18 12 26 13t33 -6q39 -12 68 -7q4 0 22 3.5t27 3.5q29 2 84 2q13 -1 41 -3.5t41 -3.5q14 0 20 2q-4 1 -12 4.5t-12 4.5v2q15 -1 43.5 -3t42.5 -3q12 0 57 -5q6 -1 18.5 -2.5t20 -2.5t17.5 -4t18 -7q10 -6 36 -13t32 -9q4 -1 22 -13 q5 -4 13.5 -13t13.5 -13q14 -13 12 -19t-25 -16z" />
<glyph unicode="&#xc0;" d="M1251 100q6 -28 0 -57q-2 -6 -2 -14h-6q-4 -8 -4 -11q-13 -3 -25 -12q-58 20 -69 27q-1 0 -5 -1t-5 -1q-4 3 -13 16q-10 10 -10 31q-1 5 -7 31.5t-11 40.5q-1 4 -2 11t-2 11q-1 6 -10.5 49t-14.5 66q-3 13 -8 36.5t-8 34.5q-2 14 -10 39.5t-9 30.5q-4 14 -24 82 q-3 10 -17 43q-14 4 -28 -2q-5 -1 -14 -7t-11 -7q0 -5 -2 -11q-4 0 -10.5 -1t-10.5 -1h-4q-6 0 -18.5 -1t-18.5 -1q-42 -3 -84 0q-15 0 -26 -8l-18 -6l-22.5 -7.5l-19.5 -6.5q-1 -1 -5 -2.5t-5 -2.5q-6 -8 -6 -20q-1 -19 -8.5 -58t-7.5 -61q-1 -26 -8.5 -82t-8.5 -84 q0 -63 6 -102q1 -5 -10 -37q-9 -3 -12 -6l-6 -12q-4 0 -0.5 -1t0.5 -1q-4 2 -10.5 5t-10.5 5q-2 -4 -4 -12t-4 -11q-5 -4 -14.5 -11t-14.5 -11q-16 -8 -26 -8h-15q-9 5 -26 18h-12q-3 1 -31 18q3 0 1 14l-1 15q-2 4 -6 16q-5 15 4 21q-8 18 -8 45v31q0 6 0.5 17.5t0.5 20.5 t-1 17q-1 15 8 72v4q1 16 4 33t7.5 38t6.5 33q7 56 29 154q3 15 35 180q3 16 8 47t8 47q7 43 14 68q5 23 20 80t21 90q2 8 6.5 24.5t6.5 24.5q1 9 3 27.5t3 27.5q8 8 8 27q1 4 3 11t3 11q0 1 1 2.5t1 2.5q9 21 21 45q4 2 9 5t11.5 7t9.5 6q0 4 1 13t1 16q4 1 11 2t10 2 l10 -5t11 -6.5t7.5 -6.5t6.5 -9q25 -8 41 -31q14 -14 20 -22q3 -3 8.5 -10.5t8.5 -10.5q1 -1 2 -3t2 -3q31 -39 47 -65q27 -43 51 -90q23 -44 35 -74q3 -8 9.5 -22.5t11 -26t7.5 -23.5q2 -9 8.5 -24t8.5 -21q5 -12 14.5 -32.5t14.5 -32.5l18 -54q4 -10 12.5 -30.5 t12.5 -30.5q0 -1 2 -6.5t4 -7.5q3 -5 8 -19q4 -16 8 -26q42 -119 57 -177q4 -16 14.5 -52.5t14.5 -55.5q4 -14 23 -94q4 -22 16 -74q1 -5 2 -13.5t2 -13.5l4 -20t6 -23zM629 45v2h-6v-2h6zM922 539q1 0 2 1t2 1l-2 2h-2v-4zM911 668q23 0 33 6q-1 2 -2 5.5t-2 4.5 q-4 12 -8.5 25t-11 28.5t-9.5 24.5q-18 41 -41 94q-24 60 -26 64q-1 4 -2.5 9t-4 11t-3.5 10q-15 34 -39 80q-2 2 -5.5 6.5t-6.5 7t-7 3.5q0 -3 -4 -15q-4 -19 -8 -53q-19 -87 -23 -113q-2 -8 -12 -53q-2 -7 -14 -68q-12 -45 -15 -83v-13h9q9 1 26.5 4t26.5 4q23 6 49 9 q33 2 100 2zM643 1499q-13 24 -35 78v4q0 1 3.5 5.5t4.5 8.5l5 4q8 13 14 13h4q6 -2 20 -2h11l2 -2q2 0 6 -4q12 -9 20 -17q13 -17 19 -31l10 -20q18 -36 29 -49q11 -15 16 -27q6 -12 8 -14q22 -43 25 -60v-4q3 -19 -2 -26q-4 -8 -4 -13q0 -8 -4 -8h-4l-11 -18q-4 2 -10 2 t-12 6q-2 2 -6.5 6t-6.5 6t-6.5 7t-7.5 8q-22 19 -37 43l-2 4q-16 23 -20 39q-8 25 -29 61z" />
<glyph unicode="&#xc1;" d="M1249 100q7 -23 0 -57q-2 -6 -2 -14h-4q-5 -10 -6 -11q-17 -6 -23 -12q-52 17 -69 27l-10 -2q-8 5 -15 16q-6 8 -10 31q-1 3 -6.5 30.5t-11.5 41.5q-1 4 -2.5 11t-2.5 11q-9 58 -24 115q-3 12 -7 35.5t-7 35.5q-10 39 -21 70q-3 15 -11 42.5t-11 39.5q-14 33 -17 43 q-17 3 -28 -2q-6 -1 -14.5 -6.5t-12.5 -7.5q0 -5 -2 -11q-3 0 -9.5 -1t-9.5 -1h-4q-6 0 -19.5 -1t-19.5 -1q-39 -3 -84 0q-13 0 -26 -8q-5 -2 -25.5 -9.5t-32.5 -10.5l-10 -5q-6 -6 -6 -20q-2 -18 -9.5 -57.5t-8.5 -61.5q-1 -26 -7.5 -82t-7.5 -84q0 -73 6 -102 q2 -10 -12 -37l-12 -6l-6 -12q-3 0 0.5 -1t-0.5 -1q-3 2 -9.5 5t-9.5 5q-2 -3 -5 -11.5t-5 -11.5q-4 -4 -13.5 -11t-13.5 -11q-16 -8 -26 -8h-15q-2 1 -28 18h-12q-15 7 -29 18q3 6 -2 29q-2 4 -6 16q0 17 4 21q-6 18 -6 45v31q0 6 0.5 17.5t0.5 20.5t-1 17q-2 23 6 72v4 q1 16 4 33t7.5 38t6.5 33q0 2 29 154q4 19 17 82t20 98q2 11 6.5 43.5t9.5 50.5q11 66 12 68q6 27 21.5 83.5t21.5 86.5q1 9 6.5 27.5t6.5 21.5q1 9 2 27.5t2 27.5q10 7 10 27q4 16 4 22q0 1 1 2.5t1 2.5q12 21 21 45q12 6 32 18q0 4 1 13t1 16q3 1 10.5 2t10.5 2 q3 -2 8.5 -4.5t8.5 -4.5t6.5 -4.5t6 -6t3.5 -7.5q23 -8 43 -31q2 -3 9.5 -10.5t10.5 -11.5q8 -12 17 -21q0 -4 2 -6q31 -39 47 -65q27 -43 51 -90q19 -35 37 -74q4 -12 14 -35t14 -37q3 -13 17 -45q4 -12 13 -32.5t13 -32.5q4 -9 10.5 -27t10.5 -27q4 -10 11 -30.5t11 -30.5 l7 -14q6 -6 10 -19q0 -11 6 -26q30 -75 57 -177q1 -5 13 -45.5t18 -62.5q3 -14 10.5 -45t10.5 -49q12 -52 16 -74q1 -5 3 -13.5t3 -13.5q2 -7 4 -21.5t4 -21.5zM629 45v2h-6v-2h6zM922 539q1 0 2 1t2 1l-2 2h-4zM911 668q21 0 33 6q-1 2 -2 5.5t-2 4.5q-1 2 -12.5 32 t-16.5 46q-4 8 -19.5 41.5t-23.5 52.5q-5 16 -24 64q-9 21 -10 30q-7 14 -20.5 40t-20.5 40q-2 2 -5 6.5t-6.5 7t-7.5 3.5q0 -2 -1 -7t-1 -8q-2 -9 -5 -26.5t-5 -26.5q-4 -27 -23 -113q-1 -7 -3 -16t-5 -20t-4 -17q-9 -51 -14 -68q-11 -51 -15 -83v-13h11q7 1 24 4t27 4 q23 6 49 9q33 2 102 2zM616 1343q0 5 -4 13q-5 7 -2 26v4q3 17 25 60q1 2 4 7t4 7q7 18 14 27q13 13 31 49q2 8 10 20q6 14 19 31q2 3 9 9t9 8q4 4 6 4q1 0 2 1t2 1h11q12 0 20 2h4q7 0 15 -13l2 -4q4 -6 8 -14q2 -2 2 -4q-17 -42 -37 -78q-22 -43 -27 -61q-2 -8 -11 -23 t-9 -16l-4 -4q-15 -24 -37 -43q-7 -10 -14 -15q-1 -2 -11 -12q-6 -6 -12 -6t-10 -2l-10 18h-4q-5 0 -5 8z" />
<glyph unicode="&#xc7;" d="M686 -199q-9 3 -18 9q-1 3 -2 9.5t-2 10.5h38q-1 3 -1 4t-1 2t-2.5 2t-3.5 1.5t-6 2.5l-8 4q-6 3 -18 6.5t-15 4.5q2 11 7 14t18 0q0 4 4 16h2q2 -4 2 -12q19 4 14 21q21 5 62 16t61 16q3 22 -16 41q3 9 8 19l-12 -4q-5 10 -9 12t-8 5t-6 5.5t-4.5 7.5l-3.5 7t-3.5 8.5 t-2.5 7.5q-2 5 -12 35q-11 27 -11 61q0 6 -1 17t-1 16q-3 18 -22 24q-10 2 -20 6.5t-22 12t-18 10.5q-1 0 -2 1t-2 1q-11 2 -20 8t-18.5 15.5t-14.5 13.5q-6 6 -16 6q3 -10 21 -23.5t20 -29.5q-11 3 -11 4q-61 41 -92 94q-6 9 -14 27.5t-10 23.5q-26 50 -37 80q-2 4 -37 95 q-1 2 -7 17.5t-10 22.5q-8 17 -4 25q3 8 -2 21q-12 25 -16 77q-8 78 -8 121q-1 22 4 121q3 24 6 45q0 15 2 21q11 32 12 41q9 31 9 43q1 10 4 19.5t10 23.5l8 16q6 14 51 86q29 46 72 76q5 4 18 14.5t21 15.5q5 3 21 14.5t23.5 16.5t21.5 12t26 11q7 2 21.5 4t21.5 4 q62 18 76 24q51 21 76 15h4q12 6 26 7t33 -1t27 -2q22 2 59 -2q15 0 35 -8q29 -14 49 -27q4 -2 14 -12q-10 -5 -18 -13q2 -4 8 -10q-1 -7 -9.5 -7.5t-10.5 -2.5q4 -12 12.5 -22t16 -15t22.5 -14q-4 -3 -11 -9t-10 -8q-12 -4 -16 -4q-2 0 -10 1.5t-11 0.5t-7 -6.5t-7 -7.5 q7 -2 3 -11l-5 -9q-27 -9 -31 -9q-5 0 -14 2.5t-12 3.5q0 -5 2 -8t5.5 -5t4.5 -3q-21 0 -31 -2q-30 -6 -57 6q-6 4 -16 4h-31q-3 0 -20.5 -1t-24.5 -2t-19 -4t-22 -9q-1 -1 -3 -2t-3 -2q-95 -31 -144 -142q-8 -17 -20 -50.5t-14 -39.5q-1 -2 -3.5 -6t-3.5 -6q-8 -11 -12 -31 q-2 -8 -3 -25.5t-3 -25.5q-1 -5 2.5 -12t1.5 -12q-6 -10 -2 -23q0 -13 4 -41q0 -29 2 -43q8 -63 14 -98q14 -84 58 -174q39 -76 119 -125q9 -6 29 -15t22 -10q29 -11 106 -24q19 -2 54.5 -2.5t46.5 -1.5q15 0 20 -5q3 -1 6 -0.5t8.5 1.5t8.5 1q67 13 96 13q2 -6 2 -15 q6 0 19.5 -1t19.5 -1q42 4 61 -20q7 1 11.5 -7t5.5 -9q7 -2 22 -13l-18 -18q1 -1 4.5 -2t5.5 -2q-4 -6 -12.5 -18.5t-12.5 -18.5q-3 -3 -12.5 -9t-11.5 -8q-12 -6 -21 -12q-4 -4 -8 -4q-49 -9 -65 4q-6 -2 -19 -5t-20 -5v-14q-3 -1 -9.5 -3.5t-9.5 -3.5q-9 -1 -31 -3t-30 -2 t-29 1q-21 4 -26 11q-13 -8 -35 -15q13 -22 37 -47q35 -27 55 -45q7 -3 4 -12q0 -7 8 -15q-4 -4 -8 -6q4 -4 12 -8q2 -2 0 -4q-5 -12 4 -33q5 -10 2 -26v-19q0 -13 -6 -15q-2 -1 -6 -1h-2q-24 -28 -37 -41q-2 -2 -7.5 -9.5t-8.5 -9.5q-8 -6 -23 -17.5t-27 -20.5t-24 -15 q-22 -13 -26 -26q-2 -5 -6 -7.5t-9 -3t-6 -0.5q-3 1 -8.5 5t-7.5 4q-15 0 -25 10q0 -2 1 -4.5t1 -3.5q-17 -13 -43 4q-1 1 -2 3t-2 3q-6 -8 -19 -2t-18 4q-1 0 -4 1t-4 1q-6 18 -20 0q0 5 3.5 12.5t4 10.5t-5.5 10q-3 3 -11 1.5t-14 -7.5q0 14 2 22q-10 -26 -41 -33v2 q0 3 1 9t1 10q-4 -3 -5 -6t-0.5 -4.5t2 -4.5t1.5 -4zM1231 244q-4 0 -4 -2v-4q1 1 3 2t3 2z" />
<glyph unicode="&#xc8;" d="M776 1583q-28 41 -51 88q-4 0 0 4q0 3 1 5.5t2.5 6t2.5 5.5l2 6q8 16 17 16h6h24q2 0 6 1t5 1h4q1 -1 4 -3t4 -3q13 -5 24 -16q3 -3 27 -33q4 -8 14 -23q20 -33 41 -57q7 -5 23 -29q1 -2 4.5 -7t5.5 -7q32 -53 37 -68v-2q7 -25 2 -32q-4 -12 -4 -15q0 -10 -4 -10l-4 -2 l-11 -23q-2 0 -6 1.5t-6 1.5q-6 -3 -16 4l-12 12q-7 7 -21 14q-28 22 -47 47l-4 4q-26 37 -29 43q-17 32 -41 70zM1153 143q-1 -3 -2 -9.5t-2 -10t-3.5 -8.5t-7.5 -8t-12 -5q4 -3 2 -9l-2.5 -7.5t-5.5 -6.5t-6 -7q-21 -21 -35 -27q-4 -2 -10.5 -5t-7.5 -3q-78 0 -115 -2 q-14 -1 -39 -3t-39 -3h-41q-33 0 -49 -2q-21 -3 -43 10q-39 23 -69 74q-33 61 -33 127q0 38 1 117t1 120v10q-2 22 -2 136v137q0 3 -0.5 10t-0.5 13t1 10q0 4 -10 24q2 0 10 -4q0 2 1 6t1 6q0 19 1 56t1 55q1 16 3 85t3 105q4 29 -16 43q-2 1 -9 15q2 2 6.5 6t6.5 6 q-4 4 -23.5 14.5t-25.5 22.5q4 8 4 10q-14 5 -19 8q0 -3 1 -7t1 -5q-14 -7 -14 4q-2 4 6 12q4 4 10 4q9 -2 16.5 1.5t16.5 10.5t14 9q1 1 15 8q6 0 18.5 1t18.5 1q27 4 45 19q-6 2 -13 2t-14 -1t-10 -1q-6 0 -18.5 -1t-18.5 -1q-19 -4 -37 2q9 0 17 8q-1 1 -3.5 4t-3.5 4 q14 3 50 8q16 2 60.5 10.5t68.5 10.5q65 12 131 12q32 4 100 8q4 0 12 -1t13 -1q5 1 9.5 -0.5t11 -5.5t9.5 -6q1 0 8 -5.5t9 -7.5t5 -8t3 -12q4 -2 4 -4q5 -1 13 -4t9 -4q9 -54 11 -62q-7 -3 -7 -16t-1 -16q-18 -5 -33 -27q-7 -11 -21 -14q-24 -2 -71 -7.5t-68 -7.5 q-13 -1 -36.5 -4t-35.5 -4q-9 -1 -27.5 -2t-27.5 -2q-7 -3 -25 -6q0 -10 -2 -32t-2 -32v-196q0 -11 2 -17h37q23 -1 72 -2t72 -2q6 0 14 -4q15 -5 33 -14q-2 -1 -5 -3t-5 -3q13 -21 26 -23q17 0 37 -12q12 -6 13.5 -11t-1.5 -18q19 -16 8 -39q-16 -27 -20 -30 q-2 -3 -5.5 -4.5t-9 -3.5t-8.5 -3q0 -12 -4 -18q-2 -4 -16 -4h-82h-57l-39 3l-39 3q-17 1 -23 -5t-6 -24q4 -49 8 -143q0 -22 -1 -68t-1 -69v-107v-10q0 -11 2.5 -13.5t14.5 -2.5q15 1 88 6h112q7 0 23 1t23 1q14 0 34 -4q3 -1 13 -17q4 0 16 -4l-6 -24q13 0 18 -13 q1 -1 7.5 -3.5t9.5 -4.5q-1 -2 3 -11t-3 -13q10 -5 14 -9zM672 1321q11 -4 18 6q-3 -1 -9.5 -2t-8.5 -2v-2z" />
<glyph unicode="&#xc9;" d="M731 1421q0 3 -4 15q-7 10 2 32v2q5 15 37 68q2 2 5.5 7t4.5 7q16 24 23 29q21 24 41 57q10 15 14 23q24 30 27 33q11 11 24 16q1 1 4 3t4 3h5q1 0 4.5 -1t5.5 -1h24h6q9 0 17 -16l2 -6q0 -1 3 -7t3 -10q4 -4 0 -4q-23 -47 -51 -88q-24 -38 -41 -70q-3 -6 -29 -43l-4 -4 q-16 -21 -49 -47q-12 -8 -18 -14t-15 -12q-7 -7 -14 -4q-2 0 -6 -1.5t-6 -1.5l-11 23l-4 2q-4 0 -4 10zM1153 143q-1 -3 -2 -9.5t-2 -10t-3.5 -8.5t-7.5 -8t-12 -5q4 -3 2 -9l-2.5 -7.5t-5.5 -6.5t-6 -7q-21 -21 -35 -27q-4 -2 -10.5 -5t-7.5 -3q-78 0 -115 -2 q-14 -1 -39 -3t-39 -3h-41q-33 0 -49 -2q-21 -3 -43 10q-39 23 -69 74q-33 61 -33 127q0 38 1 117t1 120v10q-2 22 -2 136v137q0 3 -0.5 10t-0.5 13t1 10q0 4 -10 24q2 0 10 -4q0 2 1 6t1 6q0 19 1 56t1 55q1 16 3 85t3 105q4 29 -16 43q-2 1 -9 15q2 2 6.5 6t6.5 6 q-4 4 -23.5 14.5t-25.5 22.5q4 8 4 10q-14 5 -19 8q0 -3 1 -7t1 -5q-14 -7 -14 4q-2 4 6 12q4 4 10 4q9 -2 16.5 1.5t16.5 10.5t14 9q1 1 15 8q6 0 18.5 1t18.5 1q27 4 45 19q-6 2 -13 2t-14 -1t-10 -1q-6 0 -18.5 -1t-18.5 -1q-19 -4 -37 2q9 0 17 8q-1 1 -3.5 4t-3.5 4 q14 3 50 8q16 2 60.5 10.5t68.5 10.5q65 12 131 12q32 4 100 8q4 0 12 -1t13 -1q5 1 9.5 -0.5t11 -5.5t9.5 -6q1 0 8 -5.5t9 -7.5t5 -8t3 -12q4 -2 4 -4q5 -1 13 -4t9 -4q9 -54 11 -62q-7 -3 -7 -16t-1 -16q-18 -5 -33 -27q-7 -11 -21 -14q-24 -2 -71 -7.5t-68 -7.5 q-13 -1 -36.5 -4t-35.5 -4q-9 -1 -27.5 -2t-27.5 -2q-7 -3 -25 -6q0 -10 -2 -32t-2 -32v-196q0 -11 2 -17h37q23 -1 72 -2t72 -2q6 0 14 -4q15 -5 33 -14q-2 -1 -5 -3t-5 -3q13 -21 26 -23q17 0 37 -12q12 -6 13.5 -11t-1.5 -18q19 -16 8 -39q-16 -27 -20 -30 q-2 -3 -5.5 -4.5t-9 -3.5t-8.5 -3q0 -12 -4 -18q-2 -4 -16 -4h-82h-57l-39 3l-39 3q-17 1 -23 -5t-6 -24q4 -49 8 -143q0 -22 -1 -68t-1 -69v-107v-10q0 -11 2.5 -13.5t14.5 -2.5q15 1 88 6h112q7 0 23 1t23 1q14 0 34 -4q3 -1 13 -17q4 0 16 -4l-6 -24q13 0 18 -13 q1 -1 7.5 -3.5t9.5 -4.5q-1 -2 3 -11t-3 -13q10 -5 14 -9zM672 1321q11 -4 18 6q-3 -1 -9.5 -2t-8.5 -2v-2z" />
<glyph unicode="&#xd9;" d="M1169 467q3 -7 0.5 -40t-2.5 -40v-18q0 -25 -4 -35q-4 -14 -4 -41q0 -28 -4 -86q-7 -41 -25 -74q-13 -23 -47 -72q-40 -46 -82 -67q2 2 5 8q-4 1 -19 -4q-19 -6 -33 -2q-8 2 -24 2q-85 6 -86 6q-38 0 -78 16q-37 15 -53 41q-41 64 -54 152q-2 14 -8 39.5t-8 38.5 q-6 37 -6 74q-2 39 -2 116q-4 70 -14 103q-17 76 -23 168q-2 19 -5 56t-5 56q-2 14 -10 33q-2 19 -17 100q-6 30 -6 31q-4 28 -2 43q1 7 -0.5 21t-1.5 18q-2 14 -2 41q0 17 -4 20v9q0 49 -8 88q-3 21 6 39q1 4 2 11.5t2 10.5v2q8 6 15.5 20.5t12.5 20.5q5 -18 15 -41l8 12 q12 -27 29 -47q31 -34 39 -63l4 -16l4 12v-2q3 -18 6 -33q9 -114 14 -160q1 -14 4 -42.5t4 -43.5q2 -16 7 -86q1 -26 2 -76.5t2 -76.5q1 -15 5 -46.5t5 -48.5q2 -9 3.5 -31t2.5 -26q6 -30 20 -86.5t19 -81.5q4 -16 6.5 -46t5.5 -42q19 -83 21 -102q3 -13 24 -13h21 q13 1 37.5 1t36.5 1q2 0 9 -1t14.5 -1t14.5 2q5 0 5 9q2 12 12.5 43.5t11.5 48.5q1 7 6 54t6 71q1 20 0.5 70.5t1.5 70.5q0 13 -2 37t-2 35q0 100 -2 147q-2 45 -10 121q-3 47 -6 96q-7 110 -31 199q-1 4 -7.5 38t-6.5 54q1 8 6 53q8 0 10 -2q2 26 8.5 35t32.5 18 q5 -2 14.5 -5t14.5 -5q0 -4 2 -6l2 -2q12 3 18 -8q2 -2 8.5 -5t8.5 -5q8 -4 8 -11q0 -4 4 -4q7 0 12 -10q10 -34 11 -43q3 -6 0 -12q-5 -8 0 -35q4 -27 22 -123q2 -8 4 -25t2 -18q2 -12 13 -115q18 -137 18 -143q2 -53 10 -149q7 -56 4 -101q-5 -39 2 -94zM664 1497 q-24 24 -56 70v4q1 2 2 7.5t2 8.5l2 4q6 17 13 17h4q6 0 22 4q7 0 9 2h4l8 -4q18 -9 22 -13q12 -7 27 -26q8 -8 14 -17q21 -28 43 -45q19 -19 21 -22q8 -8 10 -12q26 -26 41 -56v-2q9 -15 6 -26q-2 -3 -2 -13l-2 -10l-4 -2l-8 -20h-11q-3 -2 -14 2q-2 2 -6 5t-6 5 q-8 3 -19 10q-23 14 -47 35l-4 4q-21 21 -28 35q-18 26 -43 55z" />
<glyph unicode="&#xda;" d="M1169 469q3 -8 0.5 -41.5t-2.5 -40.5v-18q0 -23 -4 -35q-2 -7 -2 -41q-1 -15 -3 -43.5t-3 -42.5q-7 -41 -25 -74q-13 -23 -47 -72q-40 -46 -82 -67q2 2 5 8q-4 1 -19 -4q-18 -7 -33 -2q-8 2 -24 2q-85 6 -86 6q-44 4 -78 16q-37 15 -53 41q-36 56 -54 152q-2 14 -8 39.5 t-8 38.5q-6 37 -6 74q-2 39 -2 116q-4 70 -14 103q-17 76 -23 168q-2 19 -5 57t-5 57q-2 7 -10 33q-2 15 -17 98q-6 30 -6 31q-4 28 -2 43q1 7 -0.5 21.5t-1.5 19.5q-2 12 -2 39q0 20 -2 23q-2 2 -2 6q3 37 -8 88q-3 23 6 39q4 16 4 22v2q7 5 15.5 20t15.5 21q4 -21 12 -41 l8 12q3 -5 8.5 -15t10.5 -17.5t10 -12.5q31 -39 39 -63q0 -2 4 -18l4 12v-2q1 -6 3 -16.5t3 -16.5q9 -114 14 -160q1 -14 4 -42.5t4 -43.5q2 -16 7 -86q1 -26 2 -76.5t2 -76.5q1 -15 5 -46.5t5 -48.5q2 -9 3.5 -31t2.5 -26q6 -30 20 -86.5t19 -81.5q4 -16 6.5 -46t5.5 -42 q19 -83 21 -102q3 -13 24 -13h21q13 1 37.5 1t36.5 1q1 0 9 -1t15 -0.5t14 3.5q5 0 5 7q2 12 12.5 43.5t11.5 48.5q1 7 6 54t6 71q1 20 0.5 70.5t1.5 70.5q0 13 -2 37t-2 35q0 100 -2 149q-2 43 -10 119q-3 49 -6 96q-3 96 -31 199q-1 4 -7.5 38t-6.5 54q1 8 6 53q8 0 10 -2 q2 26 8.5 35t32.5 18q5 -2 14.5 -5t14.5 -5q0 -4 2 -6l2 -2q12 3 18 -8q8 -4 17 -10q6 -3 10 -11q0 -4 2 -4q7 0 12 -10q10 -35 11 -43q3 -6 0 -12q-5 -8 0 -33q6 -41 22 -123q2 -9 4 -26t2 -19q2 -12 13 -115q18 -137 18 -143q1 -24 5 -73.5t5 -75.5q7 -56 4 -101 q-5 -38 2 -92zM723 1356q0 2 -4 14q-8 10 2 33v2q5 15 37 68q9 14 10 16q3 3 7.5 9.5t8 11t7.5 8.5q10 10 40 55q12 18 15 22q1 1 10.5 14t15.5 19q12 12 25 17q4 4 8 6h4q1 0 5 -1t6 -1h24h6q10 0 17 -17l2 -4l6 -18q4 -4 0 -4q-23 -47 -51 -88q-24 -34 -41 -70 q-3 -6 -29 -43l-4 -4q-19 -25 -49 -45q-3 -3 -9.5 -8.5t-9.5 -8.5q-8 -8 -14 -12q-9 -6 -14 -4q-2 0 -6.5 -1t-6.5 -1l-10 22l-6 3q-2 4 -2 10z" />
<glyph unicode="&#xe0;" horiz-adv-x="845" d="M801 100q6 -28 0 -57q-2 -6 -2 -14h-6q-5 -10 -5 -11q-12 -3 -24 -12q-60 21 -70 27q-1 0 -5 -1t-5 -1q-2 2 -12 16q-10 10 -10 31q-18 70 -19 72q-1 4 -2 11t-2 11q-1 6 -10.5 49t-14.5 66q-3 13 -8 36.5t-8 34.5q-1 3 -18 70q-5 17 -13.5 45t-11.5 37q-5 17 -16 43 q-15 4 -29 -2q-5 -1 -14 -7t-11 -7q0 -5 -2 -11q-4 0 -10 -1t-10 -1h-4q-6 0 -18.5 -1t-18.5 -1q-42 -3 -84 0q-16 0 -27 -8q-4 -1 -25.5 -8.5t-33.5 -11.5q-1 -1 -5 -2.5t-5 -2.5q-6 -8 -6 -20q-1 -19 -9 -58t-8 -61q-1 -26 -8 -82t-8 -84q0 -63 6 -102q1 -5 -10 -37 q-11 -3 -13 -6l-6 -12q-4 0 -0.5 -1t0.5 -1l-20 10q-2 -4 -4 -12t-4 -11q-5 -4 -14.5 -11t-14.5 -11q-16 -8 -27 -8h-14q-12 6 -27 18h-12q-3 1 -31 18q3 0 2 14l-2 15q-2 4 -6 16q-5 15 4 21q-8 18 -8 45v31q0 6 0.5 17.5t0.5 20.5t-1 17q-1 15 8 72v4q1 21 9.5 59t9.5 45 q8 66 28 154q3 15 35 180q3 15 8.5 46.5t8.5 47.5q7 43 14 68q5 23 20 80t21 90q2 8 6 24.5t6 24.5q1 9 3 27.5t3 27.5q8 8 8 27q1 4 3.5 11t3.5 11q0 1 1 2.5t1 2.5q15 35 20 45q6 3 31 18q0 4 1 13t1 16q4 1 10.5 2t9.5 2l10 -5t11 -6.5t7.5 -6.5t6.5 -9q25 -8 41 -31 q18 -18 21 -22q3 -3 8 -10.5t8 -10.5q1 -1 2 -3t2 -3q31 -39 47 -65q27 -43 51 -90q23 -44 35 -74q3 -9 10 -22.5t11.5 -25.5t7.5 -24q2 -9 8 -24t8 -21q5 -12 14.5 -32.5t14.5 -32.5l18 -54q4 -10 12.5 -30.5t12.5 -30.5q0 -1 2 -6.5t4 -7.5q3 -5 8 -19q2 -9 9 -26 q42 -119 57 -177q4 -16 14.5 -52.5t14.5 -55.5q4 -17 11.5 -49t10.5 -45q4 -22 16 -74q1 -5 2.5 -13.5t2.5 -13.5l4 -20t6 -23zM178 45v2h-6v-2h6zM471 539q1 0 2 1t2 1l-2 2h-2v-4zM461 668q23 0 33 6l-5 10q-4 12 -28 78q-18 41 -41 94q-20 50 -27 64q-1 4 -2.5 9t-4 11 t-3.5 10q-15 34 -39 80q-2 2 -5.5 6.5t-6 7t-6.5 3.5q0 -3 -4 -15q-6 -28 -9 -53q-15 -68 -22 -113q-2 -8 -12 -53q-6 -23 -15 -68q-11 -40 -14 -83v-13h8q9 1 26.5 4t26.5 4q23 6 49 9q33 2 101 2zM193 1499q-13 24 -35 78v4q0 1 3.5 5.5t4.5 8.5l4 4q8 13 14 13h4 q6 -2 21 -2h10l2 -2q2 0 6 -4q16 -12 21 -17q11 -14 18 -31l10 -20q18 -36 29 -49q13 -18 17 -27q6 -12 8 -14q20 -40 24 -60v-4q3 -19 -2 -26q-4 -8 -4 -13q0 -8 -4 -8h-4l-10 -18q-4 2 -11 2q-6 0 -12 6l-12 12q-2 2 -6.5 7t-7.5 8q-22 19 -37 43l-2 4q-17 26 -21 39 q-9 29 -28 61z" />
<glyph unicode="&#xe1;" d="M1249 100q7 -23 0 -57q-2 -6 -2 -14h-4q-5 -10 -6 -11q-17 -6 -23 -12q-52 17 -69 27l-10 -2q-8 5 -15 16q-6 8 -10 31q-1 3 -6.5 30.5t-11.5 41.5q-1 4 -2.5 11t-2.5 11q-9 58 -24 115q-3 12 -7 35.5t-7 35.5q-10 39 -21 70q-3 15 -11 42.5t-11 39.5q-14 33 -17 43 q-17 3 -28 -2q-6 -1 -14.5 -6.5t-12.5 -7.5q0 -5 -2 -11q-3 0 -9.5 -1t-9.5 -1h-4q-6 0 -19.5 -1t-19.5 -1q-39 -3 -84 0q-13 0 -26 -8q-5 -2 -25.5 -9.5t-32.5 -10.5l-10 -5q-6 -6 -6 -20q-2 -18 -9.5 -57.5t-8.5 -61.5q-1 -26 -7.5 -82t-7.5 -84q0 -73 6 -102 q2 -10 -12 -37l-12 -6l-6 -12q-3 0 0.5 -1t-0.5 -1q-3 2 -9.5 5t-9.5 5q-2 -3 -5 -11.5t-5 -11.5q-4 -4 -13.5 -11t-13.5 -11q-16 -8 -26 -8h-15q-2 1 -28 18h-12q-15 7 -29 18q3 6 -2 29q-2 4 -6 16q0 17 4 21q-6 18 -6 45v31q0 6 0.5 17.5t0.5 20.5t-1 17q-2 23 6 72v4 q1 16 4 33t7.5 38t6.5 33q0 2 29 154q4 19 17 82t20 98q2 11 6.5 43.5t9.5 50.5q11 66 12 68q6 27 21.5 83.5t21.5 86.5q1 9 6.5 27.5t6.5 21.5q1 9 2 27.5t2 27.5q10 7 10 27q4 16 4 22q0 1 1 2.5t1 2.5q12 21 21 45q12 6 32 18q0 4 1 13t1 16q3 1 10.5 2t10.5 2 q3 -2 8.5 -4.5t8.5 -4.5t6.5 -4.5t6 -6t3.5 -7.5q23 -8 43 -31q2 -3 9.5 -10.5t10.5 -11.5q8 -12 17 -21q0 -4 2 -6q31 -39 47 -65q27 -43 51 -90q19 -35 37 -74q4 -12 14 -35t14 -37q3 -13 17 -45q4 -12 13 -32.5t13 -32.5q4 -9 10.5 -27t10.5 -27q4 -10 11 -30.5t11 -30.5 l7 -14q6 -6 10 -19q0 -11 6 -26q30 -75 57 -177q1 -5 13 -45.5t18 -62.5q3 -14 10.5 -45t10.5 -49q12 -52 16 -74q1 -5 3 -13.5t3 -13.5q2 -7 4 -21.5t4 -21.5zM629 45v2h-6v-2h6zM922 539q1 0 2 1t2 1l-2 2h-4zM911 668q21 0 33 6q-1 2 -2 5.5t-2 4.5q-1 2 -12.5 32 t-16.5 46q-4 8 -19.5 41.5t-23.5 52.5q-5 16 -24 64q-9 21 -10 30q-7 14 -20.5 40t-20.5 40q-2 2 -5 6.5t-6.5 7t-7.5 3.5q0 -2 -1 -7t-1 -8q-2 -9 -5 -26.5t-5 -26.5q-4 -27 -23 -113q-1 -7 -3 -16t-5 -20t-4 -17q-9 -51 -14 -68q-11 -51 -15 -83v-13h11q7 1 24 4t27 4 q23 6 49 9q33 2 102 2zM616 1343q0 5 -4 13q-5 7 -2 26v4q3 17 25 60q1 2 4 7t4 7q7 18 14 27q13 13 31 49q2 8 10 20q6 14 19 31q2 3 9 9t9 8q4 4 6 4q1 0 2 1t2 1h11q12 0 20 2h4q7 0 15 -13l2 -4q4 -6 8 -14q2 -2 2 -4q-17 -42 -37 -78q-22 -43 -27 -61q-2 -8 -11 -23 t-9 -16l-4 -4q-15 -24 -37 -43q-7 -10 -14 -15q-1 -2 -11 -12q-6 -6 -12 -6t-10 -2l-10 18h-4q-5 0 -5 8z" />
<glyph unicode="&#xe7;" horiz-adv-x="1003" d="M315 -199q-9 3 -18 9q-1 3 -2 9.5t-2 10.5h39q0 2 -0.5 3.5t-1.5 2.5l-1.5 1.5t-2.5 1t-4 1.5t-5.5 2.5t-7.5 3.5q-6 3 -18 6.5t-15 4.5q2 11 7 14t18 0q0 4 4 16h2q2 -4 2 -12q20 4 15 21q21 5 61.5 16t60.5 16q3 22 -16 41q3 9 8 19q-1 0 -5.5 -1.5t-6.5 -2.5 q-5 11 -8 12q-16 7 -29 41q-2 5 -12 35q-10 25 -10 61q0 6 -1 17t-1 16q-3 17 -23 24q-10 2 -20 6.5t-21 12t-18 10.5q-1 0 -2 1t-2 1q-11 2 -20.5 8t-19 16t-14.5 13q-6 6 -16 6q3 -10 21 -23.5t20 -29.5q-9 3 -10 4q-62 42 -93 94q-6 9 -14 27.5t-10 23.5q-26 50 -37 80 q-2 4 -37 95q-2 5 -7.5 19t-8.5 21q-8 17 -4 25q3 8 -2 21q-13 28 -17 77q-8 78 -8 121q-1 22 4 121q3 24 6 45q0 15 2 21q12 38 13 41q8 28 8 43q1 10 4 19.5t10 23.5l8 16q6 14 14.5 28t20.5 32t17 26q29 47 71 76q5 4 18 14.5t21 15.5q5 3 21 14.5t23.5 16.5t21.5 12 t26 11q7 2 21.5 4t21.5 4q62 18 76 24q51 21 76 15h4q12 6 26 7t33 -1t27 -2q22 2 59 -2q15 0 35 -8q29 -14 49 -27q6 -3 15 -12q-12 -6 -19 -13q2 -4 8 -10q-1 -7 -9.5 -7.5t-10.5 -2.5q4 -12 12.5 -22t16 -15t22.5 -14q-4 -3 -10.5 -9t-9.5 -8q-12 -4 -17 -4 q-2 0 -9.5 1.5t-10.5 0.5t-7.5 -6.5t-7.5 -7.5q4 -5 3.5 -7.5t-3 -6.5t-2.5 -6q-27 -9 -30 -9q-5 0 -14.5 2.5t-12.5 3.5q0 -5 2 -8t5.5 -5t4.5 -3q-20 0 -30 -2q-31 -6 -58 6q-6 4 -16 4h-31q-3 0 -20.5 -1t-24.5 -2t-19 -4t-22 -9q-1 -1 -3 -2t-3 -2q-94 -31 -143 -142 q-1 -2 -35 -90l-6 -12q-9 -12 -13 -31q-2 -8 -3 -25.5t-3 -25.5q-1 -5 2.5 -12t1.5 -12q-6 -10 -2 -23q0 -13 4 -41q0 -29 2 -43q6 -46 15 -98q14 -87 57 -174q39 -76 119 -125q9 -6 29 -15t22 -10q28 -11 107 -24q19 -2 54 -2.5t46 -1.5q15 0 20 -5q3 -1 6 -0.5t8.5 1.5 t8.5 1q67 13 96 13q2 -6 2 -15q6 0 19.5 -1t19.5 -1q43 4 62 -20q7 1 11 -7t5 -9q8 -2 23 -13q-4 -4 -10 -9.5t-9 -8.5q1 -1 4.5 -2t5.5 -2q-4 -6 -12 -18.5t-12 -18.5q-3 -3 -12.5 -9t-12.5 -8q-8 -4 -20 -12q-4 -4 -8 -4q-50 -9 -66 4q-6 -2 -19 -5t-20 -5v-14 q-3 -1 -9 -3.5t-9 -3.5q-9 -1 -31 -3t-30 -2t-29 1q-22 4 -27 11q-13 -8 -35 -15q13 -22 37 -47q35 -27 55 -45q7 -3 4 -12q0 -6 9 -15q-3 -3 -9 -6q3 -3 13 -8q2 -2 0 -4q-5 -12 4 -33q5 -10 2 -26v-19q0 -13 -6 -15q-2 -1 -6 -1h-3q-30 -35 -36 -41q-2 -2 -8 -9.5t-9 -9.5 q-8 -6 -23 -17.5t-27 -20.5t-24 -15q-22 -13 -26 -26q-2 -5 -6 -7.5t-9 -3t-6 -0.5q-3 1 -8.5 5t-7.5 4q-15 0 -25 10q0 -2 1 -4.5t1 -3.5q-17 -13 -43 4q-1 1 -2 3t-2 3q-6 -8 -18.5 -2t-17.5 4q-1 0 -4.5 1t-4.5 1q-6 18 -20 0q0 5 3.5 12.5t4 10.5t-5.5 10q-3 3 -11 1.5 t-14 -7.5q0 14 2 22q-10 -26 -41 -33v2q0 3 1 9t1 10q-4 -3 -5 -6t-0.5 -4.5t2 -4.5t1.5 -4zM860 244q-4 0 -4 -2v-4q1 1 3 2t3 2z" />
<glyph unicode="&#xe8;" horiz-adv-x="641" d="M223 1583q-28 41 -51 88q-4 0 0 4q0 3 1 5.5t2.5 6t2.5 5.5l2 6q8 16 17 16h6h24q2 0 6 1t5 1h4q1 -1 4 -3t4 -3q13 -5 24 -16q3 -3 27 -33q4 -8 14 -23q20 -33 41 -57q7 -5 23 -29q1 -2 4.5 -7t5.5 -7q32 -53 37 -68v-2q7 -25 2 -32q-4 -12 -4 -15q0 -10 -4 -10l-4 -2 l-10 -23q-2 0 -6.5 1.5t-6.5 1.5q-6 -3 -16 4l-12 12q-7 7 -21 14q-28 22 -47 47l-4 4q-26 37 -29 43q-17 32 -41 70zM600 143q-1 -3 -2 -9.5t-2 -10t-3.5 -8.5t-7.5 -8t-12 -5q4 -3 2 -9l-2.5 -7.5t-5.5 -7t-6 -6.5q-21 -21 -35 -27q-4 -2 -10.5 -5t-7.5 -3q-78 0 -115 -2 q-13 -1 -38.5 -3t-39.5 -3h-41q-33 0 -49 -2q-21 -3 -43 10q-39 23 -69 74q-33 61 -33 127q0 38 1 117t1 120v10q-2 23 -2 136v137v33q0 4 -10 24q2 0 10 -4q0 2 1 6t1 6q0 19 1 56t1 55q0 16 2.5 85t3.5 105q4 29 -16 43q-1 0 -8 15l12 12q-4 4 -23.5 14.5t-25.5 22.5 q4 8 4 10q-14 5 -19 8q0 -3 1 -7t1 -5q-14 -7 -14 4q-2 4 6 12q4 4 10 4q9 -2 17 1.5t17 10.5t14 9q2 2 14 8q6 0 18.5 1t18.5 1q27 4 45 19q-6 2 -13 2t-14 -1t-10 -1q-6 0 -18.5 -1t-18.5 -1q-19 -4 -37 2q9 0 17 8q-1 1 -3.5 4t-3.5 4q14 3 50 8q16 2 60.5 10.5 t68.5 10.5q65 12 131 12q32 4 100 8q4 0 12 -1t13 -1q5 1 9.5 -0.5t11 -5.5t9.5 -6q1 0 8 -5.5t9 -7.5t5 -8t3 -12q4 -2 4 -4q5 -1 13.5 -4.5t9.5 -3.5q2 -9 5 -30t5 -32q-7 -3 -7 -16t-1 -16q-18 -5 -33 -27q-7 -11 -21 -14q-24 -2 -71 -7.5t-68 -7.5q-13 -1 -36.5 -4 t-35.5 -4q-9 -1 -27.5 -2t-27.5 -2q-9 -3 -24 -6q0 -10 -2.5 -32t-2.5 -32v-196q0 -11 2 -17h37q24 -1 72.5 -2t71.5 -2q6 0 14 -4q15 -5 33 -14q-2 -1 -5 -3t-5 -3q13 -21 26 -23q17 0 37 -12q12 -6 13.5 -11t-1.5 -18q20 -17 9 -39q-15 -25 -21 -30q-2 -3 -5.5 -4.5 t-8.5 -3.5t-8 -3q0 -10 -5 -18q-2 -4 -16 -4h-82h-57q-14 1 -39 3t-39 3q-17 1 -23 -5t-6 -24q4 -49 8 -143q0 -22 -1 -68t-1 -69v-107v-10q0 -11 2.5 -13.5t14.5 -2.5q16 1 88 6h113q7 0 22.5 1t22.5 1q14 0 34 -4q2 -1 13 -17q4 0 16 -4l-6 -24q13 0 18 -13q1 -1 7.5 -3.5 t9.5 -4.5q-1 -2 3 -11t-3 -13q10 -5 14 -9zM119 1321q11 -4 18 6q-3 -1 -9.5 -2t-8.5 -2v-2z" />
<glyph unicode="&#xe9;" d="M731 1421q0 3 -4 15q-7 10 2 32v2q5 15 37 68q2 2 5.5 7t4.5 7q16 24 23 29q21 24 41 57q10 15 14 23q24 30 27 33q11 11 24 16q1 1 4 3t4 3h5q1 0 4.5 -1t5.5 -1h24h6q9 0 17 -16l2 -6q0 -1 3 -7t3 -10q4 -4 0 -4q-23 -47 -51 -88q-24 -38 -41 -70q-3 -6 -29 -43l-4 -4 q-16 -21 -49 -47q-12 -8 -18 -14t-15 -12q-7 -7 -14 -4q-2 0 -6 -1.5t-6 -1.5l-11 23l-4 2q-4 0 -4 10zM1153 143q-1 -3 -2 -9.5t-2 -10t-3.5 -8.5t-7.5 -8t-12 -5q4 -3 2 -9l-2.5 -7.5t-5.5 -6.5t-6 -7q-21 -21 -35 -27q-4 -2 -10.5 -5t-7.5 -3q-78 0 -115 -2 q-14 -1 -39 -3t-39 -3h-41q-33 0 -49 -2q-21 -3 -43 10q-39 23 -69 74q-33 61 -33 127q0 38 1 117t1 120v10q-2 22 -2 136v137q0 3 -0.5 10t-0.5 13t1 10q0 4 -10 24q2 0 10 -4q0 2 1 6t1 6q0 19 1 56t1 55q1 16 3 85t3 105q4 29 -16 43q-2 1 -9 15q2 2 6.5 6t6.5 6 q-4 4 -23.5 14.5t-25.5 22.5q4 8 4 10q-14 5 -19 8q0 -3 1 -7t1 -5q-14 -7 -14 4q-2 4 6 12q4 4 10 4q9 -2 16.5 1.5t16.5 10.5t14 9q1 1 15 8q6 0 18.5 1t18.5 1q27 4 45 19q-6 2 -13 2t-14 -1t-10 -1q-6 0 -18.5 -1t-18.5 -1q-19 -4 -37 2q9 0 17 8q-1 1 -3.5 4t-3.5 4 q14 3 50 8q16 2 60.5 10.5t68.5 10.5q65 12 131 12q32 4 100 8q4 0 12 -1t13 -1q5 1 9.5 -0.5t11 -5.5t9.5 -6q1 0 8 -5.5t9 -7.5t5 -8t3 -12q4 -2 4 -4q5 -1 13 -4t9 -4q9 -54 11 -62q-7 -3 -7 -16t-1 -16q-18 -5 -33 -27q-7 -11 -21 -14q-24 -2 -71 -7.5t-68 -7.5 q-13 -1 -36.5 -4t-35.5 -4q-9 -1 -27.5 -2t-27.5 -2q-7 -3 -25 -6q0 -10 -2 -32t-2 -32v-196q0 -11 2 -17h37q23 -1 72 -2t72 -2q6 0 14 -4q15 -5 33 -14q-2 -1 -5 -3t-5 -3q13 -21 26 -23q17 0 37 -12q12 -6 13.5 -11t-1.5 -18q19 -16 8 -39q-16 -27 -20 -30 q-2 -3 -5.5 -4.5t-9 -3.5t-8.5 -3q0 -12 -4 -18q-2 -4 -16 -4h-82h-57l-39 3l-39 3q-17 1 -23 -5t-6 -24q4 -49 8 -143q0 -22 -1 -68t-1 -69v-107v-10q0 -11 2.5 -13.5t14.5 -2.5q15 1 88 6h112q7 0 23 1t23 1q14 0 34 -4q3 -1 13 -17q4 0 16 -4l-6 -24q13 0 18 -13 q1 -1 7.5 -3.5t9.5 -4.5q-1 -2 3 -11t-3 -13q10 -5 14 -9zM672 1321q11 -4 18 6q-3 -1 -9.5 -2t-8.5 -2v-2z" />
<glyph unicode="&#xf9;" d="M1169 467q3 -7 0.5 -40t-2.5 -40v-18q0 -25 -4 -35q-4 -14 -4 -41q0 -28 -4 -86q-7 -41 -25 -74q-13 -23 -47 -72q-40 -46 -82 -67q2 2 5 8q-4 1 -19 -4q-19 -6 -33 -2q-8 2 -24 2q-85 6 -86 6q-38 0 -78 16q-37 15 -53 41q-41 64 -54 152q-2 14 -8 39.5t-8 38.5 q-6 37 -6 74q-2 39 -2 116q-4 70 -14 103q-17 76 -23 168q-2 19 -5 56t-5 56q-2 14 -10 33q-2 19 -17 100q-6 30 -6 31q-4 28 -2 43q1 7 -0.5 21t-1.5 18q-2 14 -2 41q0 17 -4 20v9q0 49 -8 88q-3 21 6 39q1 4 2 11.5t2 10.5v2q8 6 15.5 20.5t12.5 20.5q5 -18 15 -41l8 12 q12 -27 29 -47q31 -34 39 -63l4 -16l4 12v-2q3 -18 6 -33q9 -114 14 -160q1 -14 4 -42.5t4 -43.5q2 -16 7 -86q1 -26 2 -76.5t2 -76.5q1 -15 5 -46.5t5 -48.5q2 -9 3.5 -31t2.5 -26q6 -30 20 -86.5t19 -81.5q4 -16 6.5 -46t5.5 -42q19 -83 21 -102q3 -13 24 -13h21 q13 1 37.5 1t36.5 1q2 0 9 -1t14.5 -1t14.5 2q5 0 5 9q2 12 12.5 43.5t11.5 48.5q1 7 6 54t6 71q1 20 0.5 70.5t1.5 70.5q0 13 -2 37t-2 35q0 100 -2 147q-2 45 -10 121q-3 47 -6 96q-7 110 -31 199q-1 4 -7.5 38t-6.5 54q1 8 6 53q8 0 10 -2q2 26 8.5 35t32.5 18 q5 -2 14.5 -5t14.5 -5q0 -4 2 -6l2 -2q12 3 18 -8q2 -2 8.5 -5t8.5 -5q8 -4 8 -11q0 -4 4 -4q7 0 12 -10q10 -34 11 -43q3 -6 0 -12q-5 -8 0 -35q4 -27 22 -123q2 -8 4 -25t2 -18q2 -12 13 -115q18 -137 18 -143q2 -53 10 -149q7 -56 4 -101q-5 -39 2 -94zM664 1497 q-24 24 -56 70v4q1 2 2 7.5t2 8.5l2 4q6 17 13 17h4q6 0 22 4q7 0 9 2h4l8 -4q18 -9 22 -13q12 -7 27 -26q8 -8 14 -17q21 -28 43 -45q19 -19 21 -22q8 -8 10 -12q26 -26 41 -56v-2q9 -15 6 -26q-2 -3 -2 -13l-2 -10l-4 -2l-8 -20h-11q-3 -2 -14 2q-2 2 -6 5t-6 5 q-8 3 -19 10q-23 14 -47 35l-4 4q-21 21 -28 35q-18 26 -43 55z" />
<glyph unicode="&#xfa;" d="M1169 469q3 -8 0.5 -41.5t-2.5 -40.5v-18q0 -23 -4 -35q-2 -7 -2 -41q-1 -15 -3 -43.5t-3 -42.5q-7 -41 -25 -74q-13 -23 -47 -72q-40 -46 -82 -67q2 2 5 8q-4 1 -19 -4q-18 -7 -33 -2q-8 2 -24 2q-85 6 -86 6q-44 4 -78 16q-37 15 -53 41q-36 56 -54 152q-2 14 -8 39.5 t-8 38.5q-6 37 -6 74q-2 39 -2 116q-4 70 -14 103q-17 76 -23 168q-2 19 -5 57t-5 57q-2 7 -10 33q-2 15 -17 98q-6 30 -6 31q-4 28 -2 43q1 7 -0.5 21.5t-1.5 19.5q-2 12 -2 39q0 20 -2 23q-2 2 -2 6q3 37 -8 88q-3 23 6 39q4 16 4 22v2q7 5 15.5 20t15.5 21q4 -21 12 -41 l8 12q3 -5 8.5 -15t10.5 -17.5t10 -12.5q31 -39 39 -63q0 -2 4 -18l4 12v-2q1 -6 3 -16.5t3 -16.5q9 -114 14 -160q1 -14 4 -42.5t4 -43.5q2 -16 7 -86q1 -26 2 -76.5t2 -76.5q1 -15 5 -46.5t5 -48.5q2 -9 3.5 -31t2.5 -26q6 -30 20 -86.5t19 -81.5q4 -16 6.5 -46t5.5 -42 q19 -83 21 -102q3 -13 24 -13h21q13 1 37.5 1t36.5 1q1 0 9 -1t15 -0.5t14 3.5q5 0 5 7q2 12 12.5 43.5t11.5 48.5q1 7 6 54t6 71q1 20 0.5 70.5t1.5 70.5q0 13 -2 37t-2 35q0 100 -2 149q-2 43 -10 119q-3 49 -6 96q-3 96 -31 199q-1 4 -7.5 38t-6.5 54q1 8 6 53q8 0 10 -2 q2 26 8.5 35t32.5 18q5 -2 14.5 -5t14.5 -5q0 -4 2 -6l2 -2q12 3 18 -8q8 -4 17 -10q6 -3 10 -11q0 -4 2 -4q7 0 12 -10q10 -35 11 -43q3 -6 0 -12q-5 -8 0 -33q6 -41 22 -123q2 -9 4 -26t2 -19q2 -12 13 -115q18 -137 18 -143q1 -24 5 -73.5t5 -75.5q7 -56 4 -101 q-5 -38 2 -92zM723 1356q0 2 -4 14q-8 10 2 33v2q5 15 37 68q9 14 10 16q3 3 7.5 9.5t8 11t7.5 8.5q10 10 40 55q12 18 15 22q1 1 10.5 14t15.5 19q12 12 25 17q4 4 8 6h4q1 0 5 -1t6 -1h24h6q10 0 17 -17l2 -4l6 -18q4 -4 0 -4q-23 -47 -51 -88q-24 -34 -41 -70 q-3 -6 -29 -43l-4 -4q-19 -25 -49 -45q-3 -3 -9.5 -8.5t-9.5 -8.5q-8 -8 -14 -12q-9 -6 -14 -4q-2 0 -6.5 -1t-6.5 -1l-10 22l-6 3q-2 4 -2 10z" />
<glyph unicode="&#x2000;" horiz-adv-x="858" />
<glyph unicode="&#x2001;" horiz-adv-x="1716" />
<glyph unicode="&#x2002;" horiz-adv-x="858" />
<glyph unicode="&#x2003;" horiz-adv-x="1716" />
<glyph unicode="&#x2004;" horiz-adv-x="572" />
<glyph unicode="&#x2005;" horiz-adv-x="429" />
<glyph unicode="&#x2006;" horiz-adv-x="286" />
<glyph unicode="&#x2007;" horiz-adv-x="286" />
<glyph unicode="&#x2008;" horiz-adv-x="214" />
<glyph unicode="&#x2009;" horiz-adv-x="343" />
<glyph unicode="&#x200a;" horiz-adv-x="95" />
<glyph unicode="&#x2010;" horiz-adv-x="808" d="M741 803q1 -1 4 -2q22 -10 13 -21h-25q8 -28 8 -45q2 -5 -2.5 -11t-11.5 -9q-37 -12 -78 -21q-15 -3 -30.5 -3.5t-37 0.5t-30.5 1q-13 0 -39 -1t-39 -1q-15 0 -51 4q-20 0 -60 4q-56 3 -108 9q-27 0 -39 2q-71 10 -119 26q-51 17 -69 41q-4 3 -9 17q-2 5 -5 15.5t-7 16.5 q-11 15 0 35t35 31q31 13 41 20q18 12 26 13t33 -6q39 -12 68 -7q4 0 22 3.5t27 3.5q29 2 84 2q13 -1 41 -3.5t41 -3.5q14 0 20 2q-4 1 -12 4.5t-12 4.5v2q15 -1 43.5 -3t42.5 -3q12 0 57 -5q6 -1 18.5 -2.5t20 -2.5t17.5 -4t18 -7q10 -6 36 -13t32 -9q4 -1 22 -13 q5 -4 13.5 -13t13.5 -13q14 -13 12 -19t-25 -16z" />
<glyph unicode="&#x2011;" horiz-adv-x="808" d="M741 803q1 -1 4 -2q22 -10 13 -21h-25q8 -28 8 -45q2 -5 -2.5 -11t-11.5 -9q-37 -12 -78 -21q-15 -3 -30.5 -3.5t-37 0.5t-30.5 1q-13 0 -39 -1t-39 -1q-15 0 -51 4q-20 0 -60 4q-56 3 -108 9q-27 0 -39 2q-71 10 -119 26q-51 17 -69 41q-4 3 -9 17q-2 5 -5 15.5t-7 16.5 q-11 15 0 35t35 31q31 13 41 20q18 12 26 13t33 -6q39 -12 68 -7q4 0 22 3.5t27 3.5q29 2 84 2q13 -1 41 -3.5t41 -3.5q14 0 20 2q-4 1 -12 4.5t-12 4.5v2q15 -1 43.5 -3t42.5 -3q12 0 57 -5q6 -1 18.5 -2.5t20 -2.5t17.5 -4t18 -7q10 -6 36 -13t32 -9q4 -1 22 -13 q5 -4 13.5 -13t13.5 -13q14 -13 12 -19t-25 -16z" />
<glyph unicode="&#x2012;" horiz-adv-x="808" d="M741 803q1 -1 4 -2q22 -10 13 -21h-25q8 -28 8 -45q2 -5 -2.5 -11t-11.5 -9q-37 -12 -78 -21q-15 -3 -30.5 -3.5t-37 0.5t-30.5 1q-13 0 -39 -1t-39 -1q-15 0 -51 4q-20 0 -60 4q-56 3 -108 9q-27 0 -39 2q-71 10 -119 26q-51 17 -69 41q-4 3 -9 17q-2 5 -5 15.5t-7 16.5 q-11 15 0 35t35 31q31 13 41 20q18 12 26 13t33 -6q39 -12 68 -7q4 0 22 3.5t27 3.5q29 2 84 2q13 -1 41 -3.5t41 -3.5q14 0 20 2q-4 1 -12 4.5t-12 4.5v2q15 -1 43.5 -3t42.5 -3q12 0 57 -5q6 -1 18.5 -2.5t20 -2.5t17.5 -4t18 -7q10 -6 36 -13t32 -9q4 -1 22 -13 q5 -4 13.5 -13t13.5 -13q14 -13 12 -19t-25 -16z" />
<glyph unicode="&#x2013;" horiz-adv-x="1065" d="M990 803q2 -1 6 -2q29 -10 17 -21h-33q10 -28 10 -45q3 -5 -3 -11t-15 -9q-50 -12 -105 -21q-20 -3 -40.5 -3.5t-49.5 0.5t-41 1q-17 0 -52 -1t-52 -1q-20 0 -68 4q-27 0 -81 4q-74 3 -144 9q-36 0 -52 2q-95 10 -159 26q-68 17 -93 41q-5 3 -12 17q-2 5 -6 15.5 t-10 16.5q-14 15 0.5 35t46.5 31q42 13 55 20q24 12 34.5 13t44.5 -6q52 -12 91 -7q5 0 29 3.5t36 3.5q39 2 113 2q17 -1 54.5 -3.5t54.5 -3.5q19 0 27 2q-5 1 -16 4.5t-16 4.5v2q20 -1 58 -3l57 -3q16 0 76 -5q8 -1 25 -2.5t27 -2.5t23 -4t24 -7q14 -6 48.5 -13t42.5 -9 q5 -1 30 -13q6 -4 17.5 -13t18.5 -13q18 -13 15.5 -19t-33.5 -16z" />
<glyph unicode="&#x2014;" horiz-adv-x="2088" d="M1980 803q3 -1 11 -2q59 -10 35 -21h-67q21 -28 21 -45q6 -5 -6 -11t-31 -9q-99 -12 -209 -21q-40 -3 -81.5 -3.5t-99 0.5t-81.5 1q-34 0 -104 -1t-104 -1q-40 0 -137 4q-53 0 -160 4q-150 3 -289 9q-72 0 -104 2q-190 10 -319 26q-136 17 -184 41q-11 3 -24 17 q-6 5 -14 15.5t-18 16.5q-30 15 -0.5 35t93.5 31q83 13 110 20q48 12 69.5 13t88.5 -6q104 -12 182 -7q10 0 58.5 3.5t72.5 3.5q77 2 224 2q35 -1 110 -3.5t110 -3.5q37 0 53 2q-11 1 -32 4.5t-32 4.5v2q40 -1 116.5 -3t113.5 -3q32 0 152 -5q16 -1 49.5 -2.5t53.5 -2.5 t47 -4t48 -7q27 -6 96.5 -13t85.5 -9q11 -1 59 -13q13 -4 36 -13t36 -13q38 -13 32.5 -19t-67.5 -16z" />
<glyph unicode="&#x202f;" horiz-adv-x="343" />
<glyph unicode="&#x205f;" horiz-adv-x="429" />
<glyph unicode="&#x20ac;" d="M1356 211q-9 -8 -24 -24.5t-19 -20.5q-8 -12 -15 -19q-32 -37 -77 -53q-21 -7 -58 -35l-8 -6q-45 -33 -80 -41q-24 -7 -37 -12q-30 -10 -32 -10q-20 -2 -66 -17q-23 -10 -37 -10h-4q-175 20 -266 111q-56 53 -96 131q-19 35 -43 125q-2 6 -8 25t-9 28q-1 5 -2 19.5 t-2 21.5v14q0 50 -39 82q-13 11 -34 30.5t-27 24.5q-28 28 -25 66l2 4q0 2 1 13.5t0.5 21t-3.5 18.5q18 43 80 93q3 0 7.5 1t6.5 1l47 10l5 112q0 23 2 35q0 44 2 64q8 37 24 86l4 12q1 4 11 29q9 21 18 45q26 95 102 190q5 6 22 26.5t26 29.5q2 2 12 15t16 19q8 13 33 15 q19 4 53 8h2q40 3 88 12q8 2 27 2q40 0 88 -22q8 -3 86 -41q6 -3 18.5 -9.5t18.5 -9.5h2q90 -78 123 -145q21 -44 12 -88l-33 -33v-2q-12 6 -32 6q-37 0 -66 -26q-6 -3 -10 -3q-3 -1 -9.5 -3t-9.5 -3q-29 22 -61 25q-41 72 -129 72q-4 0 -11 -1t-10 -1q-74 -6 -112 -68 q-3 -5 -8.5 -14t-6.5 -11q-7 -17 -14 -24q-33 -26 -33 -78q-2 -39 -2 -113v-100l58 -4q8 -2 22 -2q36 -4 53 -4q2 0 6.5 -1t6.5 -1q15 0 69 4h4q10 2 25 2q12 0 16 -4q20 -10 50 -10h2l30 -5q12 -1 36.5 -4t37.5 -4q6 -6 39 -28q9 -6 18 -15q17 -29 19 -57q0 -2 -4 -6 q-3 -1 -23 -6q-22 -9 -35 -11q-7 -2 -16.5 -7t-13.5 -7q-8 -4 -11 -4l-71 -35l24 -31q-5 -2 -12 -7.5t-8 -6.5q-4 -4 -6 -4l-6 -4q-25 -3 -75 -9.5t-75 -9.5l-78 -10q-3 -1 -9 -2t-9 -2h-4l-45 -10l-4 -45q-5 -16 0 -37q56 -188 217 -188q6 0 18 1t18 1q93 12 158 65 q9 6 29 14l26 13q36 -8 66 -8h10q15 0 27 6q24 -18 29 -21l2 -4q8 -47 10 -65q2 -23 -2 -27z" />
<glyph unicode="&#x25fc;" horiz-adv-x="1525" d="M0 1526h1526v-1526h-1526v1526z" />
</font>
</defs>
</svg>
